<?xml version="1.0" encoding="utf-8" standalone="no"?>
<!DOCTYPE svg PUBLIC "-//W3C//DTD SVG 1.1//EN"
  "http://www.w3.org/Graphics/SVG/1.1/DTD/svg11.dtd">
<svg xmlns:xlink="http://www.w3.org/1999/xlink" width="856.664375pt" height="425.17625pt" viewBox="0 0 856.664375 425.17625" xmlns="http://www.w3.org/2000/svg" version="1.1">
 <metadata>
  <rdf:RDF xmlns:dc="http://purl.org/dc/elements/1.1/" xmlns:cc="http://creativecommons.org/ns#" xmlns:rdf="http://www.w3.org/1999/02/22-rdf-syntax-ns#">
   <cc:Work>
    <dc:type rdf:resource="http://purl.org/dc/dcmitype/StillImage"/>
    <dc:date>2025-07-31T15:49:53.482417</dc:date>
    <dc:format>image/svg+xml</dc:format>
    <dc:creator>
     <cc:Agent>
      <dc:title>Matplotlib v3.10.3, https://matplotlib.org/</dc:title>
     </cc:Agent>
    </dc:creator>
   </cc:Work>
  </rdf:RDF>
 </metadata>
 <defs>
  <style type="text/css">*{stroke-linejoin: round; stroke-linecap: butt}</style>
 </defs>
 <g id="figure_1">
  <g id="patch_1">
   <path d="M 0 425.17625 
L 856.664375 425.17625 
L 856.664375 0 
L 0 0 
z
" style="fill: #121212"/>
  </g>
  <g id="axes_1">
   <g id="patch_2">
    <path d="M 65.564375 363.8775 
L 849.464375 363.8775 
L 849.464375 39.3575 
L 65.564375 39.3575 
z
"/>
   </g>
   <g id="patch_3">
    <path d="M 102.086989 363.8775 
L 107.431761 363.8775 
L 107.431761 359.584907 
L 102.086989 359.584907 
z
" clip-path="url(#p7d64ee19e3)" style="fill: #cf3030; opacity: 0.6; stroke: #cf3030; stroke-width: 1.2; stroke-linejoin: miter"/>
   </g>
   <g id="patch_4">
    <path d="M 119.902898 363.8775 
L 125.24767 363.8775 
L 125.24767 363.8775 
L 119.902898 363.8775 
z
" clip-path="url(#p7d64ee19e3)" style="fill: #cf3030; opacity: 0.6; stroke: #cf3030; stroke-width: 1.2; stroke-linejoin: miter"/>
   </g>
   <g id="patch_5">
    <path d="M 137.718807 363.8775 
L 143.06358 363.8775 
L 143.06358 333.829352 
L 137.718807 333.829352 
z
" clip-path="url(#p7d64ee19e3)" style="fill: #cf3030; opacity: 0.6; stroke: #cf3030; stroke-width: 1.2; stroke-linejoin: miter"/>
   </g>
   <g id="patch_6">
    <path d="M 155.534716 363.8775 
L 160.879489 363.8775 
L 160.879489 303.781204 
L 155.534716 303.781204 
z
" clip-path="url(#p7d64ee19e3)" style="fill: #cf3030; opacity: 0.6; stroke: #cf3030; stroke-width: 1.2; stroke-linejoin: miter"/>
   </g>
   <g id="patch_7">
    <path d="M 173.350625 363.8775 
L 178.695398 363.8775 
L 178.695398 342.414537 
L 173.350625 342.414537 
z
" clip-path="url(#p7d64ee19e3)" style="fill: #cf3030; opacity: 0.6; stroke: #cf3030; stroke-width: 1.2; stroke-linejoin: miter"/>
   </g>
   <g id="patch_8">
    <path d="M 191.166534 363.8775 
L 196.511307 363.8775 
L 196.511307 299.488611 
L 191.166534 299.488611 
z
" clip-path="url(#p7d64ee19e3)" style="fill: #cf3030; opacity: 0.6; stroke: #cf3030; stroke-width: 1.2; stroke-linejoin: miter"/>
   </g>
   <g id="patch_9">
    <path d="M 208.982443 363.8775 
L 214.327216 363.8775 
L 214.327216 299.488611 
L 208.982443 299.488611 
z
" clip-path="url(#p7d64ee19e3)" style="fill: #cf3030; opacity: 0.6; stroke: #cf3030; stroke-width: 1.2; stroke-linejoin: miter"/>
   </g>
   <g id="patch_10">
    <path d="M 226.798352 363.8775 
L 232.143125 363.8775 
L 232.143125 243.684907 
L 226.798352 243.684907 
z
" clip-path="url(#p7d64ee19e3)" style="fill: #cf3030; opacity: 0.6; stroke: #cf3030; stroke-width: 1.2; stroke-linejoin: miter"/>
   </g>
   <g id="patch_11">
    <path d="M 244.614261 363.8775 
L 249.959034 363.8775 
L 249.959034 278.025648 
L 244.614261 278.025648 
z
" clip-path="url(#p7d64ee19e3)" style="fill: #cf3030; opacity: 0.6; stroke: #cf3030; stroke-width: 1.2; stroke-linejoin: miter"/>
   </g>
   <g id="patch_12">
    <path d="M 262.43017 363.8775 
L 267.774943 363.8775 
L 267.774943 239.392315 
L 262.43017 239.392315 
z
" clip-path="url(#p7d64ee19e3)" style="fill: #cf3030; opacity: 0.6; stroke: #cf3030; stroke-width: 1.2; stroke-linejoin: miter"/>
   </g>
   <g id="patch_13">
    <path d="M 280.24608 363.8775 
L 285.590852 363.8775 
L 285.590852 235.099722 
L 280.24608 235.099722 
z
" clip-path="url(#p7d64ee19e3)" style="fill: #cf3030; opacity: 0.6; stroke: #cf3030; stroke-width: 1.2; stroke-linejoin: miter"/>
   </g>
   <g id="patch_14">
    <path d="M 298.061989 363.8775 
L 303.406761 363.8775 
L 303.406761 226.514537 
L 298.061989 226.514537 
z
" clip-path="url(#p7d64ee19e3)" style="fill: #cf3030; opacity: 0.6; stroke: #cf3030; stroke-width: 1.2; stroke-linejoin: miter"/>
   </g>
   <g id="patch_15">
    <path d="M 315.877898 363.8775 
L 321.22267 363.8775 
L 321.22267 217.929352 
L 315.877898 217.929352 
z
" clip-path="url(#p7d64ee19e3)" style="fill: #cf3030; opacity: 0.6; stroke: #cf3030; stroke-width: 1.2; stroke-linejoin: miter"/>
   </g>
   <g id="patch_16">
    <path d="M 333.693807 363.8775 
L 339.03858 363.8775 
L 339.03858 243.684907 
L 333.693807 243.684907 
z
" clip-path="url(#p7d64ee19e3)" style="fill: #cf3030; opacity: 0.6; stroke: #cf3030; stroke-width: 1.2; stroke-linejoin: miter"/>
   </g>
   <g id="patch_17">
    <path d="M 351.509716 363.8775 
L 356.854489 363.8775 
L 356.854489 213.636759 
L 351.509716 213.636759 
z
" clip-path="url(#p7d64ee19e3)" style="fill: #cf3030; opacity: 0.6; stroke: #cf3030; stroke-width: 1.2; stroke-linejoin: miter"/>
   </g>
   <g id="patch_18">
    <path d="M 369.325625 363.8775 
L 374.670398 363.8775 
L 374.670398 200.758981 
L 369.325625 200.758981 
z
" clip-path="url(#p7d64ee19e3)" style="fill: #cf3030; opacity: 0.6; stroke: #cf3030; stroke-width: 1.2; stroke-linejoin: miter"/>
   </g>
   <g id="patch_19">
    <path d="M 387.141534 363.8775 
L 392.486307 363.8775 
L 392.486307 252.270093 
L 387.141534 252.270093 
z
" clip-path="url(#p7d64ee19e3)" style="fill: #cf3030; opacity: 0.6; stroke: #cf3030; stroke-width: 1.2; stroke-linejoin: miter"/>
   </g>
   <g id="patch_20">
    <path d="M 404.957443 363.8775 
L 410.302216 363.8775 
L 410.302216 247.9775 
L 404.957443 247.9775 
z
" clip-path="url(#p7d64ee19e3)" style="fill: #cf3030; opacity: 0.6; stroke: #cf3030; stroke-width: 1.2; stroke-linejoin: miter"/>
   </g>
   <g id="patch_21">
    <path d="M 422.773352 363.8775 
L 428.118125 363.8775 
L 428.118125 243.684907 
L 422.773352 243.684907 
z
" clip-path="url(#p7d64ee19e3)" style="fill: #cf3030; opacity: 0.6; stroke: #cf3030; stroke-width: 1.2; stroke-linejoin: miter"/>
   </g>
   <g id="patch_22">
    <path d="M 440.589261 363.8775 
L 445.934034 363.8775 
L 445.934034 308.073796 
L 440.589261 308.073796 
z
" clip-path="url(#p7d64ee19e3)" style="fill: #cf3030; opacity: 0.6; stroke: #cf3030; stroke-width: 1.2; stroke-linejoin: miter"/>
   </g>
   <g id="patch_23">
    <path d="M 458.40517 363.8775 
L 463.749943 363.8775 
L 463.749943 295.196019 
L 458.40517 295.196019 
z
" clip-path="url(#p7d64ee19e3)" style="fill: #cf3030; opacity: 0.6; stroke: #cf3030; stroke-width: 1.2; stroke-linejoin: miter"/>
   </g>
   <g id="patch_24">
    <path d="M 476.22108 363.8775 
L 481.565852 363.8775 
L 481.565852 312.366389 
L 476.22108 312.366389 
z
" clip-path="url(#p7d64ee19e3)" style="fill: #cf3030; opacity: 0.6; stroke: #cf3030; stroke-width: 1.2; stroke-linejoin: miter"/>
   </g>
   <g id="patch_25">
    <path d="M 494.036989 363.8775 
L 499.381761 363.8775 
L 499.381761 312.366389 
L 494.036989 312.366389 
z
" clip-path="url(#p7d64ee19e3)" style="fill: #cf3030; opacity: 0.6; stroke: #cf3030; stroke-width: 1.2; stroke-linejoin: miter"/>
   </g>
   <g id="patch_26">
    <path d="M 511.852898 363.8775 
L 517.19767 363.8775 
L 517.19767 333.829352 
L 511.852898 333.829352 
z
" clip-path="url(#p7d64ee19e3)" style="fill: #cf3030; opacity: 0.6; stroke: #cf3030; stroke-width: 1.2; stroke-linejoin: miter"/>
   </g>
   <g id="patch_27">
    <path d="M 529.668807 363.8775 
L 535.01358 363.8775 
L 535.01358 308.073796 
L 529.668807 308.073796 
z
" clip-path="url(#p7d64ee19e3)" style="fill: #cf3030; opacity: 0.6; stroke: #cf3030; stroke-width: 1.2; stroke-linejoin: miter"/>
   </g>
   <g id="patch_28">
    <path d="M 547.484716 363.8775 
L 552.829489 363.8775 
L 552.829489 346.70713 
L 547.484716 346.70713 
z
" clip-path="url(#p7d64ee19e3)" style="fill: #cf3030; opacity: 0.6; stroke: #cf3030; stroke-width: 1.2; stroke-linejoin: miter"/>
   </g>
   <g id="patch_29">
    <path d="M 565.300625 363.8775 
L 570.645398 363.8775 
L 570.645398 342.414537 
L 565.300625 342.414537 
z
" clip-path="url(#p7d64ee19e3)" style="fill: #cf3030; opacity: 0.6; stroke: #cf3030; stroke-width: 1.2; stroke-linejoin: miter"/>
   </g>
   <g id="patch_30">
    <path d="M 583.116534 363.8775 
L 588.461307 363.8775 
L 588.461307 355.292315 
L 583.116534 355.292315 
z
" clip-path="url(#p7d64ee19e3)" style="fill: #cf3030; opacity: 0.6; stroke: #cf3030; stroke-width: 1.2; stroke-linejoin: miter"/>
   </g>
   <g id="patch_31">
    <path d="M 600.932443 363.8775 
L 606.277216 363.8775 
L 606.277216 355.292315 
L 600.932443 355.292315 
z
" clip-path="url(#p7d64ee19e3)" style="fill: #cf3030; opacity: 0.6; stroke: #cf3030; stroke-width: 1.2; stroke-linejoin: miter"/>
   </g>
   <g id="patch_32">
    <path d="M 618.748352 363.8775 
L 624.093125 363.8775 
L 624.093125 363.8775 
L 618.748352 363.8775 
z
" clip-path="url(#p7d64ee19e3)" style="fill: #cf3030; opacity: 0.6; stroke: #cf3030; stroke-width: 1.2; stroke-linejoin: miter"/>
   </g>
   <g id="patch_33">
    <path d="M 636.564261 363.8775 
L 641.909034 363.8775 
L 641.909034 359.584907 
L 636.564261 359.584907 
z
" clip-path="url(#p7d64ee19e3)" style="fill: #cf3030; opacity: 0.6; stroke: #cf3030; stroke-width: 1.2; stroke-linejoin: miter"/>
   </g>
   <g id="patch_34">
    <path d="M 654.38017 363.8775 
L 659.724943 363.8775 
L 659.724943 363.8775 
L 654.38017 363.8775 
z
" clip-path="url(#p7d64ee19e3)" style="fill: #cf3030; opacity: 0.6; stroke: #cf3030; stroke-width: 1.2; stroke-linejoin: miter"/>
   </g>
   <g id="patch_35">
    <path d="M 672.19608 363.8775 
L 677.540852 363.8775 
L 677.540852 359.584907 
L 672.19608 359.584907 
z
" clip-path="url(#p7d64ee19e3)" style="fill: #cf3030; opacity: 0.6; stroke: #cf3030; stroke-width: 1.2; stroke-linejoin: miter"/>
   </g>
   <g id="patch_36">
    <path d="M 690.011989 363.8775 
L 695.356761 363.8775 
L 695.356761 363.8775 
L 690.011989 363.8775 
z
" clip-path="url(#p7d64ee19e3)" style="fill: #cf3030; opacity: 0.6; stroke: #cf3030; stroke-width: 1.2; stroke-linejoin: miter"/>
   </g>
   <g id="patch_37">
    <path d="M 707.827898 363.8775 
L 713.17267 363.8775 
L 713.17267 363.8775 
L 707.827898 363.8775 
z
" clip-path="url(#p7d64ee19e3)" style="fill: #cf3030; opacity: 0.6; stroke: #cf3030; stroke-width: 1.2; stroke-linejoin: miter"/>
   </g>
   <g id="patch_38">
    <path d="M 725.643807 363.8775 
L 730.98858 363.8775 
L 730.98858 363.8775 
L 725.643807 363.8775 
z
" clip-path="url(#p7d64ee19e3)" style="fill: #cf3030; opacity: 0.6; stroke: #cf3030; stroke-width: 1.2; stroke-linejoin: miter"/>
   </g>
   <g id="patch_39">
    <path d="M 743.459716 363.8775 
L 748.804489 363.8775 
L 748.804489 363.8775 
L 743.459716 363.8775 
z
" clip-path="url(#p7d64ee19e3)" style="fill: #cf3030; opacity: 0.6; stroke: #cf3030; stroke-width: 1.2; stroke-linejoin: miter"/>
   </g>
   <g id="patch_40">
    <path d="M 761.275625 363.8775 
L 766.620398 363.8775 
L 766.620398 363.8775 
L 761.275625 363.8775 
z
" clip-path="url(#p7d64ee19e3)" style="fill: #cf3030; opacity: 0.6; stroke: #cf3030; stroke-width: 1.2; stroke-linejoin: miter"/>
   </g>
   <g id="patch_41">
    <path d="M 779.091534 363.8775 
L 784.436307 363.8775 
L 784.436307 363.8775 
L 779.091534 363.8775 
z
" clip-path="url(#p7d64ee19e3)" style="fill: #cf3030; opacity: 0.6; stroke: #cf3030; stroke-width: 1.2; stroke-linejoin: miter"/>
   </g>
   <g id="patch_42">
    <path d="M 796.907443 363.8775 
L 802.252216 363.8775 
L 802.252216 363.8775 
L 796.907443 363.8775 
z
" clip-path="url(#p7d64ee19e3)" style="fill: #cf3030; opacity: 0.6; stroke: #cf3030; stroke-width: 1.2; stroke-linejoin: miter"/>
   </g>
   <g id="patch_43">
    <path d="M 107.431761 363.8775 
L 112.776534 363.8775 
L 112.776534 363.8775 
L 107.431761 363.8775 
z
" clip-path="url(#p7d64ee19e3)" style="fill: #aaaaaa; opacity: 0.6; stroke: #aaaaaa; stroke-width: 1.2; stroke-linejoin: miter"/>
   </g>
   <g id="patch_44">
    <path d="M 125.24767 363.8775 
L 130.592443 363.8775 
L 130.592443 363.8775 
L 125.24767 363.8775 
z
" clip-path="url(#p7d64ee19e3)" style="fill: #aaaaaa; opacity: 0.6; stroke: #aaaaaa; stroke-width: 1.2; stroke-linejoin: miter"/>
   </g>
   <g id="patch_45">
    <path d="M 143.06358 363.8775 
L 148.408352 363.8775 
L 148.408352 363.8775 
L 143.06358 363.8775 
z
" clip-path="url(#p7d64ee19e3)" style="fill: #aaaaaa; opacity: 0.6; stroke: #aaaaaa; stroke-width: 1.2; stroke-linejoin: miter"/>
   </g>
   <g id="patch_46">
    <path d="M 160.879489 363.8775 
L 166.224261 363.8775 
L 166.224261 359.584907 
L 160.879489 359.584907 
z
" clip-path="url(#p7d64ee19e3)" style="fill: #aaaaaa; opacity: 0.6; stroke: #aaaaaa; stroke-width: 1.2; stroke-linejoin: miter"/>
   </g>
   <g id="patch_47">
    <path d="M 178.695398 363.8775 
L 184.04017 363.8775 
L 184.04017 355.292315 
L 178.695398 355.292315 
z
" clip-path="url(#p7d64ee19e3)" style="fill: #aaaaaa; opacity: 0.6; stroke: #aaaaaa; stroke-width: 1.2; stroke-linejoin: miter"/>
   </g>
   <g id="patch_48">
    <path d="M 196.511307 363.8775 
L 201.85608 363.8775 
L 201.85608 333.829352 
L 196.511307 333.829352 
z
" clip-path="url(#p7d64ee19e3)" style="fill: #aaaaaa; opacity: 0.6; stroke: #aaaaaa; stroke-width: 1.2; stroke-linejoin: miter"/>
   </g>
   <g id="patch_49">
    <path d="M 214.327216 363.8775 
L 219.671989 363.8775 
L 219.671989 359.584907 
L 214.327216 359.584907 
z
" clip-path="url(#p7d64ee19e3)" style="fill: #aaaaaa; opacity: 0.6; stroke: #aaaaaa; stroke-width: 1.2; stroke-linejoin: miter"/>
   </g>
   <g id="patch_50">
    <path d="M 232.143125 363.8775 
L 237.487898 363.8775 
L 237.487898 329.536759 
L 232.143125 329.536759 
z
" clip-path="url(#p7d64ee19e3)" style="fill: #aaaaaa; opacity: 0.6; stroke: #aaaaaa; stroke-width: 1.2; stroke-linejoin: miter"/>
   </g>
   <g id="patch_51">
    <path d="M 249.959034 363.8775 
L 255.303807 363.8775 
L 255.303807 308.073796 
L 249.959034 308.073796 
z
" clip-path="url(#p7d64ee19e3)" style="fill: #aaaaaa; opacity: 0.6; stroke: #aaaaaa; stroke-width: 1.2; stroke-linejoin: miter"/>
   </g>
   <g id="patch_52">
    <path d="M 267.774943 363.8775 
L 273.119716 363.8775 
L 273.119716 290.903426 
L 267.774943 290.903426 
z
" clip-path="url(#p7d64ee19e3)" style="fill: #aaaaaa; opacity: 0.6; stroke: #aaaaaa; stroke-width: 1.2; stroke-linejoin: miter"/>
   </g>
   <g id="patch_53">
    <path d="M 285.590852 363.8775 
L 290.935625 363.8775 
L 290.935625 282.318241 
L 285.590852 282.318241 
z
" clip-path="url(#p7d64ee19e3)" style="fill: #aaaaaa; opacity: 0.6; stroke: #aaaaaa; stroke-width: 1.2; stroke-linejoin: miter"/>
   </g>
   <g id="patch_54">
    <path d="M 303.406761 363.8775 
L 308.751534 363.8775 
L 308.751534 316.658981 
L 303.406761 316.658981 
z
" clip-path="url(#p7d64ee19e3)" style="fill: #aaaaaa; opacity: 0.6; stroke: #aaaaaa; stroke-width: 1.2; stroke-linejoin: miter"/>
   </g>
   <g id="patch_55">
    <path d="M 321.22267 363.8775 
L 326.567443 363.8775 
L 326.567443 286.610833 
L 321.22267 286.610833 
z
" clip-path="url(#p7d64ee19e3)" style="fill: #aaaaaa; opacity: 0.6; stroke: #aaaaaa; stroke-width: 1.2; stroke-linejoin: miter"/>
   </g>
   <g id="patch_56">
    <path d="M 339.03858 363.8775 
L 344.383352 363.8775 
L 344.383352 226.514537 
L 339.03858 226.514537 
z
" clip-path="url(#p7d64ee19e3)" style="fill: #aaaaaa; opacity: 0.6; stroke: #aaaaaa; stroke-width: 1.2; stroke-linejoin: miter"/>
   </g>
   <g id="patch_57">
    <path d="M 356.854489 363.8775 
L 362.199261 363.8775 
L 362.199261 213.636759 
L 356.854489 213.636759 
z
" clip-path="url(#p7d64ee19e3)" style="fill: #aaaaaa; opacity: 0.6; stroke: #aaaaaa; stroke-width: 1.2; stroke-linejoin: miter"/>
   </g>
   <g id="patch_58">
    <path d="M 374.670398 363.8775 
L 380.01517 363.8775 
L 380.01517 230.80713 
L 374.670398 230.80713 
z
" clip-path="url(#p7d64ee19e3)" style="fill: #aaaaaa; opacity: 0.6; stroke: #aaaaaa; stroke-width: 1.2; stroke-linejoin: miter"/>
   </g>
   <g id="patch_59">
    <path d="M 392.486307 363.8775 
L 397.83108 363.8775 
L 397.83108 239.392315 
L 392.486307 239.392315 
z
" clip-path="url(#p7d64ee19e3)" style="fill: #aaaaaa; opacity: 0.6; stroke: #aaaaaa; stroke-width: 1.2; stroke-linejoin: miter"/>
   </g>
   <g id="patch_60">
    <path d="M 410.302216 363.8775 
L 415.646989 363.8775 
L 415.646989 209.344167 
L 410.302216 209.344167 
z
" clip-path="url(#p7d64ee19e3)" style="fill: #aaaaaa; opacity: 0.6; stroke: #aaaaaa; stroke-width: 1.2; stroke-linejoin: miter"/>
   </g>
   <g id="patch_61">
    <path d="M 428.118125 363.8775 
L 433.462898 363.8775 
L 433.462898 213.636759 
L 428.118125 213.636759 
z
" clip-path="url(#p7d64ee19e3)" style="fill: #aaaaaa; opacity: 0.6; stroke: #aaaaaa; stroke-width: 1.2; stroke-linejoin: miter"/>
   </g>
   <g id="patch_62">
    <path d="M 445.934034 363.8775 
L 451.278807 363.8775 
L 451.278807 260.855278 
L 445.934034 260.855278 
z
" clip-path="url(#p7d64ee19e3)" style="fill: #aaaaaa; opacity: 0.6; stroke: #aaaaaa; stroke-width: 1.2; stroke-linejoin: miter"/>
   </g>
   <g id="patch_63">
    <path d="M 463.749943 363.8775 
L 469.094716 363.8775 
L 469.094716 239.392315 
L 463.749943 239.392315 
z
" clip-path="url(#p7d64ee19e3)" style="fill: #aaaaaa; opacity: 0.6; stroke: #aaaaaa; stroke-width: 1.2; stroke-linejoin: miter"/>
   </g>
   <g id="patch_64">
    <path d="M 481.565852 363.8775 
L 486.910625 363.8775 
L 486.910625 247.9775 
L 481.565852 247.9775 
z
" clip-path="url(#p7d64ee19e3)" style="fill: #aaaaaa; opacity: 0.6; stroke: #aaaaaa; stroke-width: 1.2; stroke-linejoin: miter"/>
   </g>
   <g id="patch_65">
    <path d="M 499.381761 363.8775 
L 504.726534 363.8775 
L 504.726534 252.270093 
L 499.381761 252.270093 
z
" clip-path="url(#p7d64ee19e3)" style="fill: #aaaaaa; opacity: 0.6; stroke: #aaaaaa; stroke-width: 1.2; stroke-linejoin: miter"/>
   </g>
   <g id="patch_66">
    <path d="M 517.19767 363.8775 
L 522.542443 363.8775 
L 522.542443 265.14787 
L 517.19767 265.14787 
z
" clip-path="url(#p7d64ee19e3)" style="fill: #aaaaaa; opacity: 0.6; stroke: #aaaaaa; stroke-width: 1.2; stroke-linejoin: miter"/>
   </g>
   <g id="patch_67">
    <path d="M 535.01358 363.8775 
L 540.358352 363.8775 
L 540.358352 303.781204 
L 535.01358 303.781204 
z
" clip-path="url(#p7d64ee19e3)" style="fill: #aaaaaa; opacity: 0.6; stroke: #aaaaaa; stroke-width: 1.2; stroke-linejoin: miter"/>
   </g>
   <g id="patch_68">
    <path d="M 552.829489 363.8775 
L 558.174261 363.8775 
L 558.174261 308.073796 
L 552.829489 308.073796 
z
" clip-path="url(#p7d64ee19e3)" style="fill: #aaaaaa; opacity: 0.6; stroke: #aaaaaa; stroke-width: 1.2; stroke-linejoin: miter"/>
   </g>
   <g id="patch_69">
    <path d="M 570.645398 363.8775 
L 575.99017 363.8775 
L 575.99017 265.14787 
L 570.645398 265.14787 
z
" clip-path="url(#p7d64ee19e3)" style="fill: #aaaaaa; opacity: 0.6; stroke: #aaaaaa; stroke-width: 1.2; stroke-linejoin: miter"/>
   </g>
   <g id="patch_70">
    <path d="M 588.461307 363.8775 
L 593.80608 363.8775 
L 593.80608 338.121944 
L 588.461307 338.121944 
z
" clip-path="url(#p7d64ee19e3)" style="fill: #aaaaaa; opacity: 0.6; stroke: #aaaaaa; stroke-width: 1.2; stroke-linejoin: miter"/>
   </g>
   <g id="patch_71">
    <path d="M 606.277216 363.8775 
L 611.621989 363.8775 
L 611.621989 342.414537 
L 606.277216 342.414537 
z
" clip-path="url(#p7d64ee19e3)" style="fill: #aaaaaa; opacity: 0.6; stroke: #aaaaaa; stroke-width: 1.2; stroke-linejoin: miter"/>
   </g>
   <g id="patch_72">
    <path d="M 624.093125 363.8775 
L 629.437898 363.8775 
L 629.437898 338.121944 
L 624.093125 338.121944 
z
" clip-path="url(#p7d64ee19e3)" style="fill: #aaaaaa; opacity: 0.6; stroke: #aaaaaa; stroke-width: 1.2; stroke-linejoin: miter"/>
   </g>
   <g id="patch_73">
    <path d="M 641.909034 363.8775 
L 647.253807 363.8775 
L 647.253807 350.999722 
L 641.909034 350.999722 
z
" clip-path="url(#p7d64ee19e3)" style="fill: #aaaaaa; opacity: 0.6; stroke: #aaaaaa; stroke-width: 1.2; stroke-linejoin: miter"/>
   </g>
   <g id="patch_74">
    <path d="M 659.724943 363.8775 
L 665.069716 363.8775 
L 665.069716 346.70713 
L 659.724943 346.70713 
z
" clip-path="url(#p7d64ee19e3)" style="fill: #aaaaaa; opacity: 0.6; stroke: #aaaaaa; stroke-width: 1.2; stroke-linejoin: miter"/>
   </g>
   <g id="patch_75">
    <path d="M 677.540852 363.8775 
L 682.885625 363.8775 
L 682.885625 363.8775 
L 677.540852 363.8775 
z
" clip-path="url(#p7d64ee19e3)" style="fill: #aaaaaa; opacity: 0.6; stroke: #aaaaaa; stroke-width: 1.2; stroke-linejoin: miter"/>
   </g>
   <g id="patch_76">
    <path d="M 695.356761 363.8775 
L 700.701534 363.8775 
L 700.701534 363.8775 
L 695.356761 363.8775 
z
" clip-path="url(#p7d64ee19e3)" style="fill: #aaaaaa; opacity: 0.6; stroke: #aaaaaa; stroke-width: 1.2; stroke-linejoin: miter"/>
   </g>
   <g id="patch_77">
    <path d="M 713.17267 363.8775 
L 718.517443 363.8775 
L 718.517443 363.8775 
L 713.17267 363.8775 
z
" clip-path="url(#p7d64ee19e3)" style="fill: #aaaaaa; opacity: 0.6; stroke: #aaaaaa; stroke-width: 1.2; stroke-linejoin: miter"/>
   </g>
   <g id="patch_78">
    <path d="M 730.98858 363.8775 
L 736.333352 363.8775 
L 736.333352 355.292315 
L 730.98858 355.292315 
z
" clip-path="url(#p7d64ee19e3)" style="fill: #aaaaaa; opacity: 0.6; stroke: #aaaaaa; stroke-width: 1.2; stroke-linejoin: miter"/>
   </g>
   <g id="patch_79">
    <path d="M 748.804489 363.8775 
L 754.149261 363.8775 
L 754.149261 363.8775 
L 748.804489 363.8775 
z
" clip-path="url(#p7d64ee19e3)" style="fill: #aaaaaa; opacity: 0.6; stroke: #aaaaaa; stroke-width: 1.2; stroke-linejoin: miter"/>
   </g>
   <g id="patch_80">
    <path d="M 766.620398 363.8775 
L 771.96517 363.8775 
L 771.96517 363.8775 
L 766.620398 363.8775 
z
" clip-path="url(#p7d64ee19e3)" style="fill: #aaaaaa; opacity: 0.6; stroke: #aaaaaa; stroke-width: 1.2; stroke-linejoin: miter"/>
   </g>
   <g id="patch_81">
    <path d="M 784.436307 363.8775 
L 789.78108 363.8775 
L 789.78108 363.8775 
L 784.436307 363.8775 
z
" clip-path="url(#p7d64ee19e3)" style="fill: #aaaaaa; opacity: 0.6; stroke: #aaaaaa; stroke-width: 1.2; stroke-linejoin: miter"/>
   </g>
   <g id="patch_82">
    <path d="M 802.252216 363.8775 
L 807.596989 363.8775 
L 807.596989 363.8775 
L 802.252216 363.8775 
z
" clip-path="url(#p7d64ee19e3)" style="fill: #aaaaaa; opacity: 0.6; stroke: #aaaaaa; stroke-width: 1.2; stroke-linejoin: miter"/>
   </g>
   <g id="patch_83">
    <path d="M 112.776534 363.8775 
L 118.121307 363.8775 
L 118.121307 363.8775 
L 112.776534 363.8775 
z
" clip-path="url(#p7d64ee19e3)" style="fill: #30a0cf; opacity: 0.6; stroke: #30a0cf; stroke-width: 1.2; stroke-linejoin: miter"/>
   </g>
   <g id="patch_84">
    <path d="M 130.592443 363.8775 
L 135.937216 363.8775 
L 135.937216 363.8775 
L 130.592443 363.8775 
z
" clip-path="url(#p7d64ee19e3)" style="fill: #30a0cf; opacity: 0.6; stroke: #30a0cf; stroke-width: 1.2; stroke-linejoin: miter"/>
   </g>
   <g id="patch_85">
    <path d="M 148.408352 363.8775 
L 153.753125 363.8775 
L 153.753125 363.8775 
L 148.408352 363.8775 
z
" clip-path="url(#p7d64ee19e3)" style="fill: #30a0cf; opacity: 0.6; stroke: #30a0cf; stroke-width: 1.2; stroke-linejoin: miter"/>
   </g>
   <g id="patch_86">
    <path d="M 166.224261 363.8775 
L 171.569034 363.8775 
L 171.569034 363.8775 
L 166.224261 363.8775 
z
" clip-path="url(#p7d64ee19e3)" style="fill: #30a0cf; opacity: 0.6; stroke: #30a0cf; stroke-width: 1.2; stroke-linejoin: miter"/>
   </g>
   <g id="patch_87">
    <path d="M 184.04017 363.8775 
L 189.384943 363.8775 
L 189.384943 363.8775 
L 184.04017 363.8775 
z
" clip-path="url(#p7d64ee19e3)" style="fill: #30a0cf; opacity: 0.6; stroke: #30a0cf; stroke-width: 1.2; stroke-linejoin: miter"/>
   </g>
   <g id="patch_88">
    <path d="M 201.85608 363.8775 
L 207.200852 363.8775 
L 207.200852 363.8775 
L 201.85608 363.8775 
z
" clip-path="url(#p7d64ee19e3)" style="fill: #30a0cf; opacity: 0.6; stroke: #30a0cf; stroke-width: 1.2; stroke-linejoin: miter"/>
   </g>
   <g id="patch_89">
    <path d="M 219.671989 363.8775 
L 225.016761 363.8775 
L 225.016761 363.8775 
L 219.671989 363.8775 
z
" clip-path="url(#p7d64ee19e3)" style="fill: #30a0cf; opacity: 0.6; stroke: #30a0cf; stroke-width: 1.2; stroke-linejoin: miter"/>
   </g>
   <g id="patch_90">
    <path d="M 237.487898 363.8775 
L 242.83267 363.8775 
L 242.83267 363.8775 
L 237.487898 363.8775 
z
" clip-path="url(#p7d64ee19e3)" style="fill: #30a0cf; opacity: 0.6; stroke: #30a0cf; stroke-width: 1.2; stroke-linejoin: miter"/>
   </g>
   <g id="patch_91">
    <path d="M 255.303807 363.8775 
L 260.64858 363.8775 
L 260.64858 363.8775 
L 255.303807 363.8775 
z
" clip-path="url(#p7d64ee19e3)" style="fill: #30a0cf; opacity: 0.6; stroke: #30a0cf; stroke-width: 1.2; stroke-linejoin: miter"/>
   </g>
   <g id="patch_92">
    <path d="M 273.119716 363.8775 
L 278.464489 363.8775 
L 278.464489 363.8775 
L 273.119716 363.8775 
z
" clip-path="url(#p7d64ee19e3)" style="fill: #30a0cf; opacity: 0.6; stroke: #30a0cf; stroke-width: 1.2; stroke-linejoin: miter"/>
   </g>
   <g id="patch_93">
    <path d="M 290.935625 363.8775 
L 296.280398 363.8775 
L 296.280398 363.8775 
L 290.935625 363.8775 
z
" clip-path="url(#p7d64ee19e3)" style="fill: #30a0cf; opacity: 0.6; stroke: #30a0cf; stroke-width: 1.2; stroke-linejoin: miter"/>
   </g>
   <g id="patch_94">
    <path d="M 308.751534 363.8775 
L 314.096307 363.8775 
L 314.096307 363.8775 
L 308.751534 363.8775 
z
" clip-path="url(#p7d64ee19e3)" style="fill: #30a0cf; opacity: 0.6; stroke: #30a0cf; stroke-width: 1.2; stroke-linejoin: miter"/>
   </g>
   <g id="patch_95">
    <path d="M 326.567443 363.8775 
L 331.912216 363.8775 
L 331.912216 363.8775 
L 326.567443 363.8775 
z
" clip-path="url(#p7d64ee19e3)" style="fill: #30a0cf; opacity: 0.6; stroke: #30a0cf; stroke-width: 1.2; stroke-linejoin: miter"/>
   </g>
   <g id="patch_96">
    <path d="M 344.383352 363.8775 
L 349.728125 363.8775 
L 349.728125 363.8775 
L 344.383352 363.8775 
z
" clip-path="url(#p7d64ee19e3)" style="fill: #30a0cf; opacity: 0.6; stroke: #30a0cf; stroke-width: 1.2; stroke-linejoin: miter"/>
   </g>
   <g id="patch_97">
    <path d="M 362.199261 363.8775 
L 367.544034 363.8775 
L 367.544034 363.8775 
L 362.199261 363.8775 
z
" clip-path="url(#p7d64ee19e3)" style="fill: #30a0cf; opacity: 0.6; stroke: #30a0cf; stroke-width: 1.2; stroke-linejoin: miter"/>
   </g>
   <g id="patch_98">
    <path d="M 380.01517 363.8775 
L 385.359943 363.8775 
L 385.359943 363.8775 
L 380.01517 363.8775 
z
" clip-path="url(#p7d64ee19e3)" style="fill: #30a0cf; opacity: 0.6; stroke: #30a0cf; stroke-width: 1.2; stroke-linejoin: miter"/>
   </g>
   <g id="patch_99">
    <path d="M 397.83108 363.8775 
L 403.175852 363.8775 
L 403.175852 363.8775 
L 397.83108 363.8775 
z
" clip-path="url(#p7d64ee19e3)" style="fill: #30a0cf; opacity: 0.6; stroke: #30a0cf; stroke-width: 1.2; stroke-linejoin: miter"/>
   </g>
   <g id="patch_100">
    <path d="M 415.646989 363.8775 
L 420.991761 363.8775 
L 420.991761 363.8775 
L 415.646989 363.8775 
z
" clip-path="url(#p7d64ee19e3)" style="fill: #30a0cf; opacity: 0.6; stroke: #30a0cf; stroke-width: 1.2; stroke-linejoin: miter"/>
   </g>
   <g id="patch_101">
    <path d="M 433.462898 363.8775 
L 438.80767 363.8775 
L 438.80767 363.8775 
L 433.462898 363.8775 
z
" clip-path="url(#p7d64ee19e3)" style="fill: #30a0cf; opacity: 0.6; stroke: #30a0cf; stroke-width: 1.2; stroke-linejoin: miter"/>
   </g>
   <g id="patch_102">
    <path d="M 451.278807 363.8775 
L 456.62358 363.8775 
L 456.62358 363.8775 
L 451.278807 363.8775 
z
" clip-path="url(#p7d64ee19e3)" style="fill: #30a0cf; opacity: 0.6; stroke: #30a0cf; stroke-width: 1.2; stroke-linejoin: miter"/>
   </g>
   <g id="patch_103">
    <path d="M 469.094716 363.8775 
L 474.439489 363.8775 
L 474.439489 363.8775 
L 469.094716 363.8775 
z
" clip-path="url(#p7d64ee19e3)" style="fill: #30a0cf; opacity: 0.6; stroke: #30a0cf; stroke-width: 1.2; stroke-linejoin: miter"/>
   </g>
   <g id="patch_104">
    <path d="M 486.910625 363.8775 
L 492.255398 363.8775 
L 492.255398 359.584907 
L 486.910625 359.584907 
z
" clip-path="url(#p7d64ee19e3)" style="fill: #30a0cf; opacity: 0.6; stroke: #30a0cf; stroke-width: 1.2; stroke-linejoin: miter"/>
   </g>
   <g id="patch_105">
    <path d="M 504.726534 363.8775 
L 510.071307 363.8775 
L 510.071307 355.292315 
L 504.726534 355.292315 
z
" clip-path="url(#p7d64ee19e3)" style="fill: #30a0cf; opacity: 0.6; stroke: #30a0cf; stroke-width: 1.2; stroke-linejoin: miter"/>
   </g>
   <g id="patch_106">
    <path d="M 522.542443 363.8775 
L 527.887216 363.8775 
L 527.887216 355.292315 
L 522.542443 355.292315 
z
" clip-path="url(#p7d64ee19e3)" style="fill: #30a0cf; opacity: 0.6; stroke: #30a0cf; stroke-width: 1.2; stroke-linejoin: miter"/>
   </g>
   <g id="patch_107">
    <path d="M 540.358352 363.8775 
L 545.703125 363.8775 
L 545.703125 346.70713 
L 540.358352 346.70713 
z
" clip-path="url(#p7d64ee19e3)" style="fill: #30a0cf; opacity: 0.6; stroke: #30a0cf; stroke-width: 1.2; stroke-linejoin: miter"/>
   </g>
   <g id="patch_108">
    <path d="M 558.174261 363.8775 
L 563.519034 363.8775 
L 563.519034 346.70713 
L 558.174261 346.70713 
z
" clip-path="url(#p7d64ee19e3)" style="fill: #30a0cf; opacity: 0.6; stroke: #30a0cf; stroke-width: 1.2; stroke-linejoin: miter"/>
   </g>
   <g id="patch_109">
    <path d="M 575.99017 363.8775 
L 581.334943 363.8775 
L 581.334943 329.536759 
L 575.99017 329.536759 
z
" clip-path="url(#p7d64ee19e3)" style="fill: #30a0cf; opacity: 0.6; stroke: #30a0cf; stroke-width: 1.2; stroke-linejoin: miter"/>
   </g>
   <g id="patch_110">
    <path d="M 593.80608 363.8775 
L 599.150852 363.8775 
L 599.150852 333.829352 
L 593.80608 333.829352 
z
" clip-path="url(#p7d64ee19e3)" style="fill: #30a0cf; opacity: 0.6; stroke: #30a0cf; stroke-width: 1.2; stroke-linejoin: miter"/>
   </g>
   <g id="patch_111">
    <path d="M 611.621989 363.8775 
L 616.966761 363.8775 
L 616.966761 299.488611 
L 611.621989 299.488611 
z
" clip-path="url(#p7d64ee19e3)" style="fill: #30a0cf; opacity: 0.6; stroke: #30a0cf; stroke-width: 1.2; stroke-linejoin: miter"/>
   </g>
   <g id="patch_112">
    <path d="M 629.437898 363.8775 
L 634.78267 363.8775 
L 634.78267 290.903426 
L 629.437898 290.903426 
z
" clip-path="url(#p7d64ee19e3)" style="fill: #30a0cf; opacity: 0.6; stroke: #30a0cf; stroke-width: 1.2; stroke-linejoin: miter"/>
   </g>
   <g id="patch_113">
    <path d="M 647.253807 363.8775 
L 652.59858 363.8775 
L 652.59858 278.025648 
L 647.253807 278.025648 
z
" clip-path="url(#p7d64ee19e3)" style="fill: #30a0cf; opacity: 0.6; stroke: #30a0cf; stroke-width: 1.2; stroke-linejoin: miter"/>
   </g>
   <g id="patch_114">
    <path d="M 665.069716 363.8775 
L 670.414489 363.8775 
L 670.414489 252.270093 
L 665.069716 252.270093 
z
" clip-path="url(#p7d64ee19e3)" style="fill: #30a0cf; opacity: 0.6; stroke: #30a0cf; stroke-width: 1.2; stroke-linejoin: miter"/>
   </g>
   <g id="patch_115">
    <path d="M 682.885625 363.8775 
L 688.230398 363.8775 
L 688.230398 235.099722 
L 682.885625 235.099722 
z
" clip-path="url(#p7d64ee19e3)" style="fill: #30a0cf; opacity: 0.6; stroke: #30a0cf; stroke-width: 1.2; stroke-linejoin: miter"/>
   </g>
   <g id="patch_116">
    <path d="M 700.701534 363.8775 
L 706.046307 363.8775 
L 706.046307 239.392315 
L 700.701534 239.392315 
z
" clip-path="url(#p7d64ee19e3)" style="fill: #30a0cf; opacity: 0.6; stroke: #30a0cf; stroke-width: 1.2; stroke-linejoin: miter"/>
   </g>
   <g id="patch_117">
    <path d="M 718.517443 363.8775 
L 723.862216 363.8775 
L 723.862216 166.418241 
L 718.517443 166.418241 
z
" clip-path="url(#p7d64ee19e3)" style="fill: #30a0cf; opacity: 0.6; stroke: #30a0cf; stroke-width: 1.2; stroke-linejoin: miter"/>
   </g>
   <g id="patch_118">
    <path d="M 736.333352 363.8775 
L 741.678125 363.8775 
L 741.678125 106.321944 
L 736.333352 106.321944 
z
" clip-path="url(#p7d64ee19e3)" style="fill: #30a0cf; opacity: 0.6; stroke: #30a0cf; stroke-width: 1.2; stroke-linejoin: miter"/>
   </g>
   <g id="patch_119">
    <path d="M 754.149261 363.8775 
L 759.494034 363.8775 
L 759.494034 89.151574 
L 754.149261 89.151574 
z
" clip-path="url(#p7d64ee19e3)" style="fill: #30a0cf; opacity: 0.6; stroke: #30a0cf; stroke-width: 1.2; stroke-linejoin: miter"/>
   </g>
   <g id="patch_120">
    <path d="M 771.96517 363.8775 
L 777.309943 363.8775 
L 777.309943 80.566389 
L 771.96517 80.566389 
z
" clip-path="url(#p7d64ee19e3)" style="fill: #30a0cf; opacity: 0.6; stroke: #30a0cf; stroke-width: 1.2; stroke-linejoin: miter"/>
   </g>
   <g id="patch_121">
    <path d="M 789.78108 363.8775 
L 795.125852 363.8775 
L 795.125852 54.810833 
L 789.78108 54.810833 
z
" clip-path="url(#p7d64ee19e3)" style="fill: #30a0cf; opacity: 0.6; stroke: #30a0cf; stroke-width: 1.2; stroke-linejoin: miter"/>
   </g>
   <g id="patch_122">
    <path d="M 807.596989 363.8775 
L 812.941761 363.8775 
L 812.941761 247.9775 
L 807.596989 247.9775 
z
" clip-path="url(#p7d64ee19e3)" style="fill: #30a0cf; opacity: 0.6; stroke: #30a0cf; stroke-width: 1.2; stroke-linejoin: miter"/>
   </g>
   <g id="matplotlib.axis_1">
    <g id="xtick_1">
     <g id="line2d_1">
      <path d="M 178.697761 363.8775 
L 178.697761 39.3575 
" clip-path="url(#p7d64ee19e3)" style="fill: none; stroke-dasharray: 2.96,1.28; stroke-dashoffset: 0; stroke: #ffffff; stroke-opacity: 0.3; stroke-width: 0.8"/>
     </g>
     <g id="line2d_2">
      <defs>
       <path id="me4b922bc2b" d="M 0 0 
L 0 3.5 
" style="stroke: #ffffff; stroke-width: 0.8"/>
      </defs>
      <g>
       <use xlink:href="#me4b922bc2b" x="178.697761" y="363.8775" style="fill: #ffffff; stroke: #ffffff; stroke-width: 0.8"/>
      </g>
     </g>
     <g id="text_1">
      <!-- 20 -->
      <g style="fill: #ffffff" transform="translate(169.790261 381.515312) scale(0.14 -0.14)">
       <defs>
        <path id="DejaVuSans-32" d="M 1228 531 
L 3431 531 
L 3431 0 
L 469 0 
L 469 531 
Q 828 903 1448 1529 
Q 2069 2156 2228 2338 
Q 2531 2678 2651 2914 
Q 2772 3150 2772 3378 
Q 2772 3750 2511 3984 
Q 2250 4219 1831 4219 
Q 1534 4219 1204 4116 
Q 875 4013 500 3803 
L 500 4441 
Q 881 4594 1212 4672 
Q 1544 4750 1819 4750 
Q 2544 4750 2975 4387 
Q 3406 4025 3406 3419 
Q 3406 3131 3298 2873 
Q 3191 2616 2906 2266 
Q 2828 2175 2409 1742 
Q 1991 1309 1228 531 
z
" transform="scale(0.015625)"/>
        <path id="DejaVuSans-30" d="M 2034 4250 
Q 1547 4250 1301 3770 
Q 1056 3291 1056 2328 
Q 1056 1369 1301 889 
Q 1547 409 2034 409 
Q 2525 409 2770 889 
Q 3016 1369 3016 2328 
Q 3016 3291 2770 3770 
Q 2525 4250 2034 4250 
z
M 2034 4750 
Q 2819 4750 3233 4129 
Q 3647 3509 3647 2328 
Q 3647 1150 3233 529 
Q 2819 -91 2034 -91 
Q 1250 -91 836 529 
Q 422 1150 422 2328 
Q 422 3509 836 4129 
Q 1250 4750 2034 4750 
z
" transform="scale(0.015625)"/>
       </defs>
       <use xlink:href="#DejaVuSans-32"/>
       <use xlink:href="#DejaVuSans-30" transform="translate(63.623047 0)"/>
      </g>
     </g>
    </g>
    <g id="xtick_2">
     <g id="line2d_3">
      <path d="M 337.48146 363.8775 
L 337.48146 39.3575 
" clip-path="url(#p7d64ee19e3)" style="fill: none; stroke-dasharray: 2.96,1.28; stroke-dashoffset: 0; stroke: #ffffff; stroke-opacity: 0.3; stroke-width: 0.8"/>
     </g>
     <g id="line2d_4">
      <g>
       <use xlink:href="#me4b922bc2b" x="337.48146" y="363.8775" style="fill: #ffffff; stroke: #ffffff; stroke-width: 0.8"/>
      </g>
     </g>
     <g id="text_2">
      <!-- 40 -->
      <g style="fill: #ffffff" transform="translate(328.57396 381.515312) scale(0.14 -0.14)">
       <defs>
        <path id="DejaVuSans-34" d="M 2419 4116 
L 825 1625 
L 2419 1625 
L 2419 4116 
z
M 2253 4666 
L 3047 4666 
L 3047 1625 
L 3713 1625 
L 3713 1100 
L 3047 1100 
L 3047 0 
L 2419 0 
L 2419 1100 
L 313 1100 
L 313 1709 
L 2253 4666 
z
" transform="scale(0.015625)"/>
       </defs>
       <use xlink:href="#DejaVuSans-34"/>
       <use xlink:href="#DejaVuSans-30" transform="translate(63.623047 0)"/>
      </g>
     </g>
    </g>
    <g id="xtick_3">
     <g id="line2d_5">
      <path d="M 496.265159 363.8775 
L 496.265159 39.3575 
" clip-path="url(#p7d64ee19e3)" style="fill: none; stroke-dasharray: 2.96,1.28; stroke-dashoffset: 0; stroke: #ffffff; stroke-opacity: 0.3; stroke-width: 0.8"/>
     </g>
     <g id="line2d_6">
      <g>
       <use xlink:href="#me4b922bc2b" x="496.265159" y="363.8775" style="fill: #ffffff; stroke: #ffffff; stroke-width: 0.8"/>
      </g>
     </g>
     <g id="text_3">
      <!-- 60 -->
      <g style="fill: #ffffff" transform="translate(487.357659 381.515312) scale(0.14 -0.14)">
       <defs>
        <path id="DejaVuSans-36" d="M 2113 2584 
Q 1688 2584 1439 2293 
Q 1191 2003 1191 1497 
Q 1191 994 1439 701 
Q 1688 409 2113 409 
Q 2538 409 2786 701 
Q 3034 994 3034 1497 
Q 3034 2003 2786 2293 
Q 2538 2584 2113 2584 
z
M 3366 4563 
L 3366 3988 
Q 3128 4100 2886 4159 
Q 2644 4219 2406 4219 
Q 1781 4219 1451 3797 
Q 1122 3375 1075 2522 
Q 1259 2794 1537 2939 
Q 1816 3084 2150 3084 
Q 2853 3084 3261 2657 
Q 3669 2231 3669 1497 
Q 3669 778 3244 343 
Q 2819 -91 2113 -91 
Q 1303 -91 875 529 
Q 447 1150 447 2328 
Q 447 3434 972 4092 
Q 1497 4750 2381 4750 
Q 2619 4750 2861 4703 
Q 3103 4656 3366 4563 
z
" transform="scale(0.015625)"/>
       </defs>
       <use xlink:href="#DejaVuSans-36"/>
       <use xlink:href="#DejaVuSans-30" transform="translate(63.623047 0)"/>
      </g>
     </g>
    </g>
    <g id="xtick_4">
     <g id="line2d_7">
      <path d="M 655.048858 363.8775 
L 655.048858 39.3575 
" clip-path="url(#p7d64ee19e3)" style="fill: none; stroke-dasharray: 2.96,1.28; stroke-dashoffset: 0; stroke: #ffffff; stroke-opacity: 0.3; stroke-width: 0.8"/>
     </g>
     <g id="line2d_8">
      <g>
       <use xlink:href="#me4b922bc2b" x="655.048858" y="363.8775" style="fill: #ffffff; stroke: #ffffff; stroke-width: 0.8"/>
      </g>
     </g>
     <g id="text_4">
      <!-- 80 -->
      <g style="fill: #ffffff" transform="translate(646.141358 381.515312) scale(0.14 -0.14)">
       <defs>
        <path id="DejaVuSans-38" d="M 2034 2216 
Q 1584 2216 1326 1975 
Q 1069 1734 1069 1313 
Q 1069 891 1326 650 
Q 1584 409 2034 409 
Q 2484 409 2743 651 
Q 3003 894 3003 1313 
Q 3003 1734 2745 1975 
Q 2488 2216 2034 2216 
z
M 1403 2484 
Q 997 2584 770 2862 
Q 544 3141 544 3541 
Q 544 4100 942 4425 
Q 1341 4750 2034 4750 
Q 2731 4750 3128 4425 
Q 3525 4100 3525 3541 
Q 3525 3141 3298 2862 
Q 3072 2584 2669 2484 
Q 3125 2378 3379 2068 
Q 3634 1759 3634 1313 
Q 3634 634 3220 271 
Q 2806 -91 2034 -91 
Q 1263 -91 848 271 
Q 434 634 434 1313 
Q 434 1759 690 2068 
Q 947 2378 1403 2484 
z
M 1172 3481 
Q 1172 3119 1398 2916 
Q 1625 2713 2034 2713 
Q 2441 2713 2670 2916 
Q 2900 3119 2900 3481 
Q 2900 3844 2670 4047 
Q 2441 4250 2034 4250 
Q 1625 4250 1398 4047 
Q 1172 3844 1172 3481 
z
" transform="scale(0.015625)"/>
       </defs>
       <use xlink:href="#DejaVuSans-38"/>
       <use xlink:href="#DejaVuSans-30" transform="translate(63.623047 0)"/>
      </g>
     </g>
    </g>
    <g id="xtick_5">
     <g id="line2d_9">
      <path d="M 813.832557 363.8775 
L 813.832557 39.3575 
" clip-path="url(#p7d64ee19e3)" style="fill: none; stroke-dasharray: 2.96,1.28; stroke-dashoffset: 0; stroke: #ffffff; stroke-opacity: 0.3; stroke-width: 0.8"/>
     </g>
     <g id="line2d_10">
      <g>
       <use xlink:href="#me4b922bc2b" x="813.832557" y="363.8775" style="fill: #ffffff; stroke: #ffffff; stroke-width: 0.8"/>
      </g>
     </g>
     <g id="text_5">
      <!-- 100 -->
      <g style="fill: #ffffff" transform="translate(800.471307 381.515312) scale(0.14 -0.14)">
       <defs>
        <path id="DejaVuSans-31" d="M 794 531 
L 1825 531 
L 1825 4091 
L 703 3866 
L 703 4441 
L 1819 4666 
L 2450 4666 
L 2450 531 
L 3481 531 
L 3481 0 
L 794 0 
L 794 531 
z
" transform="scale(0.015625)"/>
       </defs>
       <use xlink:href="#DejaVuSans-31"/>
       <use xlink:href="#DejaVuSans-30" transform="translate(63.623047 0)"/>
       <use xlink:href="#DejaVuSans-30" transform="translate(127.246094 0)"/>
      </g>
     </g>
    </g>
    <g id="text_6">
     <!-- Cumulative Damage [%] -->
     <g style="fill: #ffffff" transform="translate(371.460312 415.064687) scale(0.14 -0.14)">
      <defs>
       <path id="DejaVuSans-43" d="M 4122 4306 
L 4122 3641 
Q 3803 3938 3442 4084 
Q 3081 4231 2675 4231 
Q 1875 4231 1450 3742 
Q 1025 3253 1025 2328 
Q 1025 1406 1450 917 
Q 1875 428 2675 428 
Q 3081 428 3442 575 
Q 3803 722 4122 1019 
L 4122 359 
Q 3791 134 3420 21 
Q 3050 -91 2638 -91 
Q 1578 -91 968 557 
Q 359 1206 359 2328 
Q 359 3453 968 4101 
Q 1578 4750 2638 4750 
Q 3056 4750 3426 4639 
Q 3797 4528 4122 4306 
z
" transform="scale(0.015625)"/>
       <path id="DejaVuSans-75" d="M 544 1381 
L 544 3500 
L 1119 3500 
L 1119 1403 
Q 1119 906 1312 657 
Q 1506 409 1894 409 
Q 2359 409 2629 706 
Q 2900 1003 2900 1516 
L 2900 3500 
L 3475 3500 
L 3475 0 
L 2900 0 
L 2900 538 
Q 2691 219 2414 64 
Q 2138 -91 1772 -91 
Q 1169 -91 856 284 
Q 544 659 544 1381 
z
M 1991 3584 
L 1991 3584 
z
" transform="scale(0.015625)"/>
       <path id="DejaVuSans-6d" d="M 3328 2828 
Q 3544 3216 3844 3400 
Q 4144 3584 4550 3584 
Q 5097 3584 5394 3201 
Q 5691 2819 5691 2113 
L 5691 0 
L 5113 0 
L 5113 2094 
Q 5113 2597 4934 2840 
Q 4756 3084 4391 3084 
Q 3944 3084 3684 2787 
Q 3425 2491 3425 1978 
L 3425 0 
L 2847 0 
L 2847 2094 
Q 2847 2600 2669 2842 
Q 2491 3084 2119 3084 
Q 1678 3084 1418 2786 
Q 1159 2488 1159 1978 
L 1159 0 
L 581 0 
L 581 3500 
L 1159 3500 
L 1159 2956 
Q 1356 3278 1631 3431 
Q 1906 3584 2284 3584 
Q 2666 3584 2933 3390 
Q 3200 3197 3328 2828 
z
" transform="scale(0.015625)"/>
       <path id="DejaVuSans-6c" d="M 603 4863 
L 1178 4863 
L 1178 0 
L 603 0 
L 603 4863 
z
" transform="scale(0.015625)"/>
       <path id="DejaVuSans-61" d="M 2194 1759 
Q 1497 1759 1228 1600 
Q 959 1441 959 1056 
Q 959 750 1161 570 
Q 1363 391 1709 391 
Q 2188 391 2477 730 
Q 2766 1069 2766 1631 
L 2766 1759 
L 2194 1759 
z
M 3341 1997 
L 3341 0 
L 2766 0 
L 2766 531 
Q 2569 213 2275 61 
Q 1981 -91 1556 -91 
Q 1019 -91 701 211 
Q 384 513 384 1019 
Q 384 1609 779 1909 
Q 1175 2209 1959 2209 
L 2766 2209 
L 2766 2266 
Q 2766 2663 2505 2880 
Q 2244 3097 1772 3097 
Q 1472 3097 1187 3025 
Q 903 2953 641 2809 
L 641 3341 
Q 956 3463 1253 3523 
Q 1550 3584 1831 3584 
Q 2591 3584 2966 3190 
Q 3341 2797 3341 1997 
z
" transform="scale(0.015625)"/>
       <path id="DejaVuSans-74" d="M 1172 4494 
L 1172 3500 
L 2356 3500 
L 2356 3053 
L 1172 3053 
L 1172 1153 
Q 1172 725 1289 603 
Q 1406 481 1766 481 
L 2356 481 
L 2356 0 
L 1766 0 
Q 1100 0 847 248 
Q 594 497 594 1153 
L 594 3053 
L 172 3053 
L 172 3500 
L 594 3500 
L 594 4494 
L 1172 4494 
z
" transform="scale(0.015625)"/>
       <path id="DejaVuSans-69" d="M 603 3500 
L 1178 3500 
L 1178 0 
L 603 0 
L 603 3500 
z
M 603 4863 
L 1178 4863 
L 1178 4134 
L 603 4134 
L 603 4863 
z
" transform="scale(0.015625)"/>
       <path id="DejaVuSans-76" d="M 191 3500 
L 800 3500 
L 1894 563 
L 2988 3500 
L 3597 3500 
L 2284 0 
L 1503 0 
L 191 3500 
z
" transform="scale(0.015625)"/>
       <path id="DejaVuSans-65" d="M 3597 1894 
L 3597 1613 
L 953 1613 
Q 991 1019 1311 708 
Q 1631 397 2203 397 
Q 2534 397 2845 478 
Q 3156 559 3463 722 
L 3463 178 
Q 3153 47 2828 -22 
Q 2503 -91 2169 -91 
Q 1331 -91 842 396 
Q 353 884 353 1716 
Q 353 2575 817 3079 
Q 1281 3584 2069 3584 
Q 2775 3584 3186 3129 
Q 3597 2675 3597 1894 
z
M 3022 2063 
Q 3016 2534 2758 2815 
Q 2500 3097 2075 3097 
Q 1594 3097 1305 2825 
Q 1016 2553 972 2059 
L 3022 2063 
z
" transform="scale(0.015625)"/>
       <path id="DejaVuSans-20" transform="scale(0.015625)"/>
       <path id="DejaVuSans-44" d="M 1259 4147 
L 1259 519 
L 2022 519 
Q 2988 519 3436 956 
Q 3884 1394 3884 2338 
Q 3884 3275 3436 3711 
Q 2988 4147 2022 4147 
L 1259 4147 
z
M 628 4666 
L 1925 4666 
Q 3281 4666 3915 4102 
Q 4550 3538 4550 2338 
Q 4550 1131 3912 565 
Q 3275 0 1925 0 
L 628 0 
L 628 4666 
z
" transform="scale(0.015625)"/>
       <path id="DejaVuSans-67" d="M 2906 1791 
Q 2906 2416 2648 2759 
Q 2391 3103 1925 3103 
Q 1463 3103 1205 2759 
Q 947 2416 947 1791 
Q 947 1169 1205 825 
Q 1463 481 1925 481 
Q 2391 481 2648 825 
Q 2906 1169 2906 1791 
z
M 3481 434 
Q 3481 -459 3084 -895 
Q 2688 -1331 1869 -1331 
Q 1566 -1331 1297 -1286 
Q 1028 -1241 775 -1147 
L 775 -588 
Q 1028 -725 1275 -790 
Q 1522 -856 1778 -856 
Q 2344 -856 2625 -561 
Q 2906 -266 2906 331 
L 2906 616 
Q 2728 306 2450 153 
Q 2172 0 1784 0 
Q 1141 0 747 490 
Q 353 981 353 1791 
Q 353 2603 747 3093 
Q 1141 3584 1784 3584 
Q 2172 3584 2450 3431 
Q 2728 3278 2906 2969 
L 2906 3500 
L 3481 3500 
L 3481 434 
z
" transform="scale(0.015625)"/>
       <path id="DejaVuSans-5b" d="M 550 4863 
L 1875 4863 
L 1875 4416 
L 1125 4416 
L 1125 -397 
L 1875 -397 
L 1875 -844 
L 550 -844 
L 550 4863 
z
" transform="scale(0.015625)"/>
       <path id="DejaVuSans-25" d="M 4653 2053 
Q 4381 2053 4226 1822 
Q 4072 1591 4072 1178 
Q 4072 772 4226 539 
Q 4381 306 4653 306 
Q 4919 306 5073 539 
Q 5228 772 5228 1178 
Q 5228 1588 5073 1820 
Q 4919 2053 4653 2053 
z
M 4653 2450 
Q 5147 2450 5437 2106 
Q 5728 1763 5728 1178 
Q 5728 594 5436 251 
Q 5144 -91 4653 -91 
Q 4153 -91 3862 251 
Q 3572 594 3572 1178 
Q 3572 1766 3864 2108 
Q 4156 2450 4653 2450 
z
M 1428 4353 
Q 1159 4353 1004 4120 
Q 850 3888 850 3481 
Q 850 3069 1003 2837 
Q 1156 2606 1428 2606 
Q 1700 2606 1854 2837 
Q 2009 3069 2009 3481 
Q 2009 3884 1853 4118 
Q 1697 4353 1428 4353 
z
M 4250 4750 
L 4750 4750 
L 1831 -91 
L 1331 -91 
L 4250 4750 
z
M 1428 4750 
Q 1922 4750 2215 4408 
Q 2509 4066 2509 3481 
Q 2509 2891 2217 2550 
Q 1925 2209 1428 2209 
Q 931 2209 642 2551 
Q 353 2894 353 3481 
Q 353 4063 643 4406 
Q 934 4750 1428 4750 
z
" transform="scale(0.015625)"/>
       <path id="DejaVuSans-5d" d="M 1947 4863 
L 1947 -844 
L 622 -844 
L 622 -397 
L 1369 -397 
L 1369 4416 
L 622 4416 
L 622 4863 
L 1947 4863 
z
" transform="scale(0.015625)"/>
      </defs>
      <use xlink:href="#DejaVuSans-43"/>
      <use xlink:href="#DejaVuSans-75" transform="translate(69.824219 0)"/>
      <use xlink:href="#DejaVuSans-6d" transform="translate(133.203125 0)"/>
      <use xlink:href="#DejaVuSans-75" transform="translate(230.615234 0)"/>
      <use xlink:href="#DejaVuSans-6c" transform="translate(293.994141 0)"/>
      <use xlink:href="#DejaVuSans-61" transform="translate(321.777344 0)"/>
      <use xlink:href="#DejaVuSans-74" transform="translate(383.056641 0)"/>
      <use xlink:href="#DejaVuSans-69" transform="translate(422.265625 0)"/>
      <use xlink:href="#DejaVuSans-76" transform="translate(450.048828 0)"/>
      <use xlink:href="#DejaVuSans-65" transform="translate(509.228516 0)"/>
      <use xlink:href="#DejaVuSans-20" transform="translate(570.751953 0)"/>
      <use xlink:href="#DejaVuSans-44" transform="translate(602.539062 0)"/>
      <use xlink:href="#DejaVuSans-61" transform="translate(679.541016 0)"/>
      <use xlink:href="#DejaVuSans-6d" transform="translate(740.820312 0)"/>
      <use xlink:href="#DejaVuSans-61" transform="translate(838.232422 0)"/>
      <use xlink:href="#DejaVuSans-67" transform="translate(899.511719 0)"/>
      <use xlink:href="#DejaVuSans-65" transform="translate(962.988281 0)"/>
      <use xlink:href="#DejaVuSans-20" transform="translate(1024.511719 0)"/>
      <use xlink:href="#DejaVuSans-5b" transform="translate(1056.298828 0)"/>
      <use xlink:href="#DejaVuSans-25" transform="translate(1095.3125 0)"/>
      <use xlink:href="#DejaVuSans-5d" transform="translate(1190.332031 0)"/>
     </g>
    </g>
   </g>
   <g id="matplotlib.axis_2">
    <g id="ytick_1">
     <g id="line2d_11">
      <path d="M 65.564375 363.8775 
L 849.464375 363.8775 
" clip-path="url(#p7d64ee19e3)" style="fill: none; stroke-dasharray: 2.96,1.28; stroke-dashoffset: 0; stroke: #ffffff; stroke-opacity: 0.3; stroke-width: 0.8"/>
     </g>
     <g id="line2d_12">
      <defs>
       <path id="m17efba012c" d="M 0 0 
L -3.5 0 
" style="stroke: #ffffff; stroke-width: 0.8"/>
      </defs>
      <g>
       <use xlink:href="#m17efba012c" x="65.564375" y="363.8775" style="fill: #ffffff; stroke: #ffffff; stroke-width: 0.8"/>
      </g>
     </g>
     <g id="text_7">
      <!-- 0 -->
      <g style="fill: #ffffff" transform="translate(49.656875 369.196406) scale(0.14 -0.14)">
       <use xlink:href="#DejaVuSans-30"/>
      </g>
     </g>
    </g>
    <g id="ytick_2">
     <g id="line2d_13">
      <path d="M 65.564375 320.951574 
L 849.464375 320.951574 
" clip-path="url(#p7d64ee19e3)" style="fill: none; stroke-dasharray: 2.96,1.28; stroke-dashoffset: 0; stroke: #ffffff; stroke-opacity: 0.3; stroke-width: 0.8"/>
     </g>
     <g id="line2d_14">
      <g>
       <use xlink:href="#m17efba012c" x="65.564375" y="320.951574" style="fill: #ffffff; stroke: #ffffff; stroke-width: 0.8"/>
      </g>
     </g>
     <g id="text_8">
      <!-- 10 -->
      <g style="fill: #ffffff" transform="translate(40.749375 326.27048) scale(0.14 -0.14)">
       <use xlink:href="#DejaVuSans-31"/>
       <use xlink:href="#DejaVuSans-30" transform="translate(63.623047 0)"/>
      </g>
     </g>
    </g>
    <g id="ytick_3">
     <g id="line2d_15">
      <path d="M 65.564375 278.025648 
L 849.464375 278.025648 
" clip-path="url(#p7d64ee19e3)" style="fill: none; stroke-dasharray: 2.96,1.28; stroke-dashoffset: 0; stroke: #ffffff; stroke-opacity: 0.3; stroke-width: 0.8"/>
     </g>
     <g id="line2d_16">
      <g>
       <use xlink:href="#m17efba012c" x="65.564375" y="278.025648" style="fill: #ffffff; stroke: #ffffff; stroke-width: 0.8"/>
      </g>
     </g>
     <g id="text_9">
      <!-- 20 -->
      <g style="fill: #ffffff" transform="translate(40.749375 283.344554) scale(0.14 -0.14)">
       <use xlink:href="#DejaVuSans-32"/>
       <use xlink:href="#DejaVuSans-30" transform="translate(63.623047 0)"/>
      </g>
     </g>
    </g>
    <g id="ytick_4">
     <g id="line2d_17">
      <path d="M 65.564375 235.099722 
L 849.464375 235.099722 
" clip-path="url(#p7d64ee19e3)" style="fill: none; stroke-dasharray: 2.96,1.28; stroke-dashoffset: 0; stroke: #ffffff; stroke-opacity: 0.3; stroke-width: 0.8"/>
     </g>
     <g id="line2d_18">
      <g>
       <use xlink:href="#m17efba012c" x="65.564375" y="235.099722" style="fill: #ffffff; stroke: #ffffff; stroke-width: 0.8"/>
      </g>
     </g>
     <g id="text_10">
      <!-- 30 -->
      <g style="fill: #ffffff" transform="translate(40.749375 240.418628) scale(0.14 -0.14)">
       <defs>
        <path id="DejaVuSans-33" d="M 2597 2516 
Q 3050 2419 3304 2112 
Q 3559 1806 3559 1356 
Q 3559 666 3084 287 
Q 2609 -91 1734 -91 
Q 1441 -91 1130 -33 
Q 819 25 488 141 
L 488 750 
Q 750 597 1062 519 
Q 1375 441 1716 441 
Q 2309 441 2620 675 
Q 2931 909 2931 1356 
Q 2931 1769 2642 2001 
Q 2353 2234 1838 2234 
L 1294 2234 
L 1294 2753 
L 1863 2753 
Q 2328 2753 2575 2939 
Q 2822 3125 2822 3475 
Q 2822 3834 2567 4026 
Q 2313 4219 1838 4219 
Q 1578 4219 1281 4162 
Q 984 4106 628 3988 
L 628 4550 
Q 988 4650 1302 4700 
Q 1616 4750 1894 4750 
Q 2613 4750 3031 4423 
Q 3450 4097 3450 3541 
Q 3450 3153 3228 2886 
Q 3006 2619 2597 2516 
z
" transform="scale(0.015625)"/>
       </defs>
       <use xlink:href="#DejaVuSans-33"/>
       <use xlink:href="#DejaVuSans-30" transform="translate(63.623047 0)"/>
      </g>
     </g>
    </g>
    <g id="ytick_5">
     <g id="line2d_19">
      <path d="M 65.564375 192.173796 
L 849.464375 192.173796 
" clip-path="url(#p7d64ee19e3)" style="fill: none; stroke-dasharray: 2.96,1.28; stroke-dashoffset: 0; stroke: #ffffff; stroke-opacity: 0.3; stroke-width: 0.8"/>
     </g>
     <g id="line2d_20">
      <g>
       <use xlink:href="#m17efba012c" x="65.564375" y="192.173796" style="fill: #ffffff; stroke: #ffffff; stroke-width: 0.8"/>
      </g>
     </g>
     <g id="text_11">
      <!-- 40 -->
      <g style="fill: #ffffff" transform="translate(40.749375 197.492703) scale(0.14 -0.14)">
       <use xlink:href="#DejaVuSans-34"/>
       <use xlink:href="#DejaVuSans-30" transform="translate(63.623047 0)"/>
      </g>
     </g>
    </g>
    <g id="ytick_6">
     <g id="line2d_21">
      <path d="M 65.564375 149.24787 
L 849.464375 149.24787 
" clip-path="url(#p7d64ee19e3)" style="fill: none; stroke-dasharray: 2.96,1.28; stroke-dashoffset: 0; stroke: #ffffff; stroke-opacity: 0.3; stroke-width: 0.8"/>
     </g>
     <g id="line2d_22">
      <g>
       <use xlink:href="#m17efba012c" x="65.564375" y="149.24787" style="fill: #ffffff; stroke: #ffffff; stroke-width: 0.8"/>
      </g>
     </g>
     <g id="text_12">
      <!-- 50 -->
      <g style="fill: #ffffff" transform="translate(40.749375 154.566777) scale(0.14 -0.14)">
       <defs>
        <path id="DejaVuSans-35" d="M 691 4666 
L 3169 4666 
L 3169 4134 
L 1269 4134 
L 1269 2991 
Q 1406 3038 1543 3061 
Q 1681 3084 1819 3084 
Q 2600 3084 3056 2656 
Q 3513 2228 3513 1497 
Q 3513 744 3044 326 
Q 2575 -91 1722 -91 
Q 1428 -91 1123 -41 
Q 819 9 494 109 
L 494 744 
Q 775 591 1075 516 
Q 1375 441 1709 441 
Q 2250 441 2565 725 
Q 2881 1009 2881 1497 
Q 2881 1984 2565 2268 
Q 2250 2553 1709 2553 
Q 1456 2553 1204 2497 
Q 953 2441 691 2322 
L 691 4666 
z
" transform="scale(0.015625)"/>
       </defs>
       <use xlink:href="#DejaVuSans-35"/>
       <use xlink:href="#DejaVuSans-30" transform="translate(63.623047 0)"/>
      </g>
     </g>
    </g>
    <g id="ytick_7">
     <g id="line2d_23">
      <path d="M 65.564375 106.321944 
L 849.464375 106.321944 
" clip-path="url(#p7d64ee19e3)" style="fill: none; stroke-dasharray: 2.96,1.28; stroke-dashoffset: 0; stroke: #ffffff; stroke-opacity: 0.3; stroke-width: 0.8"/>
     </g>
     <g id="line2d_24">
      <g>
       <use xlink:href="#m17efba012c" x="65.564375" y="106.321944" style="fill: #ffffff; stroke: #ffffff; stroke-width: 0.8"/>
      </g>
     </g>
     <g id="text_13">
      <!-- 60 -->
      <g style="fill: #ffffff" transform="translate(40.749375 111.640851) scale(0.14 -0.14)">
       <use xlink:href="#DejaVuSans-36"/>
       <use xlink:href="#DejaVuSans-30" transform="translate(63.623047 0)"/>
      </g>
     </g>
    </g>
    <g id="ytick_8">
     <g id="line2d_25">
      <path d="M 65.564375 63.396019 
L 849.464375 63.396019 
" clip-path="url(#p7d64ee19e3)" style="fill: none; stroke-dasharray: 2.96,1.28; stroke-dashoffset: 0; stroke: #ffffff; stroke-opacity: 0.3; stroke-width: 0.8"/>
     </g>
     <g id="line2d_26">
      <g>
       <use xlink:href="#m17efba012c" x="65.564375" y="63.396019" style="fill: #ffffff; stroke: #ffffff; stroke-width: 0.8"/>
      </g>
     </g>
     <g id="text_14">
      <!-- 70 -->
      <g style="fill: #ffffff" transform="translate(40.749375 68.714925) scale(0.14 -0.14)">
       <defs>
        <path id="DejaVuSans-37" d="M 525 4666 
L 3525 4666 
L 3525 4397 
L 1831 0 
L 1172 0 
L 2766 4134 
L 525 4134 
L 525 4666 
z
" transform="scale(0.015625)"/>
       </defs>
       <use xlink:href="#DejaVuSans-37"/>
       <use xlink:href="#DejaVuSans-30" transform="translate(63.623047 0)"/>
      </g>
     </g>
    </g>
    <g id="text_15">
     <!-- Frequency [] -->
     <g style="fill: #ffffff" transform="translate(17.837812 245.465937) rotate(-90) scale(0.14 -0.14)">
      <defs>
       <path id="DejaVuSans-46" d="M 628 4666 
L 3309 4666 
L 3309 4134 
L 1259 4134 
L 1259 2759 
L 3109 2759 
L 3109 2228 
L 1259 2228 
L 1259 0 
L 628 0 
L 628 4666 
z
" transform="scale(0.015625)"/>
       <path id="DejaVuSans-72" d="M 2631 2963 
Q 2534 3019 2420 3045 
Q 2306 3072 2169 3072 
Q 1681 3072 1420 2755 
Q 1159 2438 1159 1844 
L 1159 0 
L 581 0 
L 581 3500 
L 1159 3500 
L 1159 2956 
Q 1341 3275 1631 3429 
Q 1922 3584 2338 3584 
Q 2397 3584 2469 3576 
Q 2541 3569 2628 3553 
L 2631 2963 
z
" transform="scale(0.015625)"/>
       <path id="DejaVuSans-71" d="M 947 1747 
Q 947 1113 1208 752 
Q 1469 391 1925 391 
Q 2381 391 2643 752 
Q 2906 1113 2906 1747 
Q 2906 2381 2643 2742 
Q 2381 3103 1925 3103 
Q 1469 3103 1208 2742 
Q 947 2381 947 1747 
z
M 2906 525 
Q 2725 213 2448 61 
Q 2172 -91 1784 -91 
Q 1150 -91 751 415 
Q 353 922 353 1747 
Q 353 2572 751 3078 
Q 1150 3584 1784 3584 
Q 2172 3584 2448 3432 
Q 2725 3281 2906 2969 
L 2906 3500 
L 3481 3500 
L 3481 -1331 
L 2906 -1331 
L 2906 525 
z
" transform="scale(0.015625)"/>
       <path id="DejaVuSans-6e" d="M 3513 2113 
L 3513 0 
L 2938 0 
L 2938 2094 
Q 2938 2591 2744 2837 
Q 2550 3084 2163 3084 
Q 1697 3084 1428 2787 
Q 1159 2491 1159 1978 
L 1159 0 
L 581 0 
L 581 3500 
L 1159 3500 
L 1159 2956 
Q 1366 3272 1645 3428 
Q 1925 3584 2291 3584 
Q 2894 3584 3203 3211 
Q 3513 2838 3513 2113 
z
" transform="scale(0.015625)"/>
       <path id="DejaVuSans-63" d="M 3122 3366 
L 3122 2828 
Q 2878 2963 2633 3030 
Q 2388 3097 2138 3097 
Q 1578 3097 1268 2742 
Q 959 2388 959 1747 
Q 959 1106 1268 751 
Q 1578 397 2138 397 
Q 2388 397 2633 464 
Q 2878 531 3122 666 
L 3122 134 
Q 2881 22 2623 -34 
Q 2366 -91 2075 -91 
Q 1284 -91 818 406 
Q 353 903 353 1747 
Q 353 2603 823 3093 
Q 1294 3584 2113 3584 
Q 2378 3584 2631 3529 
Q 2884 3475 3122 3366 
z
" transform="scale(0.015625)"/>
       <path id="DejaVuSans-79" d="M 2059 -325 
Q 1816 -950 1584 -1140 
Q 1353 -1331 966 -1331 
L 506 -1331 
L 506 -850 
L 844 -850 
Q 1081 -850 1212 -737 
Q 1344 -625 1503 -206 
L 1606 56 
L 191 3500 
L 800 3500 
L 1894 763 
L 2988 3500 
L 3597 3500 
L 2059 -325 
z
" transform="scale(0.015625)"/>
      </defs>
      <use xlink:href="#DejaVuSans-46"/>
      <use xlink:href="#DejaVuSans-72" transform="translate(50.269531 0)"/>
      <use xlink:href="#DejaVuSans-65" transform="translate(89.132812 0)"/>
      <use xlink:href="#DejaVuSans-71" transform="translate(150.65625 0)"/>
      <use xlink:href="#DejaVuSans-75" transform="translate(214.132812 0)"/>
      <use xlink:href="#DejaVuSans-65" transform="translate(277.511719 0)"/>
      <use xlink:href="#DejaVuSans-6e" transform="translate(339.035156 0)"/>
      <use xlink:href="#DejaVuSans-63" transform="translate(402.414062 0)"/>
      <use xlink:href="#DejaVuSans-79" transform="translate(457.394531 0)"/>
      <use xlink:href="#DejaVuSans-20" transform="translate(516.574219 0)"/>
      <use xlink:href="#DejaVuSans-5b" transform="translate(548.361328 0)"/>
      <use xlink:href="#DejaVuSans-5d" transform="translate(587.375 0)"/>
     </g>
    </g>
   </g>
   <g id="line2d_27">
    <path d="M 101.196193 355.741691 
L 109.04304 354.115903 
L 116.176537 352.416347 
L 123.310034 350.486238 
L 130.443531 348.307074 
L 136.863679 346.118278 
L 143.283826 343.701511 
L 149.703974 341.046065 
L 156.124121 338.142803 
L 162.544269 334.984516 
L 168.964416 331.566292 
L 175.384563 327.885873 
L 181.804711 323.944013 
L 188.224858 319.744802 
L 194.645006 315.29597 
L 201.778503 310.074325 
L 208.912 304.580817 
L 216.758847 298.257956 
L 225.319043 291.079635 
L 236.019289 281.805668 
L 268.120026 253.754379 
L 275.966873 247.309745 
L 283.10037 241.75014 
L 289.520518 237.049137 
L 295.227315 233.152236 
L 300.220763 229.986986 
L 305.214211 227.071824 
L 310.207659 224.426236 
L 314.487757 222.386795 
L 318.767856 220.568903 
L 323.047954 218.981813 
L 327.328052 217.633672 
L 331.608151 216.531444 
L 335.888249 215.680858 
L 340.168347 215.086354 
L 344.448445 214.751045 
L 348.728544 214.676692 
L 353.008642 214.863684 
L 357.28874 215.31104 
L 361.568839 216.016413 
L 365.848937 216.976115 
L 370.129035 218.185145 
L 374.409133 219.637233 
L 378.689232 221.324898 
L 382.96933 223.239508 
L 387.249428 225.371354 
L 392.242876 228.118741 
L 397.236324 231.128671 
L 402.229772 234.381137 
L 407.93657 238.367917 
L 414.356717 243.156942 
L 420.776865 248.220198 
L 428.623712 254.707306 
L 437.897258 262.677872 
L 454.304301 277.14661 
L 468.571296 289.606836 
L 477.844842 297.426645 
L 486.405038 304.34842 
L 494.251885 310.388532 
L 501.385382 315.593481 
L 508.51888 320.503609 
L 514.939027 324.657897 
L 521.359174 328.553857 
L 527.779322 332.18801 
L 534.199469 335.560158 
L 540.619617 338.673051 
L 547.039764 341.532035 
L 553.459911 344.144684 
L 559.880059 346.520438 
L 566.300206 348.670245 
L 573.433703 350.808681 
L 580.567201 352.700954 
L 587.700698 354.365657 
L 595.547545 355.956582 
L 603.394391 357.320154 
L 611.954588 358.577154 
L 621.228134 359.701671 
L 631.21503 360.676991 
L 641.915276 361.496029 
L 654.042221 362.196358 
L 668.309215 362.781397 
L 684.716259 363.223195 
L 705.4034 363.54841 
L 733.937389 363.758249 
L 782.445169 363.859743 
L 813.832557 363.872907 
L 813.832557 363.872907 
" clip-path="url(#p7d64ee19e3)" style="fill: none; stroke-dasharray: 7.4,3.2; stroke-dashoffset: 0; stroke: #cf3030; stroke-width: 2"/>
   </g>
   <g id="line2d_28">
    <path d="M 347.805864 363.8775 
L 347.805864 39.3575 
" clip-path="url(#p7d64ee19e3)" style="fill: none; stroke-dasharray: 2,3.3; stroke-dashoffset: 0; stroke: #cf3030; stroke-width: 2"/>
   </g>
   <g id="line2d_29">
    <path d="M 101.196193 362.607238 
L 115.463187 361.950493 
L 127.590133 361.172286 
L 138.290378 360.269963 
L 148.277274 359.203642 
L 157.550821 357.982727 
L 166.111017 356.626561 
L 173.957864 355.163776 
L 181.804711 353.46623 
L 188.938208 351.698867 
L 196.071705 349.69936 
L 203.205202 347.45021 
L 209.62535 345.19889 
L 216.045497 342.721031 
L 222.465644 340.006985 
L 228.885792 337.048753 
L 235.305939 333.840333 
L 241.726087 330.37806 
L 248.146234 326.660951 
L 254.566382 322.691023 
L 260.986529 318.473599 
L 268.120026 313.508237 
L 275.253523 308.266087 
L 283.10037 302.208555 
L 291.660567 295.298852 
L 301.647463 286.924857 
L 315.914457 274.618984 
L 333.03485 259.883134 
L 342.308396 252.199737 
L 349.441893 246.551438 
L 355.862041 241.723932 
L 361.568839 237.676819 
L 367.275636 233.893523 
L 372.269084 230.824236 
L 377.262532 228.000817 
L 382.25598 225.44182 
L 387.249428 223.164301 
L 391.529527 221.447873 
L 395.809625 219.958158 
L 400.089723 218.702671 
L 404.369821 217.68779 
L 408.64992 216.918693 
L 412.930018 216.399325 
L 417.210116 216.132354 
L 421.490214 216.119156 
L 425.770313 216.359799 
L 430.050411 216.853044 
L 434.330509 217.596353 
L 438.610608 218.585916 
L 442.890706 219.816678 
L 447.170804 221.282386 
L 451.450902 222.975639 
L 455.731001 224.887952 
L 460.724449 227.383128 
L 465.717897 230.146823 
L 470.711345 233.160812 
L 476.418142 236.886691 
L 482.12494 240.882878 
L 488.545088 245.661161 
L 495.678585 251.265042 
L 503.525432 257.710222 
L 514.225677 266.816914 
L 545.613065 293.752253 
L 554.886611 301.290949 
L 562.733458 307.39046 
L 569.866955 312.675467 
L 577.000452 317.687124 
L 584.133949 322.406768 
L 590.554097 326.394051 
L 596.974244 330.128776 
L 603.394391 333.608702 
L 609.814539 336.834618 
L 616.234686 339.810013 
L 622.654834 342.540738 
L 629.074981 345.034664 
L 635.495128 347.301337 
L 641.915276 349.351644 
L 649.048773 351.390511 
L 656.18227 353.194343 
L 663.315767 354.781145 
L 671.162614 356.297723 
L 679.009461 357.597845 
L 687.569658 358.796798 
L 696.843204 359.869999 
L 706.8301 360.801569 
L 718.243695 361.630062 
L 731.08399 362.321476 
L 745.350984 362.861902 
L 762.471377 363.284005 
L 784.585219 363.592802 
L 813.832557 363.777079 
L 813.832557 363.777079 
" clip-path="url(#p7d64ee19e3)" style="fill: none; stroke-dasharray: 7.4,3.2; stroke-dashoffset: 0; stroke: #aaaaaa; stroke-width: 2"/>
   </g>
   <g id="line2d_30">
    <path d="M 419.572536 363.8775 
L 419.572536 39.3575 
" clip-path="url(#p7d64ee19e3)" style="fill: none; stroke-dasharray: 2,3.3; stroke-dashoffset: 0; stroke: #aaaaaa; stroke-width: 2"/>
   </g>
   <g id="line2d_31">
    <path d="M 101.196193 363.8775 
L 466.431246 363.770685 
L 486.405038 363.53704 
L 499.958683 363.169081 
L 509.945579 362.695359 
L 518.505775 362.078184 
L 525.639273 361.35764 
L 532.05942 360.500435 
L 537.766218 359.53229 
L 543.473015 358.329592 
L 548.466463 357.050458 
L 553.459911 355.525916 
L 557.74001 353.997502 
L 562.020108 352.240023 
L 566.300206 350.229317 
L 570.580305 347.940562 
L 574.147053 345.802739 
L 577.713802 343.439869 
L 581.28055 340.837693 
L 584.847299 337.982411 
L 588.414047 334.860916 
L 591.980796 331.46105 
L 595.547545 327.771871 
L 599.114293 323.783935 
L 602.681042 319.489588 
L 606.24779 314.883255 
L 609.814539 309.961743 
L 614.094637 303.639344 
L 618.374735 296.867186 
L 622.654834 289.656695 
L 626.934932 282.026555 
L 631.92838 272.62998 
L 636.921828 262.754155 
L 642.628626 250.972219 
L 649.762123 235.695261 
L 671.162614 189.401488 
L 676.156062 179.292407 
L 680.43616 171.071755 
L 684.716259 163.357664 
L 688.283007 157.380155 
L 691.849756 151.864788 
L 694.703155 147.816264 
L 697.556554 144.114994 
L 700.409952 140.781321 
L 703.263351 137.833776 
L 705.4034 135.886545 
L 707.54345 134.172055 
L 709.683499 132.695793 
L 711.823548 131.462502 
L 713.963597 130.476163 
L 716.103646 129.739968 
L 718.243695 129.256307 
L 720.383744 129.026753 
L 722.523794 129.052051 
L 724.663843 129.33212 
L 726.803892 129.866049 
L 728.943941 130.652102 
L 731.08399 131.68773 
L 733.224039 132.969581 
L 735.364088 134.493522 
L 737.504137 136.25466 
L 739.644187 138.247365 
L 742.497585 141.25348 
L 745.350984 144.643086 
L 748.204383 148.397373 
L 751.057782 152.495741 
L 754.624531 158.068611 
L 758.191279 164.097944 
L 761.758028 170.534588 
L 766.038126 178.723927 
L 771.031574 188.804334 
L 776.738372 200.838853 
L 785.298568 219.463117 
L 797.425513 245.827336 
L 803.845661 259.26335 
L 809.552459 270.684659 
L 813.832557 278.856475 
L 813.832557 278.856475 
" clip-path="url(#p7d64ee19e3)" style="fill: none; stroke-dasharray: 7.4,3.2; stroke-dashoffset: 0; stroke: #30a0cf; stroke-width: 2"/>
   </g>
   <g id="line2d_32">
    <path d="M 721.241416 363.8775 
L 721.241416 39.3575 
" clip-path="url(#p7d64ee19e3)" style="fill: none; stroke-dasharray: 2,3.3; stroke-dashoffset: 0; stroke: #30a0cf; stroke-width: 2"/>
   </g>
   <g id="patch_123">
    <path d="M 65.564375 363.8775 
L 65.564375 39.3575 
" style="fill: none; stroke: #ffffff; stroke-width: 0.8; stroke-linejoin: miter; stroke-linecap: square"/>
   </g>
   <g id="patch_124">
    <path d="M 849.464375 363.8775 
L 849.464375 39.3575 
" style="fill: none; stroke: #ffffff; stroke-width: 0.8; stroke-linejoin: miter; stroke-linecap: square"/>
   </g>
   <g id="patch_125">
    <path d="M 65.564375 363.8775 
L 849.464375 363.8775 
" style="fill: none; stroke: #ffffff; stroke-width: 0.8; stroke-linejoin: miter; stroke-linecap: square"/>
   </g>
   <g id="patch_126">
    <path d="M 65.564375 39.3575 
L 849.464375 39.3575 
" style="fill: none; stroke: #ffffff; stroke-width: 0.8; stroke-linejoin: miter; stroke-linecap: square"/>
   </g>
   <g id="text_16">
    <!-- Comparison of Damage Distributions -->
    <g style="fill: #ffffff" transform="translate(309.680625 19.3575) scale(0.16 -0.16)">
     <defs>
      <path id="DejaVuSans-6f" d="M 1959 3097 
Q 1497 3097 1228 2736 
Q 959 2375 959 1747 
Q 959 1119 1226 758 
Q 1494 397 1959 397 
Q 2419 397 2687 759 
Q 2956 1122 2956 1747 
Q 2956 2369 2687 2733 
Q 2419 3097 1959 3097 
z
M 1959 3584 
Q 2709 3584 3137 3096 
Q 3566 2609 3566 1747 
Q 3566 888 3137 398 
Q 2709 -91 1959 -91 
Q 1206 -91 779 398 
Q 353 888 353 1747 
Q 353 2609 779 3096 
Q 1206 3584 1959 3584 
z
" transform="scale(0.015625)"/>
      <path id="DejaVuSans-70" d="M 1159 525 
L 1159 -1331 
L 581 -1331 
L 581 3500 
L 1159 3500 
L 1159 2969 
Q 1341 3281 1617 3432 
Q 1894 3584 2278 3584 
Q 2916 3584 3314 3078 
Q 3713 2572 3713 1747 
Q 3713 922 3314 415 
Q 2916 -91 2278 -91 
Q 1894 -91 1617 61 
Q 1341 213 1159 525 
z
M 3116 1747 
Q 3116 2381 2855 2742 
Q 2594 3103 2138 3103 
Q 1681 3103 1420 2742 
Q 1159 2381 1159 1747 
Q 1159 1113 1420 752 
Q 1681 391 2138 391 
Q 2594 391 2855 752 
Q 3116 1113 3116 1747 
z
" transform="scale(0.015625)"/>
      <path id="DejaVuSans-73" d="M 2834 3397 
L 2834 2853 
Q 2591 2978 2328 3040 
Q 2066 3103 1784 3103 
Q 1356 3103 1142 2972 
Q 928 2841 928 2578 
Q 928 2378 1081 2264 
Q 1234 2150 1697 2047 
L 1894 2003 
Q 2506 1872 2764 1633 
Q 3022 1394 3022 966 
Q 3022 478 2636 193 
Q 2250 -91 1575 -91 
Q 1294 -91 989 -36 
Q 684 19 347 128 
L 347 722 
Q 666 556 975 473 
Q 1284 391 1588 391 
Q 1994 391 2212 530 
Q 2431 669 2431 922 
Q 2431 1156 2273 1281 
Q 2116 1406 1581 1522 
L 1381 1569 
Q 847 1681 609 1914 
Q 372 2147 372 2553 
Q 372 3047 722 3315 
Q 1072 3584 1716 3584 
Q 2034 3584 2315 3537 
Q 2597 3491 2834 3397 
z
" transform="scale(0.015625)"/>
      <path id="DejaVuSans-66" d="M 2375 4863 
L 2375 4384 
L 1825 4384 
Q 1516 4384 1395 4259 
Q 1275 4134 1275 3809 
L 1275 3500 
L 2222 3500 
L 2222 3053 
L 1275 3053 
L 1275 0 
L 697 0 
L 697 3053 
L 147 3053 
L 147 3500 
L 697 3500 
L 697 3744 
Q 697 4328 969 4595 
Q 1241 4863 1831 4863 
L 2375 4863 
z
" transform="scale(0.015625)"/>
      <path id="DejaVuSans-62" d="M 3116 1747 
Q 3116 2381 2855 2742 
Q 2594 3103 2138 3103 
Q 1681 3103 1420 2742 
Q 1159 2381 1159 1747 
Q 1159 1113 1420 752 
Q 1681 391 2138 391 
Q 2594 391 2855 752 
Q 3116 1113 3116 1747 
z
M 1159 2969 
Q 1341 3281 1617 3432 
Q 1894 3584 2278 3584 
Q 2916 3584 3314 3078 
Q 3713 2572 3713 1747 
Q 3713 922 3314 415 
Q 2916 -91 2278 -91 
Q 1894 -91 1617 61 
Q 1341 213 1159 525 
L 1159 0 
L 581 0 
L 581 4863 
L 1159 4863 
L 1159 2969 
z
" transform="scale(0.015625)"/>
     </defs>
     <use xlink:href="#DejaVuSans-43"/>
     <use xlink:href="#DejaVuSans-6f" transform="translate(69.824219 0)"/>
     <use xlink:href="#DejaVuSans-6d" transform="translate(131.005859 0)"/>
     <use xlink:href="#DejaVuSans-70" transform="translate(228.417969 0)"/>
     <use xlink:href="#DejaVuSans-61" transform="translate(291.894531 0)"/>
     <use xlink:href="#DejaVuSans-72" transform="translate(353.173828 0)"/>
     <use xlink:href="#DejaVuSans-69" transform="translate(394.287109 0)"/>
     <use xlink:href="#DejaVuSans-73" transform="translate(422.070312 0)"/>
     <use xlink:href="#DejaVuSans-6f" transform="translate(474.169922 0)"/>
     <use xlink:href="#DejaVuSans-6e" transform="translate(535.351562 0)"/>
     <use xlink:href="#DejaVuSans-20" transform="translate(598.730469 0)"/>
     <use xlink:href="#DejaVuSans-6f" transform="translate(630.517578 0)"/>
     <use xlink:href="#DejaVuSans-66" transform="translate(691.699219 0)"/>
     <use xlink:href="#DejaVuSans-20" transform="translate(726.904297 0)"/>
     <use xlink:href="#DejaVuSans-44" transform="translate(758.691406 0)"/>
     <use xlink:href="#DejaVuSans-61" transform="translate(835.693359 0)"/>
     <use xlink:href="#DejaVuSans-6d" transform="translate(896.972656 0)"/>
     <use xlink:href="#DejaVuSans-61" transform="translate(994.384766 0)"/>
     <use xlink:href="#DejaVuSans-67" transform="translate(1055.664062 0)"/>
     <use xlink:href="#DejaVuSans-65" transform="translate(1119.140625 0)"/>
     <use xlink:href="#DejaVuSans-20" transform="translate(1180.664062 0)"/>
     <use xlink:href="#DejaVuSans-44" transform="translate(1212.451172 0)"/>
     <use xlink:href="#DejaVuSans-69" transform="translate(1289.453125 0)"/>
     <use xlink:href="#DejaVuSans-73" transform="translate(1317.236328 0)"/>
     <use xlink:href="#DejaVuSans-74" transform="translate(1369.335938 0)"/>
     <use xlink:href="#DejaVuSans-72" transform="translate(1408.544922 0)"/>
     <use xlink:href="#DejaVuSans-69" transform="translate(1449.658203 0)"/>
     <use xlink:href="#DejaVuSans-62" transform="translate(1477.441406 0)"/>
     <use xlink:href="#DejaVuSans-75" transform="translate(1540.917969 0)"/>
     <use xlink:href="#DejaVuSans-74" transform="translate(1604.296875 0)"/>
     <use xlink:href="#DejaVuSans-69" transform="translate(1643.505859 0)"/>
     <use xlink:href="#DejaVuSans-6f" transform="translate(1671.289062 0)"/>
     <use xlink:href="#DejaVuSans-6e" transform="translate(1732.470703 0)"/>
     <use xlink:href="#DejaVuSans-73" transform="translate(1795.849609 0)"/>
    </g>
   </g>
   <g id="legend_1">
    <g id="patch_127">
     <path d="M 73.964375 154.64 
L 342.74375 154.64 
Q 345.14375 154.64 345.14375 152.24 
L 345.14375 47.7575 
Q 345.14375 45.3575 342.74375 45.3575 
L 73.964375 45.3575 
Q 71.564375 45.3575 71.564375 47.7575 
L 71.564375 152.24 
Q 71.564375 154.64 73.964375 154.64 
z
" style="opacity: 0.8; stroke: #cccccc; stroke-linejoin: miter"/>
    </g>
    <g id="patch_128">
     <path d="M 76.364375 59.275625 
L 100.364375 59.275625 
L 100.364375 50.875625 
L 76.364375 50.875625 
z
" style="fill: #cf3030; opacity: 0.6; stroke: #cf3030; stroke-linejoin: miter"/>
    </g>
    <g id="text_17">
     <!-- DeepRL Histogram -->
     <g style="fill: #ffffff" transform="translate(109.964375 59.275625) scale(0.12 -0.12)">
      <defs>
       <path id="DejaVuSans-52" d="M 2841 2188 
Q 3044 2119 3236 1894 
Q 3428 1669 3622 1275 
L 4263 0 
L 3584 0 
L 2988 1197 
Q 2756 1666 2539 1819 
Q 2322 1972 1947 1972 
L 1259 1972 
L 1259 0 
L 628 0 
L 628 4666 
L 2053 4666 
Q 2853 4666 3247 4331 
Q 3641 3997 3641 3322 
Q 3641 2881 3436 2590 
Q 3231 2300 2841 2188 
z
M 1259 4147 
L 1259 2491 
L 2053 2491 
Q 2509 2491 2742 2702 
Q 2975 2913 2975 3322 
Q 2975 3731 2742 3939 
Q 2509 4147 2053 4147 
L 1259 4147 
z
" transform="scale(0.015625)"/>
       <path id="DejaVuSans-4c" d="M 628 4666 
L 1259 4666 
L 1259 531 
L 3531 531 
L 3531 0 
L 628 0 
L 628 4666 
z
" transform="scale(0.015625)"/>
       <path id="DejaVuSans-48" d="M 628 4666 
L 1259 4666 
L 1259 2753 
L 3553 2753 
L 3553 4666 
L 4184 4666 
L 4184 0 
L 3553 0 
L 3553 2222 
L 1259 2222 
L 1259 0 
L 628 0 
L 628 4666 
z
" transform="scale(0.015625)"/>
      </defs>
      <use xlink:href="#DejaVuSans-44"/>
      <use xlink:href="#DejaVuSans-65" transform="translate(77.001953 0)"/>
      <use xlink:href="#DejaVuSans-65" transform="translate(138.525391 0)"/>
      <use xlink:href="#DejaVuSans-70" transform="translate(200.048828 0)"/>
      <use xlink:href="#DejaVuSans-52" transform="translate(263.525391 0)"/>
      <use xlink:href="#DejaVuSans-4c" transform="translate(333.007812 0)"/>
      <use xlink:href="#DejaVuSans-20" transform="translate(388.720703 0)"/>
      <use xlink:href="#DejaVuSans-48" transform="translate(420.507812 0)"/>
      <use xlink:href="#DejaVuSans-69" transform="translate(495.703125 0)"/>
      <use xlink:href="#DejaVuSans-73" transform="translate(523.486328 0)"/>
      <use xlink:href="#DejaVuSans-74" transform="translate(575.585938 0)"/>
      <use xlink:href="#DejaVuSans-6f" transform="translate(614.794922 0)"/>
      <use xlink:href="#DejaVuSans-67" transform="translate(675.976562 0)"/>
      <use xlink:href="#DejaVuSans-72" transform="translate(739.453125 0)"/>
      <use xlink:href="#DejaVuSans-61" transform="translate(780.566406 0)"/>
      <use xlink:href="#DejaVuSans-6d" transform="translate(841.845703 0)"/>
     </g>
    </g>
    <g id="patch_129">
     <path d="M 76.364375 76.889375 
L 100.364375 76.889375 
L 100.364375 68.489375 
L 76.364375 68.489375 
z
" style="fill: #aaaaaa; opacity: 0.6; stroke: #aaaaaa; stroke-linejoin: miter"/>
    </g>
    <g id="text_18">
     <!-- Classic Histogram -->
     <g style="fill: #ffffff" transform="translate(109.964375 76.889375) scale(0.12 -0.12)">
      <use xlink:href="#DejaVuSans-43"/>
      <use xlink:href="#DejaVuSans-6c" transform="translate(69.824219 0)"/>
      <use xlink:href="#DejaVuSans-61" transform="translate(97.607422 0)"/>
      <use xlink:href="#DejaVuSans-73" transform="translate(158.886719 0)"/>
      <use xlink:href="#DejaVuSans-73" transform="translate(210.986328 0)"/>
      <use xlink:href="#DejaVuSans-69" transform="translate(263.085938 0)"/>
      <use xlink:href="#DejaVuSans-63" transform="translate(290.869141 0)"/>
      <use xlink:href="#DejaVuSans-20" transform="translate(345.849609 0)"/>
      <use xlink:href="#DejaVuSans-48" transform="translate(377.636719 0)"/>
      <use xlink:href="#DejaVuSans-69" transform="translate(452.832031 0)"/>
      <use xlink:href="#DejaVuSans-73" transform="translate(480.615234 0)"/>
      <use xlink:href="#DejaVuSans-74" transform="translate(532.714844 0)"/>
      <use xlink:href="#DejaVuSans-6f" transform="translate(571.923828 0)"/>
      <use xlink:href="#DejaVuSans-67" transform="translate(633.105469 0)"/>
      <use xlink:href="#DejaVuSans-72" transform="translate(696.582031 0)"/>
      <use xlink:href="#DejaVuSans-61" transform="translate(737.695312 0)"/>
      <use xlink:href="#DejaVuSans-6d" transform="translate(798.974609 0)"/>
     </g>
    </g>
    <g id="patch_130">
     <path d="M 76.364375 94.503125 
L 100.364375 94.503125 
L 100.364375 86.103125 
L 76.364375 86.103125 
z
" style="fill: #30a0cf; opacity: 0.6; stroke: #30a0cf; stroke-linejoin: miter"/>
    </g>
    <g id="text_19">
     <!-- Random Histogram -->
     <g style="fill: #ffffff" transform="translate(109.964375 94.503125) scale(0.12 -0.12)">
      <defs>
       <path id="DejaVuSans-64" d="M 2906 2969 
L 2906 4863 
L 3481 4863 
L 3481 0 
L 2906 0 
L 2906 525 
Q 2725 213 2448 61 
Q 2172 -91 1784 -91 
Q 1150 -91 751 415 
Q 353 922 353 1747 
Q 353 2572 751 3078 
Q 1150 3584 1784 3584 
Q 2172 3584 2448 3432 
Q 2725 3281 2906 2969 
z
M 947 1747 
Q 947 1113 1208 752 
Q 1469 391 1925 391 
Q 2381 391 2643 752 
Q 2906 1113 2906 1747 
Q 2906 2381 2643 2742 
Q 2381 3103 1925 3103 
Q 1469 3103 1208 2742 
Q 947 2381 947 1747 
z
" transform="scale(0.015625)"/>
      </defs>
      <use xlink:href="#DejaVuSans-52"/>
      <use xlink:href="#DejaVuSans-61" transform="translate(67.232422 0)"/>
      <use xlink:href="#DejaVuSans-6e" transform="translate(128.511719 0)"/>
      <use xlink:href="#DejaVuSans-64" transform="translate(191.890625 0)"/>
      <use xlink:href="#DejaVuSans-6f" transform="translate(255.367188 0)"/>
      <use xlink:href="#DejaVuSans-6d" transform="translate(316.548828 0)"/>
      <use xlink:href="#DejaVuSans-20" transform="translate(413.960938 0)"/>
      <use xlink:href="#DejaVuSans-48" transform="translate(445.748047 0)"/>
      <use xlink:href="#DejaVuSans-69" transform="translate(520.943359 0)"/>
      <use xlink:href="#DejaVuSans-73" transform="translate(548.726562 0)"/>
      <use xlink:href="#DejaVuSans-74" transform="translate(600.826172 0)"/>
      <use xlink:href="#DejaVuSans-6f" transform="translate(640.035156 0)"/>
      <use xlink:href="#DejaVuSans-67" transform="translate(701.216797 0)"/>
      <use xlink:href="#DejaVuSans-72" transform="translate(764.693359 0)"/>
      <use xlink:href="#DejaVuSans-61" transform="translate(805.806641 0)"/>
      <use xlink:href="#DejaVuSans-6d" transform="translate(867.085938 0)"/>
     </g>
    </g>
    <g id="line2d_33">
     <path d="M 76.364375 107.916875 
L 88.364375 107.916875 
L 100.364375 107.916875 
" style="fill: none; stroke-dasharray: 7.4,3.2; stroke-dashoffset: 0; stroke: #cf3030; stroke-width: 2"/>
    </g>
    <g id="text_20">
     <!-- DeepRL Gaussian (=41.30, =12.88) -->
     <g style="fill: #ffffff" transform="translate(109.964375 112.116875) scale(0.12 -0.12)">
      <defs>
       <path id="DejaVuSans-47" d="M 3809 666 
L 3809 1919 
L 2778 1919 
L 2778 2438 
L 4434 2438 
L 4434 434 
Q 4069 175 3628 42 
Q 3188 -91 2688 -91 
Q 1594 -91 976 548 
Q 359 1188 359 2328 
Q 359 3472 976 4111 
Q 1594 4750 2688 4750 
Q 3144 4750 3555 4637 
Q 3966 4525 4313 4306 
L 4313 3634 
Q 3963 3931 3569 4081 
Q 3175 4231 2741 4231 
Q 1884 4231 1454 3753 
Q 1025 3275 1025 2328 
Q 1025 1384 1454 906 
Q 1884 428 2741 428 
Q 3075 428 3337 486 
Q 3600 544 3809 666 
z
" transform="scale(0.015625)"/>
       <path id="DejaVuSans-28" d="M 1984 4856 
Q 1566 4138 1362 3434 
Q 1159 2731 1159 2009 
Q 1159 1288 1364 580 
Q 1569 -128 1984 -844 
L 1484 -844 
Q 1016 -109 783 600 
Q 550 1309 550 2009 
Q 550 2706 781 3412 
Q 1013 4119 1484 4856 
L 1984 4856 
z
" transform="scale(0.015625)"/>
       <path id="DejaVuSans-3bc" d="M 544 -1331 
L 544 3500 
L 1119 3500 
L 1119 1325 
Q 1119 872 1334 640 
Q 1550 409 1972 409 
Q 2434 409 2667 671 
Q 2900 934 2900 1459 
L 2900 3500 
L 3475 3500 
L 3475 806 
Q 3475 619 3529 530 
Q 3584 441 3700 441 
Q 3728 441 3778 458 
Q 3828 475 3916 513 
L 3916 50 
Q 3788 -22 3673 -56 
Q 3559 -91 3450 -91 
Q 3234 -91 3106 31 
Q 2978 153 2931 403 
Q 2775 156 2548 32 
Q 2322 -91 2016 -91 
Q 1697 -91 1473 31 
Q 1250 153 1119 397 
L 1119 -1331 
L 544 -1331 
z
" transform="scale(0.015625)"/>
       <path id="DejaVuSans-3d" d="M 678 2906 
L 4684 2906 
L 4684 2381 
L 678 2381 
L 678 2906 
z
M 678 1631 
L 4684 1631 
L 4684 1100 
L 678 1100 
L 678 1631 
z
" transform="scale(0.015625)"/>
       <path id="DejaVuSans-2e" d="M 684 794 
L 1344 794 
L 1344 0 
L 684 0 
L 684 794 
z
" transform="scale(0.015625)"/>
       <path id="DejaVuSans-2c" d="M 750 794 
L 1409 794 
L 1409 256 
L 897 -744 
L 494 -744 
L 750 256 
L 750 794 
z
" transform="scale(0.015625)"/>
       <path id="DejaVuSans-3c3" d="M 1959 3044 
Q 1484 3044 1228 2700 
Q 959 2341 959 1747 
Q 959 1119 1226 758 
Q 1494 397 1959 397 
Q 2419 397 2687 759 
Q 2956 1122 2956 1747 
Q 2956 2319 2688 2700 
Q 2441 3044 1959 3044 
z
M 1959 3500 
L 3869 3500 
L 3869 2925 
L 3225 2925 
Q 3566 2438 3566 1747 
Q 3566 888 3138 400 
Q 2709 -91 1959 -91 
Q 1206 -91 781 400 
Q 353 888 353 1747 
Q 353 2613 781 3097 
Q 1134 3500 1959 3500 
z
" transform="scale(0.015625)"/>
       <path id="DejaVuSans-29" d="M 513 4856 
L 1013 4856 
Q 1481 4119 1714 3412 
Q 1947 2706 1947 2009 
Q 1947 1309 1714 600 
Q 1481 -109 1013 -844 
L 513 -844 
Q 928 -128 1133 580 
Q 1338 1288 1338 2009 
Q 1338 2731 1133 3434 
Q 928 4138 513 4856 
z
" transform="scale(0.015625)"/>
      </defs>
      <use xlink:href="#DejaVuSans-44"/>
      <use xlink:href="#DejaVuSans-65" transform="translate(77.001953 0)"/>
      <use xlink:href="#DejaVuSans-65" transform="translate(138.525391 0)"/>
      <use xlink:href="#DejaVuSans-70" transform="translate(200.048828 0)"/>
      <use xlink:href="#DejaVuSans-52" transform="translate(263.525391 0)"/>
      <use xlink:href="#DejaVuSans-4c" transform="translate(333.007812 0)"/>
      <use xlink:href="#DejaVuSans-20" transform="translate(388.720703 0)"/>
      <use xlink:href="#DejaVuSans-47" transform="translate(420.507812 0)"/>
      <use xlink:href="#DejaVuSans-61" transform="translate(497.998047 0)"/>
      <use xlink:href="#DejaVuSans-75" transform="translate(559.277344 0)"/>
      <use xlink:href="#DejaVuSans-73" transform="translate(622.65625 0)"/>
      <use xlink:href="#DejaVuSans-73" transform="translate(674.755859 0)"/>
      <use xlink:href="#DejaVuSans-69" transform="translate(726.855469 0)"/>
      <use xlink:href="#DejaVuSans-61" transform="translate(754.638672 0)"/>
      <use xlink:href="#DejaVuSans-6e" transform="translate(815.917969 0)"/>
      <use xlink:href="#DejaVuSans-20" transform="translate(879.296875 0)"/>
      <use xlink:href="#DejaVuSans-28" transform="translate(911.083984 0)"/>
      <use xlink:href="#DejaVuSans-3bc" transform="translate(950.097656 0)"/>
      <use xlink:href="#DejaVuSans-3d" transform="translate(1013.720703 0)"/>
      <use xlink:href="#DejaVuSans-34" transform="translate(1097.509766 0)"/>
      <use xlink:href="#DejaVuSans-31" transform="translate(1161.132812 0)"/>
      <use xlink:href="#DejaVuSans-2e" transform="translate(1224.755859 0)"/>
      <use xlink:href="#DejaVuSans-33" transform="translate(1256.542969 0)"/>
      <use xlink:href="#DejaVuSans-30" transform="translate(1320.166016 0)"/>
      <use xlink:href="#DejaVuSans-2c" transform="translate(1383.789062 0)"/>
      <use xlink:href="#DejaVuSans-20" transform="translate(1415.576172 0)"/>
      <use xlink:href="#DejaVuSans-3c3" transform="translate(1447.363281 0)"/>
      <use xlink:href="#DejaVuSans-3d" transform="translate(1510.742188 0)"/>
      <use xlink:href="#DejaVuSans-31" transform="translate(1594.53125 0)"/>
      <use xlink:href="#DejaVuSans-32" transform="translate(1658.154297 0)"/>
      <use xlink:href="#DejaVuSans-2e" transform="translate(1721.777344 0)"/>
      <use xlink:href="#DejaVuSans-38" transform="translate(1753.564453 0)"/>
      <use xlink:href="#DejaVuSans-38" transform="translate(1817.1875 0)"/>
      <use xlink:href="#DejaVuSans-29" transform="translate(1880.810547 0)"/>
     </g>
    </g>
    <g id="line2d_34">
     <path d="M 76.364375 125.530625 
L 88.364375 125.530625 
L 100.364375 125.530625 
" style="fill: none; stroke-dasharray: 7.4,3.2; stroke-dashoffset: 0; stroke: #aaaaaa; stroke-width: 2"/>
    </g>
    <g id="text_21">
     <!-- Classic Gaussian (=50.34, =13.00) -->
     <g style="fill: #ffffff" transform="translate(109.964375 129.730625) scale(0.12 -0.12)">
      <use xlink:href="#DejaVuSans-43"/>
      <use xlink:href="#DejaVuSans-6c" transform="translate(69.824219 0)"/>
      <use xlink:href="#DejaVuSans-61" transform="translate(97.607422 0)"/>
      <use xlink:href="#DejaVuSans-73" transform="translate(158.886719 0)"/>
      <use xlink:href="#DejaVuSans-73" transform="translate(210.986328 0)"/>
      <use xlink:href="#DejaVuSans-69" transform="translate(263.085938 0)"/>
      <use xlink:href="#DejaVuSans-63" transform="translate(290.869141 0)"/>
      <use xlink:href="#DejaVuSans-20" transform="translate(345.849609 0)"/>
      <use xlink:href="#DejaVuSans-47" transform="translate(377.636719 0)"/>
      <use xlink:href="#DejaVuSans-61" transform="translate(455.126953 0)"/>
      <use xlink:href="#DejaVuSans-75" transform="translate(516.40625 0)"/>
      <use xlink:href="#DejaVuSans-73" transform="translate(579.785156 0)"/>
      <use xlink:href="#DejaVuSans-73" transform="translate(631.884766 0)"/>
      <use xlink:href="#DejaVuSans-69" transform="translate(683.984375 0)"/>
      <use xlink:href="#DejaVuSans-61" transform="translate(711.767578 0)"/>
      <use xlink:href="#DejaVuSans-6e" transform="translate(773.046875 0)"/>
      <use xlink:href="#DejaVuSans-20" transform="translate(836.425781 0)"/>
      <use xlink:href="#DejaVuSans-28" transform="translate(868.212891 0)"/>
      <use xlink:href="#DejaVuSans-3bc" transform="translate(907.226562 0)"/>
      <use xlink:href="#DejaVuSans-3d" transform="translate(970.849609 0)"/>
      <use xlink:href="#DejaVuSans-35" transform="translate(1054.638672 0)"/>
      <use xlink:href="#DejaVuSans-30" transform="translate(1118.261719 0)"/>
      <use xlink:href="#DejaVuSans-2e" transform="translate(1181.884766 0)"/>
      <use xlink:href="#DejaVuSans-33" transform="translate(1213.671875 0)"/>
      <use xlink:href="#DejaVuSans-34" transform="translate(1277.294922 0)"/>
      <use xlink:href="#DejaVuSans-2c" transform="translate(1340.917969 0)"/>
      <use xlink:href="#DejaVuSans-20" transform="translate(1372.705078 0)"/>
      <use xlink:href="#DejaVuSans-3c3" transform="translate(1404.492188 0)"/>
      <use xlink:href="#DejaVuSans-3d" transform="translate(1467.871094 0)"/>
      <use xlink:href="#DejaVuSans-31" transform="translate(1551.660156 0)"/>
      <use xlink:href="#DejaVuSans-33" transform="translate(1615.283203 0)"/>
      <use xlink:href="#DejaVuSans-2e" transform="translate(1678.90625 0)"/>
      <use xlink:href="#DejaVuSans-30" transform="translate(1710.693359 0)"/>
      <use xlink:href="#DejaVuSans-30" transform="translate(1774.316406 0)"/>
      <use xlink:href="#DejaVuSans-29" transform="translate(1837.939453 0)"/>
     </g>
    </g>
    <g id="line2d_35">
     <path d="M 76.364375 143.144375 
L 88.364375 143.144375 
L 100.364375 143.144375 
" style="fill: none; stroke-dasharray: 7.4,3.2; stroke-dashoffset: 0; stroke: #30a0cf; stroke-width: 2"/>
    </g>
    <g id="text_22">
     <!-- Random Gaussian (=88.34, =8.18) -->
     <g style="fill: #ffffff" transform="translate(109.964375 147.344375) scale(0.12 -0.12)">
      <use xlink:href="#DejaVuSans-52"/>
      <use xlink:href="#DejaVuSans-61" transform="translate(67.232422 0)"/>
      <use xlink:href="#DejaVuSans-6e" transform="translate(128.511719 0)"/>
      <use xlink:href="#DejaVuSans-64" transform="translate(191.890625 0)"/>
      <use xlink:href="#DejaVuSans-6f" transform="translate(255.367188 0)"/>
      <use xlink:href="#DejaVuSans-6d" transform="translate(316.548828 0)"/>
      <use xlink:href="#DejaVuSans-20" transform="translate(413.960938 0)"/>
      <use xlink:href="#DejaVuSans-47" transform="translate(445.748047 0)"/>
      <use xlink:href="#DejaVuSans-61" transform="translate(523.238281 0)"/>
      <use xlink:href="#DejaVuSans-75" transform="translate(584.517578 0)"/>
      <use xlink:href="#DejaVuSans-73" transform="translate(647.896484 0)"/>
      <use xlink:href="#DejaVuSans-73" transform="translate(699.996094 0)"/>
      <use xlink:href="#DejaVuSans-69" transform="translate(752.095703 0)"/>
      <use xlink:href="#DejaVuSans-61" transform="translate(779.878906 0)"/>
      <use xlink:href="#DejaVuSans-6e" transform="translate(841.158203 0)"/>
      <use xlink:href="#DejaVuSans-20" transform="translate(904.537109 0)"/>
      <use xlink:href="#DejaVuSans-28" transform="translate(936.324219 0)"/>
      <use xlink:href="#DejaVuSans-3bc" transform="translate(975.337891 0)"/>
      <use xlink:href="#DejaVuSans-3d" transform="translate(1038.960938 0)"/>
      <use xlink:href="#DejaVuSans-38" transform="translate(1122.75 0)"/>
      <use xlink:href="#DejaVuSans-38" transform="translate(1186.373047 0)"/>
      <use xlink:href="#DejaVuSans-2e" transform="translate(1249.996094 0)"/>
      <use xlink:href="#DejaVuSans-33" transform="translate(1281.783203 0)"/>
      <use xlink:href="#DejaVuSans-34" transform="translate(1345.40625 0)"/>
      <use xlink:href="#DejaVuSans-2c" transform="translate(1409.029297 0)"/>
      <use xlink:href="#DejaVuSans-20" transform="translate(1440.816406 0)"/>
      <use xlink:href="#DejaVuSans-3c3" transform="translate(1472.603516 0)"/>
      <use xlink:href="#DejaVuSans-3d" transform="translate(1535.982422 0)"/>
      <use xlink:href="#DejaVuSans-38" transform="translate(1619.771484 0)"/>
      <use xlink:href="#DejaVuSans-2e" transform="translate(1683.394531 0)"/>
      <use xlink:href="#DejaVuSans-31" transform="translate(1715.181641 0)"/>
      <use xlink:href="#DejaVuSans-38" transform="translate(1778.804688 0)"/>
      <use xlink:href="#DejaVuSans-29" transform="translate(1842.427734 0)"/>
     </g>
    </g>
   </g>
  </g>
 </g>
 <defs>
  <clipPath id="p7d64ee19e3">
   <rect x="65.564375" y="39.3575" width="783.9" height="324.52"/>
  </clipPath>
 </defs>
</svg>
