<?xml version="1.0" encoding="utf-8" standalone="no"?>
<!DOCTYPE svg PUBLIC "-//W3C//DTD SVG 1.1//EN"
  "http://www.w3.org/Graphics/SVG/1.1/DTD/svg11.dtd">
<svg xmlns:xlink="http://www.w3.org/1999/xlink" width="712.555312pt" height="425.17625pt" viewBox="0 0 712.555312 425.17625" xmlns="http://www.w3.org/2000/svg" version="1.1">
 <metadata>
  <rdf:RDF xmlns:dc="http://purl.org/dc/elements/1.1/" xmlns:cc="http://creativecommons.org/ns#" xmlns:rdf="http://www.w3.org/1999/02/22-rdf-syntax-ns#">
   <cc:Work>
    <dc:type rdf:resource="http://purl.org/dc/dcmitype/StillImage"/>
    <dc:date>2025-07-31T13:54:30.723139</dc:date>
    <dc:format>image/svg+xml</dc:format>
    <dc:creator>
     <cc:Agent>
      <dc:title>Matplotlib v3.10.3, https://matplotlib.org/</dc:title>
     </cc:Agent>
    </dc:creator>
   </cc:Work>
  </rdf:RDF>
 </metadata>
 <defs>
  <style type="text/css">*{stroke-linejoin: round; stroke-linecap: butt}</style>
 </defs>
 <g id="figure_1">
  <g id="patch_1">
   <path d="M 0 425.17625 
L 712.555312 425.17625 
L 712.555312 0 
L 0 0 
z
" style="fill: #121212"/>
  </g>
  <g id="axes_1">
   <g id="patch_2">
    <path d="M 81.745313 363.8775 
L 705.355313 363.8775 
L 705.355313 39.3575 
L 81.745313 39.3575 
z
"/>
   </g>
   <g id="matplotlib.axis_1">
    <g id="xtick_1">
     <g id="line2d_1">
      <path d="M 109.514029 363.8775 
L 109.514029 39.3575 
" clip-path="url(#p733b1da262)" style="fill: none; stroke-dasharray: 2.96,1.28; stroke-dashoffset: 0; stroke: #ffffff; stroke-opacity: 0.3; stroke-width: 0.8"/>
     </g>
     <g id="line2d_2">
      <defs>
       <path id="m0c2c83a81d" d="M 0 0 
L 0 3.5 
" style="stroke: #ffffff; stroke-width: 0.8"/>
      </defs>
      <g>
       <use xlink:href="#m0c2c83a81d" x="109.514029" y="363.8775" style="fill: #ffffff; stroke: #ffffff; stroke-width: 0.8"/>
      </g>
     </g>
     <g id="text_1">
      <!-- 0 -->
      <g style="fill: #ffffff" transform="translate(105.060279 381.515312) scale(0.14 -0.14)">
       <defs>
        <path id="DejaVuSans-30" d="M 2034 4250 
Q 1547 4250 1301 3770 
Q 1056 3291 1056 2328 
Q 1056 1369 1301 889 
Q 1547 409 2034 409 
Q 2525 409 2770 889 
Q 3016 1369 3016 2328 
Q 3016 3291 2770 3770 
Q 2525 4250 2034 4250 
z
M 2034 4750 
Q 2819 4750 3233 4129 
Q 3647 3509 3647 2328 
Q 3647 1150 3233 529 
Q 2819 -91 2034 -91 
Q 1250 -91 836 529 
Q 422 1150 422 2328 
Q 422 3509 836 4129 
Q 1250 4750 2034 4750 
z
" transform="scale(0.015625)"/>
       </defs>
       <use xlink:href="#DejaVuSans-30"/>
      </g>
     </g>
    </g>
    <g id="xtick_2">
     <g id="line2d_3">
      <path d="M 179.972062 363.8775 
L 179.972062 39.3575 
" clip-path="url(#p733b1da262)" style="fill: none; stroke-dasharray: 2.96,1.28; stroke-dashoffset: 0; stroke: #ffffff; stroke-opacity: 0.3; stroke-width: 0.8"/>
     </g>
     <g id="line2d_4">
      <g>
       <use xlink:href="#m0c2c83a81d" x="179.972062" y="363.8775" style="fill: #ffffff; stroke: #ffffff; stroke-width: 0.8"/>
      </g>
     </g>
     <g id="text_2">
      <!-- 1 -->
      <g style="fill: #ffffff" transform="translate(175.518312 381.515312) scale(0.14 -0.14)">
       <defs>
        <path id="DejaVuSans-31" d="M 794 531 
L 1825 531 
L 1825 4091 
L 703 3866 
L 703 4441 
L 1819 4666 
L 2450 4666 
L 2450 531 
L 3481 531 
L 3481 0 
L 794 0 
L 794 531 
z
" transform="scale(0.015625)"/>
       </defs>
       <use xlink:href="#DejaVuSans-31"/>
      </g>
     </g>
    </g>
    <g id="xtick_3">
     <g id="line2d_5">
      <path d="M 250.430095 363.8775 
L 250.430095 39.3575 
" clip-path="url(#p733b1da262)" style="fill: none; stroke-dasharray: 2.96,1.28; stroke-dashoffset: 0; stroke: #ffffff; stroke-opacity: 0.3; stroke-width: 0.8"/>
     </g>
     <g id="line2d_6">
      <g>
       <use xlink:href="#m0c2c83a81d" x="250.430095" y="363.8775" style="fill: #ffffff; stroke: #ffffff; stroke-width: 0.8"/>
      </g>
     </g>
     <g id="text_3">
      <!-- 2 -->
      <g style="fill: #ffffff" transform="translate(245.976345 381.515312) scale(0.14 -0.14)">
       <defs>
        <path id="DejaVuSans-32" d="M 1228 531 
L 3431 531 
L 3431 0 
L 469 0 
L 469 531 
Q 828 903 1448 1529 
Q 2069 2156 2228 2338 
Q 2531 2678 2651 2914 
Q 2772 3150 2772 3378 
Q 2772 3750 2511 3984 
Q 2250 4219 1831 4219 
Q 1534 4219 1204 4116 
Q 875 4013 500 3803 
L 500 4441 
Q 881 4594 1212 4672 
Q 1544 4750 1819 4750 
Q 2544 4750 2975 4387 
Q 3406 4025 3406 3419 
Q 3406 3131 3298 2873 
Q 3191 2616 2906 2266 
Q 2828 2175 2409 1742 
Q 1991 1309 1228 531 
z
" transform="scale(0.015625)"/>
       </defs>
       <use xlink:href="#DejaVuSans-32"/>
      </g>
     </g>
    </g>
    <g id="xtick_4">
     <g id="line2d_7">
      <path d="M 320.888127 363.8775 
L 320.888127 39.3575 
" clip-path="url(#p733b1da262)" style="fill: none; stroke-dasharray: 2.96,1.28; stroke-dashoffset: 0; stroke: #ffffff; stroke-opacity: 0.3; stroke-width: 0.8"/>
     </g>
     <g id="line2d_8">
      <g>
       <use xlink:href="#m0c2c83a81d" x="320.888127" y="363.8775" style="fill: #ffffff; stroke: #ffffff; stroke-width: 0.8"/>
      </g>
     </g>
     <g id="text_4">
      <!-- 3 -->
      <g style="fill: #ffffff" transform="translate(316.434377 381.515312) scale(0.14 -0.14)">
       <defs>
        <path id="DejaVuSans-33" d="M 2597 2516 
Q 3050 2419 3304 2112 
Q 3559 1806 3559 1356 
Q 3559 666 3084 287 
Q 2609 -91 1734 -91 
Q 1441 -91 1130 -33 
Q 819 25 488 141 
L 488 750 
Q 750 597 1062 519 
Q 1375 441 1716 441 
Q 2309 441 2620 675 
Q 2931 909 2931 1356 
Q 2931 1769 2642 2001 
Q 2353 2234 1838 2234 
L 1294 2234 
L 1294 2753 
L 1863 2753 
Q 2328 2753 2575 2939 
Q 2822 3125 2822 3475 
Q 2822 3834 2567 4026 
Q 2313 4219 1838 4219 
Q 1578 4219 1281 4162 
Q 984 4106 628 3988 
L 628 4550 
Q 988 4650 1302 4700 
Q 1616 4750 1894 4750 
Q 2613 4750 3031 4423 
Q 3450 4097 3450 3541 
Q 3450 3153 3228 2886 
Q 3006 2619 2597 2516 
z
" transform="scale(0.015625)"/>
       </defs>
       <use xlink:href="#DejaVuSans-33"/>
      </g>
     </g>
    </g>
    <g id="xtick_5">
     <g id="line2d_9">
      <path d="M 391.34616 363.8775 
L 391.34616 39.3575 
" clip-path="url(#p733b1da262)" style="fill: none; stroke-dasharray: 2.96,1.28; stroke-dashoffset: 0; stroke: #ffffff; stroke-opacity: 0.3; stroke-width: 0.8"/>
     </g>
     <g id="line2d_10">
      <g>
       <use xlink:href="#m0c2c83a81d" x="391.34616" y="363.8775" style="fill: #ffffff; stroke: #ffffff; stroke-width: 0.8"/>
      </g>
     </g>
     <g id="text_5">
      <!-- 4 -->
      <g style="fill: #ffffff" transform="translate(386.89241 381.515312) scale(0.14 -0.14)">
       <defs>
        <path id="DejaVuSans-34" d="M 2419 4116 
L 825 1625 
L 2419 1625 
L 2419 4116 
z
M 2253 4666 
L 3047 4666 
L 3047 1625 
L 3713 1625 
L 3713 1100 
L 3047 1100 
L 3047 0 
L 2419 0 
L 2419 1100 
L 313 1100 
L 313 1709 
L 2253 4666 
z
" transform="scale(0.015625)"/>
       </defs>
       <use xlink:href="#DejaVuSans-34"/>
      </g>
     </g>
    </g>
    <g id="xtick_6">
     <g id="line2d_11">
      <path d="M 461.804192 363.8775 
L 461.804192 39.3575 
" clip-path="url(#p733b1da262)" style="fill: none; stroke-dasharray: 2.96,1.28; stroke-dashoffset: 0; stroke: #ffffff; stroke-opacity: 0.3; stroke-width: 0.8"/>
     </g>
     <g id="line2d_12">
      <g>
       <use xlink:href="#m0c2c83a81d" x="461.804192" y="363.8775" style="fill: #ffffff; stroke: #ffffff; stroke-width: 0.8"/>
      </g>
     </g>
     <g id="text_6">
      <!-- 5 -->
      <g style="fill: #ffffff" transform="translate(457.350442 381.515312) scale(0.14 -0.14)">
       <defs>
        <path id="DejaVuSans-35" d="M 691 4666 
L 3169 4666 
L 3169 4134 
L 1269 4134 
L 1269 2991 
Q 1406 3038 1543 3061 
Q 1681 3084 1819 3084 
Q 2600 3084 3056 2656 
Q 3513 2228 3513 1497 
Q 3513 744 3044 326 
Q 2575 -91 1722 -91 
Q 1428 -91 1123 -41 
Q 819 9 494 109 
L 494 744 
Q 775 591 1075 516 
Q 1375 441 1709 441 
Q 2250 441 2565 725 
Q 2881 1009 2881 1497 
Q 2881 1984 2565 2268 
Q 2250 2553 1709 2553 
Q 1456 2553 1204 2497 
Q 953 2441 691 2322 
L 691 4666 
z
" transform="scale(0.015625)"/>
       </defs>
       <use xlink:href="#DejaVuSans-35"/>
      </g>
     </g>
    </g>
    <g id="xtick_7">
     <g id="line2d_13">
      <path d="M 532.262225 363.8775 
L 532.262225 39.3575 
" clip-path="url(#p733b1da262)" style="fill: none; stroke-dasharray: 2.96,1.28; stroke-dashoffset: 0; stroke: #ffffff; stroke-opacity: 0.3; stroke-width: 0.8"/>
     </g>
     <g id="line2d_14">
      <g>
       <use xlink:href="#m0c2c83a81d" x="532.262225" y="363.8775" style="fill: #ffffff; stroke: #ffffff; stroke-width: 0.8"/>
      </g>
     </g>
     <g id="text_7">
      <!-- 6 -->
      <g style="fill: #ffffff" transform="translate(527.808475 381.515312) scale(0.14 -0.14)">
       <defs>
        <path id="DejaVuSans-36" d="M 2113 2584 
Q 1688 2584 1439 2293 
Q 1191 2003 1191 1497 
Q 1191 994 1439 701 
Q 1688 409 2113 409 
Q 2538 409 2786 701 
Q 3034 994 3034 1497 
Q 3034 2003 2786 2293 
Q 2538 2584 2113 2584 
z
M 3366 4563 
L 3366 3988 
Q 3128 4100 2886 4159 
Q 2644 4219 2406 4219 
Q 1781 4219 1451 3797 
Q 1122 3375 1075 2522 
Q 1259 2794 1537 2939 
Q 1816 3084 2150 3084 
Q 2853 3084 3261 2657 
Q 3669 2231 3669 1497 
Q 3669 778 3244 343 
Q 2819 -91 2113 -91 
Q 1303 -91 875 529 
Q 447 1150 447 2328 
Q 447 3434 972 4092 
Q 1497 4750 2381 4750 
Q 2619 4750 2861 4703 
Q 3103 4656 3366 4563 
z
" transform="scale(0.015625)"/>
       </defs>
       <use xlink:href="#DejaVuSans-36"/>
      </g>
     </g>
    </g>
    <g id="xtick_8">
     <g id="line2d_15">
      <path d="M 602.720258 363.8775 
L 602.720258 39.3575 
" clip-path="url(#p733b1da262)" style="fill: none; stroke-dasharray: 2.96,1.28; stroke-dashoffset: 0; stroke: #ffffff; stroke-opacity: 0.3; stroke-width: 0.8"/>
     </g>
     <g id="line2d_16">
      <g>
       <use xlink:href="#m0c2c83a81d" x="602.720258" y="363.8775" style="fill: #ffffff; stroke: #ffffff; stroke-width: 0.8"/>
      </g>
     </g>
     <g id="text_8">
      <!-- 7 -->
      <g style="fill: #ffffff" transform="translate(598.266508 381.515312) scale(0.14 -0.14)">
       <defs>
        <path id="DejaVuSans-37" d="M 525 4666 
L 3525 4666 
L 3525 4397 
L 1831 0 
L 1172 0 
L 2766 4134 
L 525 4134 
L 525 4666 
z
" transform="scale(0.015625)"/>
       </defs>
       <use xlink:href="#DejaVuSans-37"/>
      </g>
     </g>
    </g>
    <g id="xtick_9">
     <g id="line2d_17">
      <path d="M 673.17829 363.8775 
L 673.17829 39.3575 
" clip-path="url(#p733b1da262)" style="fill: none; stroke-dasharray: 2.96,1.28; stroke-dashoffset: 0; stroke: #ffffff; stroke-opacity: 0.3; stroke-width: 0.8"/>
     </g>
     <g id="line2d_18">
      <g>
       <use xlink:href="#m0c2c83a81d" x="673.17829" y="363.8775" style="fill: #ffffff; stroke: #ffffff; stroke-width: 0.8"/>
      </g>
     </g>
     <g id="text_9">
      <!-- 8 -->
      <g style="fill: #ffffff" transform="translate(668.72454 381.515312) scale(0.14 -0.14)">
       <defs>
        <path id="DejaVuSans-38" d="M 2034 2216 
Q 1584 2216 1326 1975 
Q 1069 1734 1069 1313 
Q 1069 891 1326 650 
Q 1584 409 2034 409 
Q 2484 409 2743 651 
Q 3003 894 3003 1313 
Q 3003 1734 2745 1975 
Q 2488 2216 2034 2216 
z
M 1403 2484 
Q 997 2584 770 2862 
Q 544 3141 544 3541 
Q 544 4100 942 4425 
Q 1341 4750 2034 4750 
Q 2731 4750 3128 4425 
Q 3525 4100 3525 3541 
Q 3525 3141 3298 2862 
Q 3072 2584 2669 2484 
Q 3125 2378 3379 2068 
Q 3634 1759 3634 1313 
Q 3634 634 3220 271 
Q 2806 -91 2034 -91 
Q 1263 -91 848 271 
Q 434 634 434 1313 
Q 434 1759 690 2068 
Q 947 2378 1403 2484 
z
M 1172 3481 
Q 1172 3119 1398 2916 
Q 1625 2713 2034 2713 
Q 2441 2713 2670 2916 
Q 2900 3119 2900 3481 
Q 2900 3844 2670 4047 
Q 2441 4250 2034 4250 
Q 1625 4250 1398 4047 
Q 1172 3844 1172 3481 
z
" transform="scale(0.015625)"/>
       </defs>
       <use xlink:href="#DejaVuSans-38"/>
      </g>
     </g>
    </g>
    <g id="text_10">
     <!-- Step -->
     <g style="fill: #ffffff" transform="translate(377.611094 415.064687) scale(0.14 -0.14)">
      <defs>
       <path id="DejaVuSans-53" d="M 3425 4513 
L 3425 3897 
Q 3066 4069 2747 4153 
Q 2428 4238 2131 4238 
Q 1616 4238 1336 4038 
Q 1056 3838 1056 3469 
Q 1056 3159 1242 3001 
Q 1428 2844 1947 2747 
L 2328 2669 
Q 3034 2534 3370 2195 
Q 3706 1856 3706 1288 
Q 3706 609 3251 259 
Q 2797 -91 1919 -91 
Q 1588 -91 1214 -16 
Q 841 59 441 206 
L 441 856 
Q 825 641 1194 531 
Q 1563 422 1919 422 
Q 2459 422 2753 634 
Q 3047 847 3047 1241 
Q 3047 1584 2836 1778 
Q 2625 1972 2144 2069 
L 1759 2144 
Q 1053 2284 737 2584 
Q 422 2884 422 3419 
Q 422 4038 858 4394 
Q 1294 4750 2059 4750 
Q 2388 4750 2728 4690 
Q 3069 4631 3425 4513 
z
" transform="scale(0.015625)"/>
       <path id="DejaVuSans-74" d="M 1172 4494 
L 1172 3500 
L 2356 3500 
L 2356 3053 
L 1172 3053 
L 1172 1153 
Q 1172 725 1289 603 
Q 1406 481 1766 481 
L 2356 481 
L 2356 0 
L 1766 0 
Q 1100 0 847 248 
Q 594 497 594 1153 
L 594 3053 
L 172 3053 
L 172 3500 
L 594 3500 
L 594 4494 
L 1172 4494 
z
" transform="scale(0.015625)"/>
       <path id="DejaVuSans-65" d="M 3597 1894 
L 3597 1613 
L 953 1613 
Q 991 1019 1311 708 
Q 1631 397 2203 397 
Q 2534 397 2845 478 
Q 3156 559 3463 722 
L 3463 178 
Q 3153 47 2828 -22 
Q 2503 -91 2169 -91 
Q 1331 -91 842 396 
Q 353 884 353 1716 
Q 353 2575 817 3079 
Q 1281 3584 2069 3584 
Q 2775 3584 3186 3129 
Q 3597 2675 3597 1894 
z
M 3022 2063 
Q 3016 2534 2758 2815 
Q 2500 3097 2075 3097 
Q 1594 3097 1305 2825 
Q 1016 2553 972 2059 
L 3022 2063 
z
" transform="scale(0.015625)"/>
       <path id="DejaVuSans-70" d="M 1159 525 
L 1159 -1331 
L 581 -1331 
L 581 3500 
L 1159 3500 
L 1159 2969 
Q 1341 3281 1617 3432 
Q 1894 3584 2278 3584 
Q 2916 3584 3314 3078 
Q 3713 2572 3713 1747 
Q 3713 922 3314 415 
Q 2916 -91 2278 -91 
Q 1894 -91 1617 61 
Q 1341 213 1159 525 
z
M 3116 1747 
Q 3116 2381 2855 2742 
Q 2594 3103 2138 3103 
Q 1681 3103 1420 2742 
Q 1159 2381 1159 1747 
Q 1159 1113 1420 752 
Q 1681 391 2138 391 
Q 2594 391 2855 752 
Q 3116 1113 3116 1747 
z
" transform="scale(0.015625)"/>
      </defs>
      <use xlink:href="#DejaVuSans-53"/>
      <use xlink:href="#DejaVuSans-74" transform="translate(63.476562 0)"/>
      <use xlink:href="#DejaVuSans-65" transform="translate(102.685547 0)"/>
      <use xlink:href="#DejaVuSans-70" transform="translate(164.208984 0)"/>
     </g>
    </g>
    <g id="text_11">
     <!-- 1e7 -->
     <g style="fill: #ffffff" transform="translate(686.477188 395.025312) scale(0.1 -0.1)">
      <use xlink:href="#DejaVuSans-31"/>
      <use xlink:href="#DejaVuSans-65" transform="translate(63.623047 0)"/>
      <use xlink:href="#DejaVuSans-37" transform="translate(125.146484 0)"/>
     </g>
    </g>
   </g>
   <g id="matplotlib.axis_2">
    <g id="ytick_1">
     <g id="line2d_19">
      <path d="M 81.745313 353.769253 
L 705.355313 353.769253 
" clip-path="url(#p733b1da262)" style="fill: none; stroke-dasharray: 2.96,1.28; stroke-dashoffset: 0; stroke: #ffffff; stroke-opacity: 0.3; stroke-width: 0.8"/>
     </g>
     <g id="line2d_20">
      <defs>
       <path id="mef07807193" d="M 0 0 
L -3.5 0 
" style="stroke: #ffffff; stroke-width: 0.8"/>
      </defs>
      <g>
       <use xlink:href="#mef07807193" x="81.745313" y="353.769253" style="fill: #ffffff; stroke: #ffffff; stroke-width: 0.8"/>
      </g>
     </g>
     <g id="text_12">
      <!-- −0.9 -->
      <g style="fill: #ffffff" transform="translate(40.749375 359.088159) scale(0.14 -0.14)">
       <defs>
        <path id="DejaVuSans-2212" d="M 678 2272 
L 4684 2272 
L 4684 1741 
L 678 1741 
L 678 2272 
z
" transform="scale(0.015625)"/>
        <path id="DejaVuSans-2e" d="M 684 794 
L 1344 794 
L 1344 0 
L 684 0 
L 684 794 
z
" transform="scale(0.015625)"/>
        <path id="DejaVuSans-39" d="M 703 97 
L 703 672 
Q 941 559 1184 500 
Q 1428 441 1663 441 
Q 2288 441 2617 861 
Q 2947 1281 2994 2138 
Q 2813 1869 2534 1725 
Q 2256 1581 1919 1581 
Q 1219 1581 811 2004 
Q 403 2428 403 3163 
Q 403 3881 828 4315 
Q 1253 4750 1959 4750 
Q 2769 4750 3195 4129 
Q 3622 3509 3622 2328 
Q 3622 1225 3098 567 
Q 2575 -91 1691 -91 
Q 1453 -91 1209 -44 
Q 966 3 703 97 
z
M 1959 2075 
Q 2384 2075 2632 2365 
Q 2881 2656 2881 3163 
Q 2881 3666 2632 3958 
Q 2384 4250 1959 4250 
Q 1534 4250 1286 3958 
Q 1038 3666 1038 3163 
Q 1038 2656 1286 2365 
Q 1534 2075 1959 2075 
z
" transform="scale(0.015625)"/>
       </defs>
       <use xlink:href="#DejaVuSans-2212"/>
       <use xlink:href="#DejaVuSans-30" transform="translate(83.789062 0)"/>
       <use xlink:href="#DejaVuSans-2e" transform="translate(147.412109 0)"/>
       <use xlink:href="#DejaVuSans-39" transform="translate(179.199219 0)"/>
      </g>
     </g>
    </g>
    <g id="ytick_2">
     <g id="line2d_21">
      <path d="M 81.745313 293.903065 
L 705.355313 293.903065 
" clip-path="url(#p733b1da262)" style="fill: none; stroke-dasharray: 2.96,1.28; stroke-dashoffset: 0; stroke: #ffffff; stroke-opacity: 0.3; stroke-width: 0.8"/>
     </g>
     <g id="line2d_22">
      <g>
       <use xlink:href="#mef07807193" x="81.745313" y="293.903065" style="fill: #ffffff; stroke: #ffffff; stroke-width: 0.8"/>
      </g>
     </g>
     <g id="text_13">
      <!-- −0.8 -->
      <g style="fill: #ffffff" transform="translate(40.749375 299.221971) scale(0.14 -0.14)">
       <use xlink:href="#DejaVuSans-2212"/>
       <use xlink:href="#DejaVuSans-30" transform="translate(83.789062 0)"/>
       <use xlink:href="#DejaVuSans-2e" transform="translate(147.412109 0)"/>
       <use xlink:href="#DejaVuSans-38" transform="translate(179.199219 0)"/>
      </g>
     </g>
    </g>
    <g id="ytick_3">
     <g id="line2d_23">
      <path d="M 81.745313 234.036877 
L 705.355313 234.036877 
" clip-path="url(#p733b1da262)" style="fill: none; stroke-dasharray: 2.96,1.28; stroke-dashoffset: 0; stroke: #ffffff; stroke-opacity: 0.3; stroke-width: 0.8"/>
     </g>
     <g id="line2d_24">
      <g>
       <use xlink:href="#mef07807193" x="81.745313" y="234.036877" style="fill: #ffffff; stroke: #ffffff; stroke-width: 0.8"/>
      </g>
     </g>
     <g id="text_14">
      <!-- −0.7 -->
      <g style="fill: #ffffff" transform="translate(40.749375 239.355783) scale(0.14 -0.14)">
       <use xlink:href="#DejaVuSans-2212"/>
       <use xlink:href="#DejaVuSans-30" transform="translate(83.789062 0)"/>
       <use xlink:href="#DejaVuSans-2e" transform="translate(147.412109 0)"/>
       <use xlink:href="#DejaVuSans-37" transform="translate(179.199219 0)"/>
      </g>
     </g>
    </g>
    <g id="ytick_4">
     <g id="line2d_25">
      <path d="M 81.745313 174.170689 
L 705.355313 174.170689 
" clip-path="url(#p733b1da262)" style="fill: none; stroke-dasharray: 2.96,1.28; stroke-dashoffset: 0; stroke: #ffffff; stroke-opacity: 0.3; stroke-width: 0.8"/>
     </g>
     <g id="line2d_26">
      <g>
       <use xlink:href="#mef07807193" x="81.745313" y="174.170689" style="fill: #ffffff; stroke: #ffffff; stroke-width: 0.8"/>
      </g>
     </g>
     <g id="text_15">
      <!-- −0.6 -->
      <g style="fill: #ffffff" transform="translate(40.749375 179.489595) scale(0.14 -0.14)">
       <use xlink:href="#DejaVuSans-2212"/>
       <use xlink:href="#DejaVuSans-30" transform="translate(83.789062 0)"/>
       <use xlink:href="#DejaVuSans-2e" transform="translate(147.412109 0)"/>
       <use xlink:href="#DejaVuSans-36" transform="translate(179.199219 0)"/>
      </g>
     </g>
    </g>
    <g id="ytick_5">
     <g id="line2d_27">
      <path d="M 81.745313 114.304501 
L 705.355313 114.304501 
" clip-path="url(#p733b1da262)" style="fill: none; stroke-dasharray: 2.96,1.28; stroke-dashoffset: 0; stroke: #ffffff; stroke-opacity: 0.3; stroke-width: 0.8"/>
     </g>
     <g id="line2d_28">
      <g>
       <use xlink:href="#mef07807193" x="81.745313" y="114.304501" style="fill: #ffffff; stroke: #ffffff; stroke-width: 0.8"/>
      </g>
     </g>
     <g id="text_16">
      <!-- −0.5 -->
      <g style="fill: #ffffff" transform="translate(40.749375 119.623407) scale(0.14 -0.14)">
       <use xlink:href="#DejaVuSans-2212"/>
       <use xlink:href="#DejaVuSans-30" transform="translate(83.789062 0)"/>
       <use xlink:href="#DejaVuSans-2e" transform="translate(147.412109 0)"/>
       <use xlink:href="#DejaVuSans-35" transform="translate(179.199219 0)"/>
      </g>
     </g>
    </g>
    <g id="ytick_6">
     <g id="line2d_29">
      <path d="M 81.745313 54.438313 
L 705.355313 54.438313 
" clip-path="url(#p733b1da262)" style="fill: none; stroke-dasharray: 2.96,1.28; stroke-dashoffset: 0; stroke: #ffffff; stroke-opacity: 0.3; stroke-width: 0.8"/>
     </g>
     <g id="line2d_30">
      <g>
       <use xlink:href="#mef07807193" x="81.745313" y="54.438313" style="fill: #ffffff; stroke: #ffffff; stroke-width: 0.8"/>
      </g>
     </g>
     <g id="text_17">
      <!-- −0.4 -->
      <g style="fill: #ffffff" transform="translate(40.749375 59.757219) scale(0.14 -0.14)">
       <use xlink:href="#DejaVuSans-2212"/>
       <use xlink:href="#DejaVuSans-30" transform="translate(83.789062 0)"/>
       <use xlink:href="#DejaVuSans-2e" transform="translate(147.412109 0)"/>
       <use xlink:href="#DejaVuSans-34" transform="translate(179.199219 0)"/>
      </g>
     </g>
    </g>
    <g id="text_18">
     <!-- Cumulative Reward -->
     <g style="fill: #ffffff" transform="translate(17.837813 269.864219) rotate(-90) scale(0.14 -0.14)">
      <defs>
       <path id="DejaVuSans-43" d="M 4122 4306 
L 4122 3641 
Q 3803 3938 3442 4084 
Q 3081 4231 2675 4231 
Q 1875 4231 1450 3742 
Q 1025 3253 1025 2328 
Q 1025 1406 1450 917 
Q 1875 428 2675 428 
Q 3081 428 3442 575 
Q 3803 722 4122 1019 
L 4122 359 
Q 3791 134 3420 21 
Q 3050 -91 2638 -91 
Q 1578 -91 968 557 
Q 359 1206 359 2328 
Q 359 3453 968 4101 
Q 1578 4750 2638 4750 
Q 3056 4750 3426 4639 
Q 3797 4528 4122 4306 
z
" transform="scale(0.015625)"/>
       <path id="DejaVuSans-75" d="M 544 1381 
L 544 3500 
L 1119 3500 
L 1119 1403 
Q 1119 906 1312 657 
Q 1506 409 1894 409 
Q 2359 409 2629 706 
Q 2900 1003 2900 1516 
L 2900 3500 
L 3475 3500 
L 3475 0 
L 2900 0 
L 2900 538 
Q 2691 219 2414 64 
Q 2138 -91 1772 -91 
Q 1169 -91 856 284 
Q 544 659 544 1381 
z
M 1991 3584 
L 1991 3584 
z
" transform="scale(0.015625)"/>
       <path id="DejaVuSans-6d" d="M 3328 2828 
Q 3544 3216 3844 3400 
Q 4144 3584 4550 3584 
Q 5097 3584 5394 3201 
Q 5691 2819 5691 2113 
L 5691 0 
L 5113 0 
L 5113 2094 
Q 5113 2597 4934 2840 
Q 4756 3084 4391 3084 
Q 3944 3084 3684 2787 
Q 3425 2491 3425 1978 
L 3425 0 
L 2847 0 
L 2847 2094 
Q 2847 2600 2669 2842 
Q 2491 3084 2119 3084 
Q 1678 3084 1418 2786 
Q 1159 2488 1159 1978 
L 1159 0 
L 581 0 
L 581 3500 
L 1159 3500 
L 1159 2956 
Q 1356 3278 1631 3431 
Q 1906 3584 2284 3584 
Q 2666 3584 2933 3390 
Q 3200 3197 3328 2828 
z
" transform="scale(0.015625)"/>
       <path id="DejaVuSans-6c" d="M 603 4863 
L 1178 4863 
L 1178 0 
L 603 0 
L 603 4863 
z
" transform="scale(0.015625)"/>
       <path id="DejaVuSans-61" d="M 2194 1759 
Q 1497 1759 1228 1600 
Q 959 1441 959 1056 
Q 959 750 1161 570 
Q 1363 391 1709 391 
Q 2188 391 2477 730 
Q 2766 1069 2766 1631 
L 2766 1759 
L 2194 1759 
z
M 3341 1997 
L 3341 0 
L 2766 0 
L 2766 531 
Q 2569 213 2275 61 
Q 1981 -91 1556 -91 
Q 1019 -91 701 211 
Q 384 513 384 1019 
Q 384 1609 779 1909 
Q 1175 2209 1959 2209 
L 2766 2209 
L 2766 2266 
Q 2766 2663 2505 2880 
Q 2244 3097 1772 3097 
Q 1472 3097 1187 3025 
Q 903 2953 641 2809 
L 641 3341 
Q 956 3463 1253 3523 
Q 1550 3584 1831 3584 
Q 2591 3584 2966 3190 
Q 3341 2797 3341 1997 
z
" transform="scale(0.015625)"/>
       <path id="DejaVuSans-69" d="M 603 3500 
L 1178 3500 
L 1178 0 
L 603 0 
L 603 3500 
z
M 603 4863 
L 1178 4863 
L 1178 4134 
L 603 4134 
L 603 4863 
z
" transform="scale(0.015625)"/>
       <path id="DejaVuSans-76" d="M 191 3500 
L 800 3500 
L 1894 563 
L 2988 3500 
L 3597 3500 
L 2284 0 
L 1503 0 
L 191 3500 
z
" transform="scale(0.015625)"/>
       <path id="DejaVuSans-20" transform="scale(0.015625)"/>
       <path id="DejaVuSans-52" d="M 2841 2188 
Q 3044 2119 3236 1894 
Q 3428 1669 3622 1275 
L 4263 0 
L 3584 0 
L 2988 1197 
Q 2756 1666 2539 1819 
Q 2322 1972 1947 1972 
L 1259 1972 
L 1259 0 
L 628 0 
L 628 4666 
L 2053 4666 
Q 2853 4666 3247 4331 
Q 3641 3997 3641 3322 
Q 3641 2881 3436 2590 
Q 3231 2300 2841 2188 
z
M 1259 4147 
L 1259 2491 
L 2053 2491 
Q 2509 2491 2742 2702 
Q 2975 2913 2975 3322 
Q 2975 3731 2742 3939 
Q 2509 4147 2053 4147 
L 1259 4147 
z
" transform="scale(0.015625)"/>
       <path id="DejaVuSans-77" d="M 269 3500 
L 844 3500 
L 1563 769 
L 2278 3500 
L 2956 3500 
L 3675 769 
L 4391 3500 
L 4966 3500 
L 4050 0 
L 3372 0 
L 2619 2869 
L 1863 0 
L 1184 0 
L 269 3500 
z
" transform="scale(0.015625)"/>
       <path id="DejaVuSans-72" d="M 2631 2963 
Q 2534 3019 2420 3045 
Q 2306 3072 2169 3072 
Q 1681 3072 1420 2755 
Q 1159 2438 1159 1844 
L 1159 0 
L 581 0 
L 581 3500 
L 1159 3500 
L 1159 2956 
Q 1341 3275 1631 3429 
Q 1922 3584 2338 3584 
Q 2397 3584 2469 3576 
Q 2541 3569 2628 3553 
L 2631 2963 
z
" transform="scale(0.015625)"/>
       <path id="DejaVuSans-64" d="M 2906 2969 
L 2906 4863 
L 3481 4863 
L 3481 0 
L 2906 0 
L 2906 525 
Q 2725 213 2448 61 
Q 2172 -91 1784 -91 
Q 1150 -91 751 415 
Q 353 922 353 1747 
Q 353 2572 751 3078 
Q 1150 3584 1784 3584 
Q 2172 3584 2448 3432 
Q 2725 3281 2906 2969 
z
M 947 1747 
Q 947 1113 1208 752 
Q 1469 391 1925 391 
Q 2381 391 2643 752 
Q 2906 1113 2906 1747 
Q 2906 2381 2643 2742 
Q 2381 3103 1925 3103 
Q 1469 3103 1208 2742 
Q 947 2381 947 1747 
z
" transform="scale(0.015625)"/>
      </defs>
      <use xlink:href="#DejaVuSans-43"/>
      <use xlink:href="#DejaVuSans-75" transform="translate(69.824219 0)"/>
      <use xlink:href="#DejaVuSans-6d" transform="translate(133.203125 0)"/>
      <use xlink:href="#DejaVuSans-75" transform="translate(230.615234 0)"/>
      <use xlink:href="#DejaVuSans-6c" transform="translate(293.994141 0)"/>
      <use xlink:href="#DejaVuSans-61" transform="translate(321.777344 0)"/>
      <use xlink:href="#DejaVuSans-74" transform="translate(383.056641 0)"/>
      <use xlink:href="#DejaVuSans-69" transform="translate(422.265625 0)"/>
      <use xlink:href="#DejaVuSans-76" transform="translate(450.048828 0)"/>
      <use xlink:href="#DejaVuSans-65" transform="translate(509.228516 0)"/>
      <use xlink:href="#DejaVuSans-20" transform="translate(570.751953 0)"/>
      <use xlink:href="#DejaVuSans-52" transform="translate(602.539062 0)"/>
      <use xlink:href="#DejaVuSans-65" transform="translate(667.521484 0)"/>
      <use xlink:href="#DejaVuSans-77" transform="translate(729.044922 0)"/>
      <use xlink:href="#DejaVuSans-61" transform="translate(810.832031 0)"/>
      <use xlink:href="#DejaVuSans-72" transform="translate(872.111328 0)"/>
      <use xlink:href="#DejaVuSans-64" transform="translate(911.474609 0)"/>
     </g>
    </g>
   </g>
   <g id="line2d_31">
    <path d="M 110.091222 340.776227 
L 111.70736 348.235693 
L 112.746306 343.285279 
L 114.247005 342.364942 
L 115.055075 339.064155 
L 115.170513 337.642686 
L 116.786651 349.126591 
L 116.90209 347.323991 
L 117.363843 336.066174 
L 117.825597 335.381702 
L 118.518228 330.882322 
L 119.09542 322.722827 
L 119.903489 336.977269 
L 121.057873 335.481472 
L 121.519627 346.177353 
L 121.981381 343.4729 
L 123.597519 346.750208 
L 124.405588 325.417966 
L 124.636465 338.390067 
L 126.252603 331.415748 
L 126.598919 321.435633 
L 127.753303 336.98883 
L 128.099618 329.488222 
L 128.330495 337.77557 
L 128.561372 325.415432 
L 129.48488 337.63191 
L 130.062072 326.488421 
L 131.67821 328.769245 
L 133.063471 325.00183 
L 133.294348 319.947258 
L 134.217856 337.37906 
L 136.064871 328.647994 
L 137.796447 309.733848 
L 137.911886 312.701605 
L 139.412586 335.773145 
L 139.528024 332.769169 
L 140.913285 314.740462 
L 141.259601 323.621468 
L 142.183108 327.648334 
L 142.529423 316.489573 
L 143.106616 322.942277 
L 143.683808 323.341749 
L 145.184508 321.009435 
L 146.108015 321.333437 
L 146.338892 327.477055 
L 146.45433 325.426601 
L 146.800646 336.951898 
L 149.45573 323.180711 
L 149.571168 318.177772 
L 150.95643 316.320828 
L 151.64906 324.515078 
L 151.764499 330.343437 
L 151.879937 322.743666 
L 153.265198 320.872127 
L 154.188706 316.645971 
L 154.65046 318.152937 
L 154.881337 329.217709 
L 156.035721 323.321267 
L 156.266598 327.795312 
L 157.536421 310.694506 
L 158.229051 310.530864 
L 158.34449 317.156167 
L 160.076066 313.22222 
L 160.306943 318.2607 
L 161.115012 329.201116 
L 162.846589 319.852484 
L 163.308343 320.283606 
L 163.885535 316.275938 
L 164.347289 317.80674 
L 164.462727 316.000965 
L 165.039919 311.469541 
L 165.155358 306.519841 
L 165.847988 315.934987 
L 168.503073 316.549092 
L 168.733949 314.926692 
L 168.849388 312.364793 
L 168.964826 313.591326 
L 169.311142 308.407902 
L 169.542019 321.059962 
L 171.158157 311.846247 
L 171.504472 298.940302 
L 171.735349 314.647079 
L 171.966226 304.145065 
L 172.42798 308.761021 
L 172.658856 309.601142 
L 173.351487 305.052984 
L 173.813241 301.017947 
L 174.736748 320.950023 
L 175.198502 303.540416 
L 177.045517 310.330325 
L 177.738148 312.145521 
L 178.199902 308.437697 
L 178.430778 313.11956 
L 180.50867 305.13038 
L 181.547616 301.969006 
L 182.124809 307.86502 
L 182.240247 306.427494 
L 183.163754 309.2259 
L 183.856385 303.700133 
L 183.971824 306.218677 
L 185.587962 307.248061 
L 186.626908 303.258627 
L 187.550415 300.38732 
L 187.665854 296.144858 
L 189.512869 301.614817 
L 189.743746 294.837111 
L 192.860584 296.586828 
L 193.09146 303.341376 
L 193.322337 299.413102 
L 193.668653 301.248852 
L 194.014968 308.258961 
L 194.130406 300.689306 
L 195.515668 305.462874 
L 197.824436 307.001491 
L 199.094259 291.382673 
L 199.209698 305.496238 
L 199.902328 300.253224 
L 200.594959 293.755915 
L 202.441974 299.075755 
L 202.557413 301.248566 
L 202.788289 299.502881 
L 204.173551 304.879171 
L 205.67425 305.429368 
L 206.597758 297.502205 
L 206.944073 285.740686 
L 208.560211 306.003365 
L 209.137404 305.088524 
L 209.599157 301.653354 
L 210.17635 290.368989 
L 211.907926 304.157768 
L 213.177749 302.799993 
L 213.639503 290.14572 
L 216.987218 294.262543 
L 217.218094 292.935669 
L 218.372479 299.650359 
L 219.180548 290.579305 
L 220.796686 295.488719 
L 224.95247 295.477657 
L 225.298785 287.745002 
L 225.529662 295.44201 
L 226.799485 289.742288 
L 227.607554 295.354158 
L 228.069308 297.12243 
L 228.300185 296.092297 
L 229.339131 286.170702 
L 231.532461 293.921913 
L 233.148599 300.794285 
L 233.264038 294.554894 
L 233.494915 290.5848 
L 233.956668 302.297326 
L 234.995614 296.22957 
L 236.380876 294.892741 
L 236.842629 294.755932 
L 237.073506 279.064463 
L 237.419822 287.419965 
L 237.650698 285.609051 
L 237.881575 271.249665 
L 239.03596 292.178797 
L 239.497714 291.026163 
L 240.305783 295.293711 
L 241.113852 284.673442 
L 241.921921 290.642036 
L 242.499113 295.907566 
L 242.614551 292.05305 
L 243.999813 286.253201 
L 245.154197 286.388155 
L 245.385074 285.707322 
L 245.500512 290.512756 
L 246.308582 287.949251 
L 246.885774 296.128373 
L 247.347527 293.646903 
L 247.462966 289.125221 
L 249.771735 296.861017 
L 250.233488 289.443229 
L 251.041558 292.965714 
L 253.234888 287.326904 
L 253.465765 296.370268 
L 254.042957 295.881303 
L 254.158395 298.013971 
L 254.389272 285.999745 
L 254.735588 299.187122 
L 255.197341 291.669243 
L 255.889972 301.933359 
L 256.351726 295.340134 
L 256.928918 281.239308 
L 257.621549 282.018411 
L 258.545056 285.411867 
L 259.468564 282.92972 
L 260.392071 284.702239 
L 261.431017 293.66032 
L 262.239086 296.91761 
L 262.585402 299.254705 
L 262.70084 288.951267 
L 263.739786 285.413615 
L 264.89417 287.581788 
L 266.625747 286.37877 
L 267.087501 282.822564 
L 268.357324 289.282405 
L 268.472762 293.426703 
L 268.934516 283.292438 
L 270.435216 284.258841 
L 273.205738 277.997362 
L 275.629945 292.260297 
L 275.745384 284.568677 
L 277.823276 293.434768 
L 277.938714 287.340249 
L 278.28503 282.221305 
L 279.785729 288.209381 
L 280.016606 287.36826 
L 281.286429 284.114254 
L 281.632744 271.173946 
L 282.094498 282.807969 
L 283.018006 290.299336 
L 283.826075 290.003595 
L 283.941513 283.562844 
L 284.287828 284.560256 
L 284.634144 298.90205 
L 286.019405 284.653924 
L 286.712036 275.877219 
L 287.173789 282.673801 
L 288.328174 288.459733 
L 288.674489 284.246531 
L 290.290627 283.259467 
L 290.636943 276.130283 
L 291.214135 291.054496 
L 291.56045 285.124048 
L 292.599396 288.691851 
L 293.869219 283.957998 
L 294.446411 279.737873 
L 294.677288 286.581128 
L 297.447811 285.430993 
L 298.371318 277.655518 
L 298.602195 280.221449 
L 299.641141 286.612744 
L 299.75658 298.912791 
L 300.564649 282.19836 
L 301.488156 274.958881 
L 302.411664 276.527542 
L 303.219733 278.48233 
L 303.45061 267.952768 
L 304.14324 291.463066 
L 305.182186 276.671559 
L 306.105694 279.082947 
L 306.336571 291.543746 
L 306.682886 287.161727 
L 307.029201 284.213667 
L 307.14464 274.945892 
L 307.952709 273.263687 
L 308.529901 276.887941 
L 310.376916 286.409814 
L 312.108493 277.814237 
L 313.378315 278.580851 
L 314.5327 283.499399 
L 314.763577 272.101348 
L 315.571646 281.296222 
L 316.148838 273.45584 
L 316.495153 279.478529 
L 317.418661 274.216638 
L 319.611991 277.495587 
L 320.881814 284.743631 
L 322.844268 286.537417 
L 323.306021 278.073545 
L 324.344967 278.98018 
L 324.92216 277.978735 
L 325.153036 287.780364 
L 327.577244 274.42335 
L 328.847067 282.969399 
L 329.193382 277.866833 
L 329.886013 279.312281 
L 330.001451 270.576398 
L 331.733028 279.28948 
L 331.848466 279.05151 
L 333.118289 272.797774 
L 333.580043 277.983267 
L 334.157235 267.834193 
L 334.388112 272.292787 
L 335.427058 266.728947 
L 335.888811 272.924056 
L 336.00425 267.855888 
L 336.235127 283.401913 
L 336.581442 266.805951 
L 337.851265 266.150882 
L 338.082142 274.858576 
L 339.005649 277.353533 
L 339.121088 271.597504 
L 339.467403 274.463672 
L 343.507748 278.468842 
L 348.58704 270.01753 
L 349.625986 263.664952 
L 350.78037 253.343137 
L 351.703878 278.991063 
L 352.050193 270.060707 
L 352.396508 273.9741 
L 353.089139 272.352628 
L 353.666331 262.162661 
L 354.243523 266.627964 
L 354.358962 272.777755 
L 355.167031 274.503208 
L 356.552292 271.992622 
L 360.015446 267.310259 
L 362.093337 265.104869 
L 364.632983 276.866959 
L 364.86386 261.548235 
L 365.325614 255.595628 
L 366.479998 269.319535 
L 367.749821 272.021989 
L 368.096136 266.989504 
L 368.673329 278.331676 
L 370.174028 260.331444 
L 372.944551 271.848213 
L 375.715073 265.666021 
L 376.984896 269.148577 
L 377.331212 263.366392 
L 377.908404 272.318872 
L 378.831911 267.278501 
L 379.986296 255.504529 
L 381.14068 268.574295 
L 381.948749 273.325383 
L 385.411902 273.525386 
L 385.873656 282.0066 
L 385.989095 272.682232 
L 386.450848 259.009673 
L 390.260317 284.033967 
L 390.837509 262.312066 
L 391.414701 254.397534 
L 392.915401 259.853291 
L 393.838909 260.839356 
L 394.185224 264.956214 
L 396.493993 264.910361 
L 397.4175 262.829291 
L 397.994692 258.885924 
L 398.225569 266.570586 
L 398.571885 256.603638 
L 398.802762 264.742437 
L 398.9182 261.693251 
L 400.188023 277.694342 
L 400.4189 261.022838 
L 400.649777 262.439811 
L 401.457846 253.29657 
L 401.688723 266.300965 
L 402.61223 255.098313 
L 405.729068 273.52792 
L 405.844506 272.517091 
L 407.114329 257.540067 
L 407.229768 259.819285 
L 408.384152 267.427977 
L 408.845906 252.854208 
L 409.653975 262.504719 
L 410.462044 258.290838 
L 411.962744 271.152572 
L 412.886251 249.764557 
L 413.00169 263.564719 
L 413.809759 266.461895 
L 414.156074 266.61444 
L 414.271513 268.916138 
L 414.386951 259.446897 
L 414.733266 269.939313 
L 416.926597 268.500895 
L 417.850104 269.301872 
L 417.965543 267.363177 
L 418.311858 278.631342 
L 419.119927 262.161448 
L 419.466242 261.582455 
L 419.697119 268.446121 
L 420.043435 264.13347 
L 420.505188 261.461668 
L 421.544134 263.972504 
L 422.236765 275.687813 
L 422.813957 261.396297 
L 423.275711 272.138351 
L 424.660972 270.299462 
L 424.776411 266.504964 
L 425.238164 257.788528 
L 425.815357 258.16031 
L 425.930795 258.560174 
L 426.046234 264.848558 
L 426.392549 254.390255 
L 427.431495 274.051176 
L 427.546933 271.893708 
L 427.662372 263.78135 
L 428.239564 256.932635 
L 428.816756 258.695091 
L 429.163071 254.78102 
L 429.740264 275.686886 
L 430.317456 274.109089 
L 431.125525 252.384726 
L 432.510786 269.543945 
L 434.242363 255.968444 
L 435.627624 260.827473 
L 436.782009 266.920458 
L 437.936393 256.925213 
L 438.744462 272.784642 
L 439.898846 264.930415 
L 440.014285 270.247079 
L 442.207615 257.042146 
L 442.323054 269.598754 
L 443.362 274.847728 
L 443.592877 264.490336 
L 446.478838 277.084768 
L 446.825153 263.760476 
L 447.171468 258.128052 
L 448.325853 257.980646 
L 450.403744 261.880801 
L 450.75006 272.108056 
L 451.558129 264.120339 
L 451.904444 258.222041 
L 452.135321 275.157635 
L 452.827952 265.253882 
L 455.483036 254.218584 
L 455.829351 266.082049 
L 456.175667 256.309574 
L 457.099174 263.384591 
L 458.13812 256.737877 
L 459.869697 263.231189 
L 461.370396 261.169745 
L 465.52618 264.381467 
L 465.641619 270.731548 
L 467.02688 251.783253 
L 467.950387 272.953994 
L 468.065826 256.294801 
L 468.758457 247.113344 
L 469.22021 264.527625 
L 469.681964 265.785381 
L 469.797403 272.234624 
L 469.912841 260.146356 
L 470.490033 249.585821 
L 470.72091 256.21926 
L 472.683364 252.133339 
L 475.91564 254.623658 
L 476.492832 254.326311 
L 477.531778 257.152764 
L 477.878093 260.695018 
L 478.10897 254.414234 
L 478.917039 254.820628 
L 479.494232 255.352163 
L 480.879493 254.305437 
L 480.994931 260.411088 
L 481.341247 260.861872 
L 481.572123 263.321753 
L 482.380193 260.662083 
L 483.765454 267.397397 
L 483.996331 262.853627 
L 486.535976 253.964164 
L 486.882292 249.72684 
L 490.345445 261.008636 
L 491.268952 263.397472 
L 495.193859 247.910538 
L 495.771052 249.063814 
L 497.040875 250.230577 
L 498.07982 259.679051 
L 498.88789 250.080352 
L 499.118766 256.969995 
L 499.465082 259.364362 
L 499.695959 250.805931 
L 500.388589 256.334017 
L 501.312097 257.611933 
L 501.427535 247.712141 
L 502.58192 255.09578 
L 503.043673 256.563744 
L 504.198058 257.129391 
L 504.659812 254.002702 
L 505.121565 241.544079 
L 506.045073 246.768646 
L 506.622265 258.755217 
L 508.353842 250.591832 
L 509.161911 254.903127 
L 509.96998 250.77667 
L 511.586118 241.686276 
L 511.816995 256.648955 
L 511.932433 265.533922 
L 512.625064 233.435504 
L 512.855941 249.398628 
L 513.66401 256.814881 
L 514.010325 252.019082 
L 515.280148 251.358018 
L 516.665409 251.349597 
L 517.704355 248.348583 
L 518.396986 252.655632 
L 518.743301 250.961723 
L 519.435932 248.70495 
L 520.35944 253.959739 
L 521.282947 256.973706 
L 522.437331 244.161073 
L 523.360839 262.767631 
L 523.822593 243.89948 
L 525.207854 251.773083 
L 526.708554 250.496416 
L 526.939431 262.494192 
L 527.054869 254.449203 
L 528.671007 241.501224 
L 531.44153 243.744081 
L 531.787845 255.123648 
L 532.018722 256.202275 
L 532.249599 253.887446 
L 532.595914 238.360832 
L 533.057668 239.286878 
L 533.403983 243.855876 
L 533.519422 248.597294 
L 535.597314 247.566054 
L 536.751698 251.067987 
L 538.136959 254.813527 
L 538.714152 244.067369 
L 538.82959 256.054726 
L 539.175905 263.210672 
L 540.561167 255.632025 
L 541.946428 251.443943 
L 542.061866 245.2063 
L 542.292743 263.987527 
L 542.408182 263.681581 
L 542.754497 264.821332 
L 542.985374 243.749041 
L 543.793443 254.052158 
L 544.02432 240.693574 
L 545.986773 247.176681 
L 546.21765 244.49528 
L 546.333089 245.562024 
L 546.794842 252.451382 
L 547.141158 248.652032 
L 549.796242 249.559094 
L 550.950626 248.613423 
L 552.797641 258.623618 
L 553.836587 231.375915 
L 554.067464 231.554152 
L 554.298341 246.246425 
L 554.875533 257.040005 
L 555.221849 253.44337 
L 556.260795 238.093745 
L 556.60711 239.942554 
L 560.070263 243.951863 
L 560.762894 242.268445 
L 561.109209 239.715467 
L 561.570963 249.003117 
L 562.263593 248.047954 
L 563.417978 237.779448 
L 563.648855 255.635593 
L 563.99517 249.716599 
L 565.957624 244.760476 
L 566.419377 239.39671 
L 567.458323 251.556809 
L 568.497269 233.786089 
L 569.305338 250.877939 
L 569.767092 247.54807 
L 570.459723 243.827472 
L 572.306738 244.030615 
L 572.768492 254.89699 
L 572.999368 244.03397 
L 574.038314 254.958686 
L 574.615507 251.652796 
L 575.308137 240.126785 
L 576.000768 249.518986 
L 576.808837 255.634487 
L 581.080059 243.651269 
L 581.541813 243.432247 
L 582.003567 237.895311 
L 583.96602 246.371779 
L 584.658651 242.815751 
L 585.351282 237.900057 
L 585.697597 250.89967 
L 588.237243 244.704382 
L 589.045312 232.075231 
L 589.391627 242.301915 
L 590.66145 242.573677 
L 591.815834 254.852564 
L 591.931273 246.546697 
L 592.277588 241.528878 
L 593.547411 244.807506 
L 595.278987 247.602308 
L 596.895126 241.051475 
L 597.587756 241.101681 
L 597.818633 245.098609 
L 598.626702 242.473801 
L 599.781087 216.22697 
L 600.127402 236.198155 
L 600.473717 242.562437 
L 600.589156 233.089414 
L 601.050909 243.83418 
L 602.205294 239.670934 
L 603.705994 247.194594 
L 603.821432 249.910037 
L 605.783886 244.846401 
L 607.053708 240.396192 
L 608.092654 247.409085 
L 608.669847 239.079952 
L 609.247039 235.378659 
L 609.939669 237.620052 
L 610.978615 246.074575 
L 612.941069 249.984757 
L 614.788084 235.855063 
L 615.134399 244.992773 
L 616.981414 240.78685 
L 617.904922 237.371092 
L 618.366676 236.128466 
L 618.712991 232.806983 
L 619.059306 241.782799 
L 619.174745 250.342158 
L 620.098252 234.331076 
L 620.329129 240.646544 
L 621.598952 230.394917 
L 622.522459 256.157743 
L 623.792282 242.473872 
L 624.254036 228.727342 
L 625.177544 235.262403 
L 627.832628 244.371888 
L 628.525258 243.447626 
L 628.987012 228.809913 
L 630.718589 239.37134 
L 631.411219 242.65846 
L 631.757535 233.427225 
L 631.988412 232.186455 
L 632.796481 229.545625 
L 633.142796 240.339385 
L 633.60455 229.187832 
L 634.066304 243.634284 
L 634.181742 235.975493 
L 636.259634 227.023834 
L 636.490511 236.137387 
L 636.952265 239.145859 
L 637.644895 235.3074 
L 638.568403 219.142845 
L 639.722787 237.911868 
L 641.338925 227.775355 
L 641.685241 239.307681 
L 642.031556 245.06082 
L 645.725586 234.081366 
L 646.302778 233.883326 
L 646.418217 244.23276 
L 646.87997 234.835492 
L 647.341724 218.416089 
L 647.457163 237.068357 
L 647.803478 226.307283 
L 648.38067 245.649091 
L 649.650493 232.193235 
L 650.574001 233.827125 
L 651.035754 225.853966 
L 651.266631 244.003282 
L 651.959262 232.669496 
L 652.882769 231.364639 
L 652.998208 219.038508 
L 653.690838 239.675966 
L 654.037154 226.968704 
L 656.461361 235.235784 
L 659.001007 233.78848 
L 659.809076 228.336898 
L 660.501706 228.521629 
L 661.078899 231.292452 
L 662.579598 230.099818 
L 664.195737 232.229774 
L 664.542052 230.392562 
L 664.888367 234.279514 
L 665.119244 229.464054 
L 665.350121 245.349282 
L 667.197136 244.383449 
L 667.65889 231.508549 
L 667.774328 233.846394 
L 667.889767 232.710674 
L 668.813274 219.473698 
L 670.891166 242.838588 
L 673.199935 254.122739 
L 674.700635 234.207827 
L 676.432211 218.598036 
L 676.432211 218.598036 
" clip-path="url(#p733b1da262)" style="fill: none; stroke: #cf3030; stroke-width: 2; stroke-linecap: square"/>
   </g>
   <g id="line2d_32">
    <path d="M 110.091222 293.958416 
L 111.361044 275.014617 
L 111.822798 299.346982 
L 112.630867 294.202488 
L 112.746306 295.332962 
L 114.247005 279.787223 
L 115.055075 289.878669 
L 115.170513 275.206913 
L 115.285951 276.106625 
L 115.863144 286.110148 
L 116.786651 269.452668 
L 116.90209 279.275028 
L 117.248405 297.53382 
L 117.363843 278.139131 
L 117.710159 278.634589 
L 117.825597 266.670998 
L 118.518228 278.510662 
L 119.09542 284.062192 
L 119.903489 266.870751 
L 121.057873 276.800268 
L 121.519627 265.473083 
L 121.981381 269.082528 
L 123.597519 272.443691 
L 124.059273 269.062617 
L 124.174711 275.187038 
L 124.405588 272.244794 
L 124.636465 272.066628 
L 125.329096 276.385167 
L 126.252603 271.799006 
L 126.48348 268.475132 
L 126.598919 274.972155 
L 126.945234 278.309446 
L 127.753303 272.224169 
L 128.099618 263.546806 
L 128.330495 270.572473 
L 128.561372 267.593225 
L 129.369441 270.019386 
L 129.48488 271.584194 
L 130.062072 264.773338 
L 130.870141 261.731931 
L 130.985579 271.061437 
L 131.67821 262.102678 
L 131.793648 262.629752 
L 133.063471 261.855716 
L 133.294348 255.97294 
L 134.217856 260.0711 
L 134.448733 255.593344 
L 135.487679 256.728956 
L 136.064871 261.569217 
L 137.911886 247.385034 
L 139.412586 259.564294 
L 139.643462 248.963223 
L 140.913285 250.913943 
L 141.259601 249.992536 
L 141.721354 243.190209 
L 142.183108 249.772693 
L 142.529423 245.976233 
L 142.875739 247.173541 
L 143.106616 237.921503 
L 143.683808 239.64064 
L 143.914685 240.96084 
L 144.030123 240.204788 
L 145.184508 248.915979 
L 145.646261 242.417957 
L 146.108015 243.980338 
L 146.338892 241.064285 
L 146.45433 241.838036 
L 146.800646 253.816686 
L 148.532222 245.390531 
L 149.571168 243.974914 
L 151.64906 223.389589 
L 151.764499 235.728424 
L 151.879937 228.641988 
L 153.265198 222.358136 
L 154.188706 238.003609 
L 154.65046 219.452431 
L 154.881337 233.667622 
L 155.458529 228.043584 
L 156.035721 224.140753 
L 156.266598 218.193641 
L 157.536421 219.016206 
L 158.229051 230.454865 
L 158.34449 226.604416 
L 159.960628 223.963907 
L 160.076066 213.507388 
L 160.306943 211.626286 
L 160.768697 226.183428 
L 160.884135 219.763694 
L 161.115012 223.619388 
L 161.807643 207.129547 
L 162.269397 222.008049 
L 162.846589 197.583587 
L 163.308343 221.166073 
L 163.654658 200.970549 
L 163.885535 204.827171 
L 164.347289 210.181802 
L 164.462727 218.083523 
L 165.039919 215.97826 
L 165.155358 220.276102 
L 165.847988 211.638526 
L 166.078865 198.271342 
L 166.656057 216.776703 
L 168.503073 213.479449 
L 168.733949 214.106364 
L 168.964826 221.619747 
L 169.311142 204.468842 
L 169.542019 211.484411 
L 171.158157 196.794314 
L 171.273595 194.608871 
L 171.504472 183.701818 
L 171.735349 207.866401 
L 171.966226 195.26394 
L 172.42798 197.427295 
L 172.658856 188.452229 
L 173.12061 195.958047 
L 173.351487 204.600476 
L 173.813241 195.329133 
L 174.505871 189.90335 
L 174.736748 202.803443 
L 175.198502 202.322543 
L 177.045517 183.264523 
L 177.160956 183.518622 
L 177.507271 197.86063 
L 177.738148 198.341138 
L 178.430778 192.158554 
L 179.81604 184.973954 
L 180.393232 167.841818 
L 180.50867 188.027244 
L 181.432178 189.641045 
L 181.547616 186.537156 
L 182.124809 199.72018 
L 182.240247 194.240837 
L 182.702001 188.408196 
L 183.163754 175.125617 
L 183.856385 184.116919 
L 183.971824 174.533385 
L 184.549016 174.52814 
L 184.779893 181.351948 
L 185.587962 183.362259 
L 185.818839 180.236461 
L 186.626908 183.53707 
L 187.550415 180.143257 
L 187.665854 177.163974 
L 188.589361 177.15491 
L 189.512869 165.810348 
L 189.743746 173.849663 
L 191.590761 179.314697 
L 192.860584 176.287135 
L 193.09146 167.88785 
L 193.322337 163.873223 
L 193.437776 157.134376 
L 193.784091 183.743889 
L 194.130406 169.705757 
L 194.245845 164.783676 
L 194.823037 162.52626 
L 195.515668 168.992775 
L 197.824436 163.94987 
L 198.747944 160.585532 
L 199.094259 174.925613 
L 199.209698 167.913862 
L 199.440575 182.950477 
L 199.671452 153.493066 
L 199.902328 169.899552 
L 200.594959 165.638891 
L 202.441974 151.603328 
L 202.557413 151.636085 
L 202.788289 163.865088 
L 203.134605 147.309268 
L 204.058112 153.691392 
L 204.173551 156.329403 
L 205.212497 160.957599 
L 205.67425 158.232664 
L 206.597758 166.404613 
L 206.944073 150.362273 
L 207.17495 148.781443 
L 208.560211 151.818747 
L 208.906527 140.651065 
L 209.137404 154.68206 
L 209.599157 158.201013 
L 210.17635 142.641357 
L 211.907926 141.104668 
L 212.600557 141.900828 
L 212.946872 146.621478 
L 213.177749 146.514393 
L 213.639503 146.795183 
L 213.754941 153.241643 
L 214.447572 139.798669 
L 216.756341 143.513308 
L 216.987218 152.462576 
L 217.218094 136.388263 
L 218.372479 155.444821 
L 219.180548 152.471461 
L 219.873179 127.72107 
L 220.796686 143.707638 
L 222.643701 130.069941 
L 222.990017 146.824372 
L 223.45177 136.33556 
L 224.144401 135.0823 
L 224.375278 132.475691 
L 224.95247 128.887976 
L 225.298785 139.739935 
L 225.529662 126.583209 
L 226.799485 133.003728 
L 227.607554 116.429711 
L 228.300185 131.964282 
L 229.223692 133.339648 
L 229.339131 123.034818 
L 231.532461 112.306679 
L 231.994215 130.914416 
L 233.148599 114.889239 
L 233.264038 133.190636 
L 233.494915 147.785173 
L 233.956668 135.390209 
L 234.995614 120.606909 
L 236.380876 123.722073 
L 236.842629 126.132854 
L 237.073506 128.357798 
L 237.419822 128.575536 
L 237.650698 124.221207 
L 237.881575 128.926585 
L 239.03596 127.873972 
L 239.151398 130.469555 
L 239.497714 125.913832 
L 239.613152 129.976273 
L 239.959467 131.065355 
L 240.305783 111.285663 
L 240.536659 112.753003 
L 241.113852 124.8736 
L 241.921921 112.623723 
L 242.499113 118.618044 
L 242.614551 110.317922 
L 243.999813 108.469005 
L 245.154197 110.818608 
L 245.385074 123.843288 
L 245.500512 117.347906 
L 246.308582 122.728836 
L 246.885774 124.239084 
L 247.347527 114.359453 
L 247.462966 114.581009 
L 248.848227 108.534502 
L 249.771735 114.472853 
L 250.233488 106.135532 
L 250.810681 127.467863 
L 251.041558 127.229786 
L 251.503311 109.150676 
L 253.234888 110.867708 
L 253.465765 104.566442 
L 253.927519 129.026284 
L 254.042957 103.770746 
L 254.158395 107.995206 
L 254.389272 99.744309 
L 254.735588 120.778401 
L 255.197341 112.934665 
L 255.889972 115.756515 
L 256.351726 109.733612 
L 256.928918 110.587739 
L 257.621549 110.740355 
L 257.967864 110.367075 
L 258.545056 99.544894 
L 258.891372 105.291699 
L 259.468564 108.407952 
L 259.584002 120.766091 
L 259.930317 100.498773 
L 260.392071 100.554884 
L 261.431017 102.851551 
L 262.239086 116.889058 
L 262.585402 95.502721 
L 262.70084 97.780743 
L 263.739786 105.664319 
L 264.89417 104.296072 
L 265.240486 110.098221 
L 265.933116 96.1701 
L 266.625747 105.885447 
L 267.087501 101.421928 
L 268.357324 104.401782 
L 268.472762 100.346852 
L 268.934516 100.087865 
L 269.627147 115.299094 
L 270.0889 96.244856 
L 270.435216 95.419222 
L 273.205738 107.627011 
L 275.399069 87.318871 
L 275.629945 91.512395 
L 275.860822 118.535723 
L 276.899768 102.541644 
L 277.823276 90.904463 
L 277.938714 95.98478 
L 278.169591 117.605359 
L 278.28503 102.62334 
L 280.016606 99.494777 
L 281.286429 96.783688 
L 281.632744 97.113756 
L 282.094498 97.833625 
L 282.556252 98.096788 
L 283.018006 101.119443 
L 283.826075 113.383022 
L 284.056952 94.906511 
L 284.287828 90.462439 
L 284.634144 98.354223 
L 286.019405 83.323086 
L 286.712036 109.202863 
L 287.058351 88.684336 
L 287.173789 90.152782 
L 288.328174 92.541511 
L 288.674489 103.153126 
L 289.944312 95.302093 
L 290.290627 83.453044 
L 290.636943 88.677806 
L 291.214135 91.861803 
L 291.56045 99.406319 
L 292.599396 94.232869 
L 293.869219 101.007648 
L 294.446411 101.684092 
L 294.677288 97.813429 
L 297.447811 93.452927 
L 298.371318 105.901933 
L 298.602195 77.850201 
L 298.94851 99.813569 
L 299.641141 97.291654 
L 299.75658 105.137584 
L 300.564649 95.439187 
L 301.488156 101.287992 
L 301.94991 96.138592 
L 302.411664 97.493066 
L 302.873417 83.702611 
L 303.219733 88.331449 
L 303.45061 97.469123 
L 304.14324 89.501549 
L 304.374117 94.367429 
L 305.182186 104.407099 
L 306.105694 92.997094 
L 306.336571 103.287776 
L 306.682886 97.364054 
L 306.913763 85.8751 
L 307.14464 89.521067 
L 307.952709 68.357713 
L 308.414463 99.767824 
L 308.529901 87.729369 
L 309.33797 92.854487 
L 310.261478 96.925064 
L 310.376916 89.383831 
L 310.83867 114.355349 
L 311.069547 91.524794 
L 312.108493 84.946182 
L 313.378315 97.782045 
L 314.5327 100.157375 
L 314.763577 84.362158 
L 315.571646 79.088849 
L 315.687084 88.871743 
L 316.148838 99.072772 
L 316.495153 93.384237 
L 316.956907 88.680607 
L 317.418661 88.235551 
L 319.611991 92.665474 
L 320.073745 89.769296 
L 320.535499 101.904702 
L 320.881814 86.000919 
L 321.574445 94.655909 
L 321.805322 88.331841 
L 322.844268 100.019086 
L 323.306021 86.492007 
L 324.344967 95.663633 
L 324.92216 76.988474 
L 325.153036 99.770393 
L 327.000051 78.911076 
L 327.577244 104.462479 
L 328.385313 89.899272 
L 328.847067 89.062915 
L 329.193382 94.059877 
L 329.886013 83.716099 
L 330.001451 99.203657 
L 330.463205 88.175532 
L 331.040397 92.882177 
L 331.733028 76.14796 
L 331.848466 85.609387 
L 333.00285 93.216741 
L 333.118289 84.325743 
L 333.580043 83.530957 
L 333.695481 94.730807 
L 334.157235 83.546819 
L 334.388112 81.736511 
L 335.080742 87.256141 
L 335.427058 73.454588 
L 335.888811 84.848464 
L 336.00425 84.84056 
L 336.350565 91.264166 
L 336.581442 88.165255 
L 337.851265 87.386455 
L 338.082142 79.524931 
L 339.005649 90.920574 
L 339.121088 90.211641 
L 339.467403 97.191313 
L 343.507748 81.144637 
L 344.546694 77.926973 
L 344.662133 82.616401 
L 345.931956 92.081949 
L 346.740025 86.329934 
L 346.855463 77.693606 
L 348.240725 81.398218 
L 348.58704 72.031477 
L 349.625986 104.566852 
L 350.78037 87.388935 
L 351.703878 81.705931 
L 351.819316 100.126313 
L 352.050193 89.130053 
L 352.396508 79.820975 
L 353.089139 75.208159 
L 353.78177 90.072834 
L 354.243523 90.641854 
L 354.358962 92.623475 
L 355.167031 80.76968 
L 356.205977 86.009304 
L 356.552292 93.646971 
L 357.706677 107.47923 
L 358.861061 96.686701 
L 360.015446 89.413965 
L 362.093337 84.581448 
L 362.901407 87.345776 
L 363.709476 90.844497 
L 363.940352 79.599722 
L 364.632983 82.975069 
L 364.86386 100.621665 
L 365.210175 89.436713 
L 365.325614 97.053951 
L 366.018244 82.172915 
L 366.479998 85.323762 
L 367.749821 91.841107 
L 368.096136 98.00196 
L 368.673329 85.531312 
L 370.174028 86.796418 
L 372.944551 95.65234 
L 375.137881 97.38186 
L 375.715073 91.024376 
L 375.830512 79.608465 
L 376.984896 90.853632 
L 377.331212 91.331696 
L 377.908404 98.951004 
L 378.831911 91.985141 
L 379.178227 95.248996 
L 379.986296 93.139862 
L 380.101734 93.878233 
L 380.217173 96.851254 
L 380.448049 90.914026 
L 381.14068 77.2078 
L 381.948749 81.361768 
L 383.564887 78.570463 
L 384.83471 102.479092 
L 385.411902 71.326951 
L 385.873656 85.169183 
L 385.989095 74.339455 
L 386.33541 84.549333 
L 386.450848 98.377934 
L 389.914002 98.013521 
L 390.260317 69.847569 
L 390.722071 76.31758 
L 390.837509 87.884447 
L 391.414701 81.533243 
L 391.53014 96.359167 
L 392.915401 91.259188 
L 393.838909 90.801089 
L 394.069785 80.755763 
L 394.185224 65.815369 
L 395.570485 77.691983 
L 396.493993 90.419209 
L 397.4175 70.669277 
L 398.571885 82.12931 
L 398.802762 81.797512 
L 398.9182 79.570373 
L 399.726269 89.484885 
L 400.188023 89.049909 
L 400.4189 96.881923 
L 400.649777 78.132811 
L 400.880653 89.031496 
L 401.457846 87.255017 
L 401.688723 85.504086 
L 402.61223 87.991051 
L 405.729068 85.651421 
L 405.844506 87.65522 
L 406.075383 85.52373 
L 407.114329 81.686502 
L 407.229768 82.973838 
L 408.037837 80.751571 
L 408.384152 90.118009 
L 408.499591 83.159765 
L 408.845906 84.36603 
L 409.653975 80.5799 
L 409.884852 80.314739 
L 410.462044 81.256396 
L 411.847305 80.818583 
L 411.962744 83.301391 
L 412.886251 70.134442 
L 413.00169 66.881934 
L 413.809759 81.292668 
L 414.156074 67.326634 
L 414.386951 77.67514 
L 414.733266 103.125472 
L 416.926597 69.260815 
L 417.850104 86.446975 
L 418.311858 76.094115 
L 419.119927 67.00463 
L 419.466242 90.318405 
L 419.697119 66.75922 
L 420.043435 73.027212 
L 420.505188 94.374709 
L 421.544134 78.902815 
L 422.236765 77.391121 
L 422.698519 86.031606 
L 422.813957 84.206616 
L 423.391149 69.168967 
L 423.506588 79.084299 
L 424.08378 78.234704 
L 424.660972 68.908266 
L 424.776411 84.546496 
L 425.238164 70.752776 
L 425.815357 74.243129 
L 425.930795 71.64701 
L 426.046234 79.717994 
L 426.392549 91.668882 
L 427.546933 65.071663 
L 427.662372 71.886479 
L 428.239564 93.811042 
L 428.816756 65.608425 
L 429.163071 85.374325 
L 429.509387 66.940044 
L 429.740264 66.965736 
L 429.971141 78.081909 
L 430.317456 85.603499 
L 431.125525 74.280846 
L 432.510786 76.554729 
L 432.741663 94.994113 
L 434.242363 80.593798 
L 434.357801 82.203923 
L 435.627624 84.932105 
L 437.012885 83.247456 
L 437.243762 75.368554 
L 437.936393 78.943083 
L 438.744462 78.365875 
L 438.8599 81.422822 
L 439.437093 92.260382 
L 439.898846 84.51249 
L 440.014285 70.329432 
L 440.476039 82.803006 
L 441.976738 70.199243 
L 442.207615 81.463857 
L 442.323054 69.173088 
L 443.362 69.684033 
L 443.592877 80.046884 
L 443.823753 66.889892 
L 444.747261 68.722197 
L 445.670768 79.672873 
L 446.017084 67.114445 
L 446.132522 86.715971 
L 446.478838 76.070207 
L 446.709714 76.643651 
L 446.825153 77.897071 
L 447.171468 72.745958 
L 447.864099 64.689765 
L 448.325853 79.571908 
L 448.441291 73.914631 
L 450.057429 89.844338 
L 450.403744 74.713074 
L 450.75006 80.492833 
L 451.558129 75.247838 
L 451.904444 79.860744 
L 452.135321 73.266609 
L 452.827952 74.451982 
L 454.097775 88.536287 
L 454.328651 69.454591 
L 455.136721 79.004744 
L 455.483036 84.802968 
L 455.713913 65.978351 
L 455.829351 74.695162 
L 456.175667 85.008877 
L 457.099174 76.935949 
L 458.13812 70.190072 
L 458.715312 72.397656 
L 459.292504 84.950107 
L 459.869697 84.106239 
L 461.601273 79.25547 
L 462.755658 84.045203 
L 463.563727 84.956423 
L 463.910042 87.720341 
L 464.487234 87.60157 
L 465.52618 74.504775 
L 465.641619 88.597858 
L 466.334249 71.75215 
L 467.02688 92.651522 
L 467.373195 75.654125 
L 467.834949 78.963048 
L 467.950387 73.579781 
L 468.065826 90.281366 
L 468.296703 85.121243 
L 468.758457 78.413654 
L 469.104772 75.112778 
L 469.22021 66.577647 
L 469.681964 73.522118 
L 469.912841 86.255125 
L 470.490033 76.239898 
L 470.72091 65.95232 
L 471.875294 73.56235 
L 472.683364 81.030077 
L 473.491433 79.465661 
L 473.837748 88.438284 
L 475.91564 78.304179 
L 476.492832 81.260339 
L 477.531778 79.235345 
L 477.878093 70.091194 
L 478.10897 86.898829 
L 479.378793 80.890859 
L 479.494232 88.622872 
L 480.417739 90.147108 
L 480.879493 85.799131 
L 480.994931 73.407236 
L 481.341247 85.956636 
L 481.572123 65.578451 
L 482.380193 68.184686 
L 482.841946 83.586837 
L 483.3037 76.890471 
L 483.765454 80.921582 
L 483.996331 78.930755 
L 484.688961 78.622882 
L 486.535976 73.801569 
L 486.882292 58.866224 
L 487.228607 84.123082 
L 487.690361 63.342588 
L 488.267553 82.951679 
L 489.191061 79.683702 
L 489.883691 79.511425 
L 490.345445 77.94899 
L 491.268952 91.7871 
L 492.19246 82.434454 
L 493.69316 84.57449 
L 494.501229 70.369451 
L 495.193859 84.091217 
L 495.771052 64.074215 
L 497.040875 94.309926 
L 497.964382 76.808418 
L 498.07982 70.864356 
L 498.657013 80.595957 
L 498.88789 74.247197 
L 499.118766 82.215057 
L 499.465082 75.618353 
L 499.695959 68.483478 
L 500.273151 90.610452 
L 500.388589 77.966278 
L 501.312097 62.877424 
L 501.427535 76.28427 
L 501.773851 72.848172 
L 502.58192 76.475281 
L 502.928235 67.435985 
L 503.159112 82.244584 
L 504.198058 83.854174 
L 504.659812 78.015896 
L 505.121565 76.82997 
L 505.929634 69.641214 
L 506.045073 74.693038 
L 506.622265 80.952983 
L 508.353842 70.887443 
L 508.46928 76.114811 
L 508.931034 78.453816 
L 509.161911 71.641354 
L 509.96998 74.240595 
L 510.431734 87.255623 
L 511.47068 74.854201 
L 511.586118 80.453153 
L 511.701556 70.789922 
L 511.932433 81.816013 
L 512.394187 75.667025 
L 512.625064 87.366794 
L 513.202256 77.213384 
L 513.548572 84.043384 
L 513.66401 73.604706 
L 514.010325 55.406397 
L 515.280148 80.461949 
L 515.972779 72.125448 
L 516.665409 89.992886 
L 517.704355 73.865692 
L 517.819794 80.490317 
L 518.396986 71.398175 
L 518.743301 76.527735 
L 519.435932 75.590699 
L 519.897686 79.609339 
L 520.35944 79.295079 
L 521.282947 63.78529 
L 521.629262 91.741622 
L 522.321893 69.882181 
L 522.437331 74.225252 
L 523.360839 74.075508 
L 523.707154 67.026986 
L 523.822593 69.241689 
L 524.168908 62.871893 
L 525.207854 73.697 
L 526.708554 85.235536 
L 526.939431 76.735553 
L 527.054869 84.303334 
L 527.401184 84.35247 
L 528.671007 68.603337 
L 531.44153 71.574734 
L 531.787845 80.254399 
L 532.018722 68.444262 
L 532.249599 70.438141 
L 532.595914 78.734926 
L 532.826791 77.066691 
L 533.057668 54.108409 
L 533.403983 83.671156 
L 533.519422 71.004323 
L 535.597314 82.300803 
L 536.751698 64.997674 
L 537.559767 66.844753 
L 538.021521 71.02939 
L 538.136959 74.249124 
L 538.714152 78.443575 
L 538.82959 88.060686 
L 539.175905 75.150156 
L 540.445728 78.41328 
L 540.561167 68.89931 
L 542.061866 81.612638 
L 542.292743 75.539975 
L 542.408182 85.943202 
L 542.754497 70.455375 
L 542.869935 77.957179 
L 542.985374 73.2204 
L 543.793443 72.919306 
L 544.02432 83.331471 
L 544.255197 65.379839 
L 545.640458 72.608115 
L 545.986773 80.498756 
L 546.102212 92.389251 
L 546.333089 80.015091 
L 546.794842 70.844053 
L 547.141158 89.702302 
L 548.872734 74.150621 
L 549.103611 76.539938 
L 549.796242 70.201277 
L 550.027119 71.34829 
L 550.488873 80.60775 
L 550.950626 75.275528 
L 551.066065 75.839802 
L 552.797641 63.943936 
L 553.836587 74.444381 
L 554.067464 81.40548 
L 554.298341 66.91619 
L 554.644656 85.609083 
L 554.875533 78.377382 
L 555.221849 80.444732 
L 556.260795 71.817218 
L 556.60711 73.314728 
L 556.953425 92.208588 
L 559.493071 67.599752 
L 560.070263 84.920348 
L 560.762894 90.079757 
L 561.109209 74.705742 
L 561.570963 72.24165 
L 562.263593 69.489935 
L 562.609909 76.863851 
L 562.840786 71.87622 
L 563.071663 84.009449 
L 563.417978 86.669226 
L 563.648855 65.940937 
L 563.99517 68.045219 
L 565.957624 63.971234 
L 566.073062 80.024404 
L 566.419377 83.169274 
L 567.342885 74.209819 
L 567.458323 74.592341 
L 568.497269 74.774645 
L 568.612708 73.042038 
L 569.1899 67.700307 
L 569.305338 79.027545 
L 569.420777 64.795583 
L 569.767092 65.029842 
L 570.459723 60.099019 
L 571.036915 72.51971 
L 571.38323 74.949885 
L 572.306738 77.781369 
L 572.768492 84.807875 
L 572.999368 74.054901 
L 574.038314 79.226674 
L 574.615507 65.565088 
L 575.423576 86.511008 
L 576.000768 71.321456 
L 576.808837 82.404926 
L 577.616906 61.803169 
L 578.309537 65.166187 
L 578.655852 82.915068 
L 578.886729 64.608212 
L 579.002167 75.244662 
L 579.810236 86.269648 
L 580.733744 68.272199 
L 580.849182 77.118004 
L 581.080059 74.652306 
L 581.541813 73.446541 
L 582.003567 88.284651 
L 582.580759 75.35528 
L 583.96602 86.52157 
L 584.658651 69.643604 
L 585.351282 76.663063 
L 585.697597 71.844195 
L 586.390228 60.0719 
L 587.775489 94.299721 
L 589.045312 65.100174 
L 589.391627 83.337716 
L 590.66145 80.778208 
L 591.815834 69.576574 
L 591.931273 70.731384 
L 592.277588 80.337737 
L 592.970219 82.824184 
L 593.547411 77.337169 
L 595.278987 68.150091 
L 595.394426 64.213486 
L 596.317933 66.135981 
L 596.895126 78.783884 
L 597.587756 71.690454 
L 597.818633 75.253012 
L 597.934072 74.410911 
L 598.626702 78.234115 
L 599.781087 75.387484 
L 600.127402 79.449765 
L 600.358279 76.97429 
L 600.589156 65.975871 
L 601.050909 82.75817 
L 602.205294 67.633294 
L 602.320732 60.886632 
L 602.551609 75.020305 
L 603.705994 73.333087 
L 603.821432 62.661845 
L 605.783886 78.978588 
L 606.591955 80.098018 
L 607.053708 67.254947 
L 608.092654 84.120352 
L 608.669847 73.632503 
L 609.247039 66.989269 
L 609.939669 74.254833 
L 610.978615 71.057116 
L 611.440369 78.473334 
L 611.902123 63.723736 
L 612.248438 69.160313 
L 612.941069 72.002324 
L 613.518261 82.722701 
L 614.210892 74.738177 
L 614.788084 75.619316 
L 615.134399 77.145533 
L 615.249838 87.243331 
L 616.057907 89.229876 
L 616.981414 74.981232 
L 617.904922 70.705549 
L 618.366676 62.436328 
L 618.712991 75.715036 
L 619.059306 73.96721 
L 619.174745 83.287421 
L 620.329129 82.949895 
L 621.598952 68.074532 
L 622.522459 78.769628 
L 623.21509 80.836782 
L 624.254036 57.425271 
L 625.177544 70.357568 
L 625.985613 69.123328 
L 627.832628 72.664547 
L 628.525258 77.728611 
L 628.987012 73.386825 
L 630.718589 67.82261 
L 631.411219 76.726686 
L 631.757535 68.358444 
L 631.988412 59.605059 
L 632.681042 64.746466 
L 632.796481 82.31215 
L 633.142796 79.753909 
L 633.60455 69.294821 
L 634.066304 70.130285 
L 634.181742 69.850834 
L 634.29718 82.250151 
L 634.528057 74.246162 
L 635.220688 77.08737 
L 636.028757 71.406168 
L 636.259634 77.654873 
L 636.490511 89.111266 
L 636.952265 63.685734 
L 637.414018 65.785912 
L 637.644895 76.108656 
L 638.568403 69.220975 
L 639.722787 85.664624 
L 641.338925 71.292035 
L 641.685241 75.607719 
L 642.031556 85.960347 
L 643.18594 66.388045 
L 643.647694 75.703296 
L 643.994009 73.872971 
L 645.725586 78.10091 
L 646.302778 59.502077 
L 646.418217 60.594834 
L 646.87997 70.008713 
L 647.341724 69.367453 
L 647.457163 70.150446 
L 647.572601 61.996803 
L 647.803478 71.955775 
L 648.38067 74.87743 
L 649.650493 58.643579 
L 650.574001 61.096805 
L 651.035754 69.281975 
L 651.266631 65.811765 
L 651.959262 68.762216 
L 652.882769 64.794941 
L 652.998208 67.429455 
L 653.690838 78.477777 
L 654.037154 79.415884 
L 654.960661 68.203063 
L 655.0761 60.217647 
L 655.653292 66.046648 
L 655.999607 55.545507 
L 656.115046 63.549603 
L 656.461361 62.293132 
L 656.807676 73.988013 
L 657.153992 60.531943 
L 658.539253 72.194905 
L 659.001007 77.154382 
L 659.809076 83.543821 
L 661.078899 59.686755 
L 661.425214 85.649191 
L 661.540652 83.769998 
L 662.348721 57.515478 
L 662.579598 61.226174 
L 662.810475 62.808984 
L 664.080298 78.403574 
L 664.195737 67.876385 
L 664.542052 76.620796 
L 664.888367 54.723799 
L 665.119244 75.583972 
L 665.350121 67.091019 
L 666.273628 92.262077 
L 667.197136 63.724414 
L 667.428013 63.642147 
L 667.65889 72.283774 
L 667.774328 72.312695 
L 667.889767 75.80171 
L 668.697836 59.54247 
L 668.813274 61.919085 
L 670.891166 65.858367 
L 671.237481 60.606253 
L 672.507304 82.299019 
L 673.199935 65.862078 
L 674.700635 67.892174 
L 675.393265 74.77072 
L 675.508704 70.398461 
L 676.201334 55.263719 
L 676.432211 66.284868 
L 676.893965 64.428708 
L 677.009403 65.788356 
L 677.009403 65.788356 
" clip-path="url(#p733b1da262)" style="fill: none; stroke: #30a0cf; stroke-width: 2; stroke-linecap: square"/>
   </g>
   <g id="patch_3">
    <path d="M 81.745313 363.8775 
L 81.745313 39.3575 
" style="fill: none; stroke: #ffffff; stroke-width: 0.8; stroke-linejoin: miter; stroke-linecap: square"/>
   </g>
   <g id="patch_4">
    <path d="M 705.355313 363.8775 
L 705.355313 39.3575 
" style="fill: none; stroke: #ffffff; stroke-width: 0.8; stroke-linejoin: miter; stroke-linecap: square"/>
   </g>
   <g id="patch_5">
    <path d="M 81.745312 363.8775 
L 705.355313 363.8775 
" style="fill: none; stroke: #ffffff; stroke-width: 0.8; stroke-linejoin: miter; stroke-linecap: square"/>
   </g>
   <g id="patch_6">
    <path d="M 81.745312 39.3575 
L 705.355313 39.3575 
" style="fill: none; stroke: #ffffff; stroke-width: 0.8; stroke-linejoin: miter; stroke-linecap: square"/>
   </g>
   <g id="text_19">
    <!-- Training Progression -->
    <g style="fill: #ffffff" transform="translate(313.126563 19.3575) scale(0.16 -0.16)">
     <defs>
      <path id="DejaVuSans-54" d="M -19 4666 
L 3928 4666 
L 3928 4134 
L 2272 4134 
L 2272 0 
L 1638 0 
L 1638 4134 
L -19 4134 
L -19 4666 
z
" transform="scale(0.015625)"/>
      <path id="DejaVuSans-6e" d="M 3513 2113 
L 3513 0 
L 2938 0 
L 2938 2094 
Q 2938 2591 2744 2837 
Q 2550 3084 2163 3084 
Q 1697 3084 1428 2787 
Q 1159 2491 1159 1978 
L 1159 0 
L 581 0 
L 581 3500 
L 1159 3500 
L 1159 2956 
Q 1366 3272 1645 3428 
Q 1925 3584 2291 3584 
Q 2894 3584 3203 3211 
Q 3513 2838 3513 2113 
z
" transform="scale(0.015625)"/>
      <path id="DejaVuSans-67" d="M 2906 1791 
Q 2906 2416 2648 2759 
Q 2391 3103 1925 3103 
Q 1463 3103 1205 2759 
Q 947 2416 947 1791 
Q 947 1169 1205 825 
Q 1463 481 1925 481 
Q 2391 481 2648 825 
Q 2906 1169 2906 1791 
z
M 3481 434 
Q 3481 -459 3084 -895 
Q 2688 -1331 1869 -1331 
Q 1566 -1331 1297 -1286 
Q 1028 -1241 775 -1147 
L 775 -588 
Q 1028 -725 1275 -790 
Q 1522 -856 1778 -856 
Q 2344 -856 2625 -561 
Q 2906 -266 2906 331 
L 2906 616 
Q 2728 306 2450 153 
Q 2172 0 1784 0 
Q 1141 0 747 490 
Q 353 981 353 1791 
Q 353 2603 747 3093 
Q 1141 3584 1784 3584 
Q 2172 3584 2450 3431 
Q 2728 3278 2906 2969 
L 2906 3500 
L 3481 3500 
L 3481 434 
z
" transform="scale(0.015625)"/>
      <path id="DejaVuSans-50" d="M 1259 4147 
L 1259 2394 
L 2053 2394 
Q 2494 2394 2734 2622 
Q 2975 2850 2975 3272 
Q 2975 3691 2734 3919 
Q 2494 4147 2053 4147 
L 1259 4147 
z
M 628 4666 
L 2053 4666 
Q 2838 4666 3239 4311 
Q 3641 3956 3641 3272 
Q 3641 2581 3239 2228 
Q 2838 1875 2053 1875 
L 1259 1875 
L 1259 0 
L 628 0 
L 628 4666 
z
" transform="scale(0.015625)"/>
      <path id="DejaVuSans-6f" d="M 1959 3097 
Q 1497 3097 1228 2736 
Q 959 2375 959 1747 
Q 959 1119 1226 758 
Q 1494 397 1959 397 
Q 2419 397 2687 759 
Q 2956 1122 2956 1747 
Q 2956 2369 2687 2733 
Q 2419 3097 1959 3097 
z
M 1959 3584 
Q 2709 3584 3137 3096 
Q 3566 2609 3566 1747 
Q 3566 888 3137 398 
Q 2709 -91 1959 -91 
Q 1206 -91 779 398 
Q 353 888 353 1747 
Q 353 2609 779 3096 
Q 1206 3584 1959 3584 
z
" transform="scale(0.015625)"/>
      <path id="DejaVuSans-73" d="M 2834 3397 
L 2834 2853 
Q 2591 2978 2328 3040 
Q 2066 3103 1784 3103 
Q 1356 3103 1142 2972 
Q 928 2841 928 2578 
Q 928 2378 1081 2264 
Q 1234 2150 1697 2047 
L 1894 2003 
Q 2506 1872 2764 1633 
Q 3022 1394 3022 966 
Q 3022 478 2636 193 
Q 2250 -91 1575 -91 
Q 1294 -91 989 -36 
Q 684 19 347 128 
L 347 722 
Q 666 556 975 473 
Q 1284 391 1588 391 
Q 1994 391 2212 530 
Q 2431 669 2431 922 
Q 2431 1156 2273 1281 
Q 2116 1406 1581 1522 
L 1381 1569 
Q 847 1681 609 1914 
Q 372 2147 372 2553 
Q 372 3047 722 3315 
Q 1072 3584 1716 3584 
Q 2034 3584 2315 3537 
Q 2597 3491 2834 3397 
z
" transform="scale(0.015625)"/>
     </defs>
     <use xlink:href="#DejaVuSans-54"/>
     <use xlink:href="#DejaVuSans-72" transform="translate(46.333984 0)"/>
     <use xlink:href="#DejaVuSans-61" transform="translate(87.447266 0)"/>
     <use xlink:href="#DejaVuSans-69" transform="translate(148.726562 0)"/>
     <use xlink:href="#DejaVuSans-6e" transform="translate(176.509766 0)"/>
     <use xlink:href="#DejaVuSans-69" transform="translate(239.888672 0)"/>
     <use xlink:href="#DejaVuSans-6e" transform="translate(267.671875 0)"/>
     <use xlink:href="#DejaVuSans-67" transform="translate(331.050781 0)"/>
     <use xlink:href="#DejaVuSans-20" transform="translate(394.527344 0)"/>
     <use xlink:href="#DejaVuSans-50" transform="translate(426.314453 0)"/>
     <use xlink:href="#DejaVuSans-72" transform="translate(484.867188 0)"/>
     <use xlink:href="#DejaVuSans-6f" transform="translate(523.730469 0)"/>
     <use xlink:href="#DejaVuSans-67" transform="translate(584.912109 0)"/>
     <use xlink:href="#DejaVuSans-72" transform="translate(648.388672 0)"/>
     <use xlink:href="#DejaVuSans-65" transform="translate(687.251953 0)"/>
     <use xlink:href="#DejaVuSans-73" transform="translate(748.775391 0)"/>
     <use xlink:href="#DejaVuSans-73" transform="translate(800.875 0)"/>
     <use xlink:href="#DejaVuSans-69" transform="translate(852.974609 0)"/>
     <use xlink:href="#DejaVuSans-6f" transform="translate(880.757812 0)"/>
     <use xlink:href="#DejaVuSans-6e" transform="translate(941.939453 0)"/>
    </g>
   </g>
   <g id="legend_1">
    <g id="patch_7">
     <path d="M 90.145313 84.185 
L 197.937187 84.185 
Q 200.337187 84.185 200.337187 81.785 
L 200.337187 47.7575 
Q 200.337187 45.3575 197.937187 45.3575 
L 90.145313 45.3575 
Q 87.745313 45.3575 87.745313 47.7575 
L 87.745313 81.785 
Q 87.745313 84.185 90.145313 84.185 
z
" style="opacity: 0.8; stroke: #cccccc; stroke-linejoin: miter"/>
    </g>
    <g id="line2d_33">
     <path d="M 92.545313 55.075625 
L 104.545313 55.075625 
L 116.545313 55.075625 
" style="fill: none; stroke: #cf3030; stroke-width: 2; stroke-linecap: square"/>
    </g>
    <g id="text_20">
     <!-- PPO -->
     <g style="fill: #ffffff" transform="translate(126.145313 59.275625) scale(0.12 -0.12)">
      <defs>
       <path id="DejaVuSans-4f" d="M 2522 4238 
Q 1834 4238 1429 3725 
Q 1025 3213 1025 2328 
Q 1025 1447 1429 934 
Q 1834 422 2522 422 
Q 3209 422 3611 934 
Q 4013 1447 4013 2328 
Q 4013 3213 3611 3725 
Q 3209 4238 2522 4238 
z
M 2522 4750 
Q 3503 4750 4090 4092 
Q 4678 3434 4678 2328 
Q 4678 1225 4090 567 
Q 3503 -91 2522 -91 
Q 1538 -91 948 565 
Q 359 1222 359 2328 
Q 359 3434 948 4092 
Q 1538 4750 2522 4750 
z
" transform="scale(0.015625)"/>
      </defs>
      <use xlink:href="#DejaVuSans-50"/>
      <use xlink:href="#DejaVuSans-50" transform="translate(60.302734 0)"/>
      <use xlink:href="#DejaVuSans-4f" transform="translate(120.605469 0)"/>
     </g>
    </g>
    <g id="line2d_34">
     <path d="M 92.545313 72.689375 
L 104.545313 72.689375 
L 116.545313 72.689375 
" style="fill: none; stroke: #30a0cf; stroke-width: 2; stroke-linecap: square"/>
    </g>
    <g id="text_21">
     <!-- MaskedPPO -->
     <g style="fill: #ffffff" transform="translate(126.145313 76.889375) scale(0.12 -0.12)">
      <defs>
       <path id="DejaVuSans-4d" d="M 628 4666 
L 1569 4666 
L 2759 1491 
L 3956 4666 
L 4897 4666 
L 4897 0 
L 4281 0 
L 4281 4097 
L 3078 897 
L 2444 897 
L 1241 4097 
L 1241 0 
L 628 0 
L 628 4666 
z
" transform="scale(0.015625)"/>
       <path id="DejaVuSans-6b" d="M 581 4863 
L 1159 4863 
L 1159 1991 
L 2875 3500 
L 3609 3500 
L 1753 1863 
L 3688 0 
L 2938 0 
L 1159 1709 
L 1159 0 
L 581 0 
L 581 4863 
z
" transform="scale(0.015625)"/>
      </defs>
      <use xlink:href="#DejaVuSans-4d"/>
      <use xlink:href="#DejaVuSans-61" transform="translate(86.279297 0)"/>
      <use xlink:href="#DejaVuSans-73" transform="translate(147.558594 0)"/>
      <use xlink:href="#DejaVuSans-6b" transform="translate(199.658203 0)"/>
      <use xlink:href="#DejaVuSans-65" transform="translate(253.943359 0)"/>
      <use xlink:href="#DejaVuSans-64" transform="translate(315.466797 0)"/>
      <use xlink:href="#DejaVuSans-50" transform="translate(378.943359 0)"/>
      <use xlink:href="#DejaVuSans-50" transform="translate(439.246094 0)"/>
      <use xlink:href="#DejaVuSans-4f" transform="translate(499.548828 0)"/>
     </g>
    </g>
   </g>
  </g>
 </g>
 <defs>
  <clipPath id="p733b1da262">
   <rect x="81.745313" y="39.3575" width="623.61" height="324.52"/>
  </clipPath>
 </defs>
</svg>
