<?xml version="1.0" encoding="utf-8" standalone="no"?>
<!DOCTYPE svg PUBLIC "-//W3C//DTD SVG 1.1//EN"
  "http://www.w3.org/Graphics/SVG/1.1/DTD/svg11.dtd">
<svg xmlns:xlink="http://www.w3.org/1999/xlink" width="856.751875pt" height="425.17625pt" viewBox="0 0 856.751875 425.17625" xmlns="http://www.w3.org/2000/svg" version="1.1">
 <metadata>
  <rdf:RDF xmlns:dc="http://purl.org/dc/elements/1.1/" xmlns:cc="http://creativecommons.org/ns#" xmlns:rdf="http://www.w3.org/1999/02/22-rdf-syntax-ns#">
   <cc:Work>
    <dc:type rdf:resource="http://purl.org/dc/dcmitype/StillImage"/>
    <dc:date>2025-07-31T15:49:54.089137</dc:date>
    <dc:format>image/svg+xml</dc:format>
    <dc:creator>
     <cc:Agent>
      <dc:title>Matplotlib v3.10.3, https://matplotlib.org/</dc:title>
     </cc:Agent>
    </dc:creator>
   </cc:Work>
  </rdf:RDF>
 </metadata>
 <defs>
  <style type="text/css">*{stroke-linejoin: round; stroke-linecap: butt}</style>
 </defs>
 <g id="figure_1">
  <g id="patch_1">
   <path d="M 0 425.17625 
L 856.751875 425.17625 
L 856.751875 0 
L 0 0 
z
" style="fill: #121212"/>
  </g>
  <g id="axes_1">
   <g id="patch_2">
    <path d="M 74.471875 363.8775 
L 849.551875 363.8775 
L 849.551875 39.3575 
L 74.471875 39.3575 
z
"/>
   </g>
   <g id="patch_3">
    <path d="M 110.583557 363.8775 
L 115.868193 363.8775 
L 115.868193 363.8775 
L 110.583557 363.8775 
z
" clip-path="url(#pae5a226b8f)" style="fill: #cf3030; opacity: 0.6; stroke: #cf3030; stroke-width: 1.2; stroke-linejoin: miter"/>
   </g>
   <g id="patch_4">
    <path d="M 128.199011 363.8775 
L 133.483648 363.8775 
L 133.483648 363.8775 
L 128.199011 363.8775 
z
" clip-path="url(#pae5a226b8f)" style="fill: #cf3030; opacity: 0.6; stroke: #cf3030; stroke-width: 1.2; stroke-linejoin: miter"/>
   </g>
   <g id="patch_5">
    <path d="M 145.814466 363.8775 
L 151.099102 363.8775 
L 151.099102 363.8775 
L 145.814466 363.8775 
z
" clip-path="url(#pae5a226b8f)" style="fill: #cf3030; opacity: 0.6; stroke: #cf3030; stroke-width: 1.2; stroke-linejoin: miter"/>
   </g>
   <g id="patch_6">
    <path d="M 163.42992 363.8775 
L 168.714557 363.8775 
L 168.714557 363.8775 
L 163.42992 363.8775 
z
" clip-path="url(#pae5a226b8f)" style="fill: #cf3030; opacity: 0.6; stroke: #cf3030; stroke-width: 1.2; stroke-linejoin: miter"/>
   </g>
   <g id="patch_7">
    <path d="M 181.045375 363.8775 
L 186.330011 363.8775 
L 186.330011 363.8775 
L 181.045375 363.8775 
z
" clip-path="url(#pae5a226b8f)" style="fill: #cf3030; opacity: 0.6; stroke: #cf3030; stroke-width: 1.2; stroke-linejoin: miter"/>
   </g>
   <g id="patch_8">
    <path d="M 198.66083 363.8775 
L 203.945466 363.8775 
L 203.945466 363.8775 
L 198.66083 363.8775 
z
" clip-path="url(#pae5a226b8f)" style="fill: #cf3030; opacity: 0.6; stroke: #cf3030; stroke-width: 1.2; stroke-linejoin: miter"/>
   </g>
   <g id="patch_9">
    <path d="M 216.276284 363.8775 
L 221.56092 363.8775 
L 221.56092 363.8775 
L 216.276284 363.8775 
z
" clip-path="url(#pae5a226b8f)" style="fill: #cf3030; opacity: 0.6; stroke: #cf3030; stroke-width: 1.2; stroke-linejoin: miter"/>
   </g>
   <g id="patch_10">
    <path d="M 233.891739 363.8775 
L 239.176375 363.8775 
L 239.176375 363.8775 
L 233.891739 363.8775 
z
" clip-path="url(#pae5a226b8f)" style="fill: #cf3030; opacity: 0.6; stroke: #cf3030; stroke-width: 1.2; stroke-linejoin: miter"/>
   </g>
   <g id="patch_11">
    <path d="M 251.507193 363.8775 
L 256.79183 363.8775 
L 256.79183 363.8775 
L 251.507193 363.8775 
z
" clip-path="url(#pae5a226b8f)" style="fill: #cf3030; opacity: 0.6; stroke: #cf3030; stroke-width: 1.2; stroke-linejoin: miter"/>
   </g>
   <g id="patch_12">
    <path d="M 269.122648 363.8775 
L 274.407284 363.8775 
L 274.407284 363.8775 
L 269.122648 363.8775 
z
" clip-path="url(#pae5a226b8f)" style="fill: #cf3030; opacity: 0.6; stroke: #cf3030; stroke-width: 1.2; stroke-linejoin: miter"/>
   </g>
   <g id="patch_13">
    <path d="M 286.738102 363.8775 
L 292.022739 363.8775 
L 292.022739 363.8775 
L 286.738102 363.8775 
z
" clip-path="url(#pae5a226b8f)" style="fill: #cf3030; opacity: 0.6; stroke: #cf3030; stroke-width: 1.2; stroke-linejoin: miter"/>
   </g>
   <g id="patch_14">
    <path d="M 304.353557 363.8775 
L 309.638193 363.8775 
L 309.638193 363.8775 
L 304.353557 363.8775 
z
" clip-path="url(#pae5a226b8f)" style="fill: #cf3030; opacity: 0.6; stroke: #cf3030; stroke-width: 1.2; stroke-linejoin: miter"/>
   </g>
   <g id="patch_15">
    <path d="M 321.969011 363.8775 
L 327.253648 363.8775 
L 327.253648 363.8775 
L 321.969011 363.8775 
z
" clip-path="url(#pae5a226b8f)" style="fill: #cf3030; opacity: 0.6; stroke: #cf3030; stroke-width: 1.2; stroke-linejoin: miter"/>
   </g>
   <g id="patch_16">
    <path d="M 339.584466 363.8775 
L 344.869102 363.8775 
L 344.869102 363.8775 
L 339.584466 363.8775 
z
" clip-path="url(#pae5a226b8f)" style="fill: #cf3030; opacity: 0.6; stroke: #cf3030; stroke-width: 1.2; stroke-linejoin: miter"/>
   </g>
   <g id="patch_17">
    <path d="M 357.19992 363.8775 
L 362.484557 363.8775 
L 362.484557 363.8775 
L 357.19992 363.8775 
z
" clip-path="url(#pae5a226b8f)" style="fill: #cf3030; opacity: 0.6; stroke: #cf3030; stroke-width: 1.2; stroke-linejoin: miter"/>
   </g>
   <g id="patch_18">
    <path d="M 374.815375 363.8775 
L 380.100011 363.8775 
L 380.100011 363.8775 
L 374.815375 363.8775 
z
" clip-path="url(#pae5a226b8f)" style="fill: #cf3030; opacity: 0.6; stroke: #cf3030; stroke-width: 1.2; stroke-linejoin: miter"/>
   </g>
   <g id="patch_19">
    <path d="M 392.43083 363.8775 
L 397.715466 363.8775 
L 397.715466 363.8775 
L 392.43083 363.8775 
z
" clip-path="url(#pae5a226b8f)" style="fill: #cf3030; opacity: 0.6; stroke: #cf3030; stroke-width: 1.2; stroke-linejoin: miter"/>
   </g>
   <g id="patch_20">
    <path d="M 410.046284 363.8775 
L 415.33092 363.8775 
L 415.33092 363.8775 
L 410.046284 363.8775 
z
" clip-path="url(#pae5a226b8f)" style="fill: #cf3030; opacity: 0.6; stroke: #cf3030; stroke-width: 1.2; stroke-linejoin: miter"/>
   </g>
   <g id="patch_21">
    <path d="M 427.661739 363.8775 
L 432.946375 363.8775 
L 432.946375 363.8775 
L 427.661739 363.8775 
z
" clip-path="url(#pae5a226b8f)" style="fill: #cf3030; opacity: 0.6; stroke: #cf3030; stroke-width: 1.2; stroke-linejoin: miter"/>
   </g>
   <g id="patch_22">
    <path d="M 445.277193 363.8775 
L 450.56183 363.8775 
L 450.56183 363.8775 
L 445.277193 363.8775 
z
" clip-path="url(#pae5a226b8f)" style="fill: #cf3030; opacity: 0.6; stroke: #cf3030; stroke-width: 1.2; stroke-linejoin: miter"/>
   </g>
   <g id="patch_23">
    <path d="M 462.892648 363.8775 
L 468.177284 363.8775 
L 468.177284 363.8775 
L 462.892648 363.8775 
z
" clip-path="url(#pae5a226b8f)" style="fill: #cf3030; opacity: 0.6; stroke: #cf3030; stroke-width: 1.2; stroke-linejoin: miter"/>
   </g>
   <g id="patch_24">
    <path d="M 480.508102 363.8775 
L 485.792739 363.8775 
L 485.792739 363.8775 
L 480.508102 363.8775 
z
" clip-path="url(#pae5a226b8f)" style="fill: #cf3030; opacity: 0.6; stroke: #cf3030; stroke-width: 1.2; stroke-linejoin: miter"/>
   </g>
   <g id="patch_25">
    <path d="M 498.123557 363.8775 
L 503.408193 363.8775 
L 503.408193 363.8775 
L 498.123557 363.8775 
z
" clip-path="url(#pae5a226b8f)" style="fill: #cf3030; opacity: 0.6; stroke: #cf3030; stroke-width: 1.2; stroke-linejoin: miter"/>
   </g>
   <g id="patch_26">
    <path d="M 515.739011 363.8775 
L 521.023648 363.8775 
L 521.023648 363.8775 
L 515.739011 363.8775 
z
" clip-path="url(#pae5a226b8f)" style="fill: #cf3030; opacity: 0.6; stroke: #cf3030; stroke-width: 1.2; stroke-linejoin: miter"/>
   </g>
   <g id="patch_27">
    <path d="M 533.354466 363.8775 
L 538.639102 363.8775 
L 538.639102 363.8775 
L 533.354466 363.8775 
z
" clip-path="url(#pae5a226b8f)" style="fill: #cf3030; opacity: 0.6; stroke: #cf3030; stroke-width: 1.2; stroke-linejoin: miter"/>
   </g>
   <g id="patch_28">
    <path d="M 550.96992 363.8775 
L 556.254557 363.8775 
L 556.254557 363.8775 
L 550.96992 363.8775 
z
" clip-path="url(#pae5a226b8f)" style="fill: #cf3030; opacity: 0.6; stroke: #cf3030; stroke-width: 1.2; stroke-linejoin: miter"/>
   </g>
   <g id="patch_29">
    <path d="M 568.585375 363.8775 
L 573.870011 363.8775 
L 573.870011 346.041948 
L 568.585375 346.041948 
z
" clip-path="url(#pae5a226b8f)" style="fill: #cf3030; opacity: 0.6; stroke: #cf3030; stroke-width: 1.2; stroke-linejoin: miter"/>
   </g>
   <g id="patch_30">
    <path d="M 586.20083 363.8775 
L 591.485466 363.8775 
L 591.485466 352.73028 
L 586.20083 352.73028 
z
" clip-path="url(#pae5a226b8f)" style="fill: #cf3030; opacity: 0.6; stroke: #cf3030; stroke-width: 1.2; stroke-linejoin: miter"/>
   </g>
   <g id="patch_31">
    <path d="M 603.816284 363.8775 
L 609.10092 363.8775 
L 609.10092 330.435839 
L 603.816284 330.435839 
z
" clip-path="url(#pae5a226b8f)" style="fill: #cf3030; opacity: 0.6; stroke: #cf3030; stroke-width: 1.2; stroke-linejoin: miter"/>
   </g>
   <g id="patch_32">
    <path d="M 621.431739 363.8775 
L 626.716375 363.8775 
L 626.716375 310.370843 
L 621.431739 310.370843 
z
" clip-path="url(#pae5a226b8f)" style="fill: #cf3030; opacity: 0.6; stroke: #cf3030; stroke-width: 1.2; stroke-linejoin: miter"/>
   </g>
   <g id="patch_33">
    <path d="M 639.047193 363.8775 
L 644.33183 363.8775 
L 644.33183 294.764734 
L 639.047193 294.764734 
z
" clip-path="url(#pae5a226b8f)" style="fill: #cf3030; opacity: 0.6; stroke: #cf3030; stroke-width: 1.2; stroke-linejoin: miter"/>
   </g>
   <g id="patch_34">
    <path d="M 656.662648 363.8775 
L 661.947284 363.8775 
L 661.947284 239.028633 
L 656.662648 239.028633 
z
" clip-path="url(#pae5a226b8f)" style="fill: #cf3030; opacity: 0.6; stroke: #cf3030; stroke-width: 1.2; stroke-linejoin: miter"/>
   </g>
   <g id="patch_35">
    <path d="M 674.278102 363.8775 
L 679.562739 363.8775 
L 679.562739 198.89864 
L 674.278102 198.89864 
z
" clip-path="url(#pae5a226b8f)" style="fill: #cf3030; opacity: 0.6; stroke: #cf3030; stroke-width: 1.2; stroke-linejoin: miter"/>
   </g>
   <g id="patch_36">
    <path d="M 691.893557 363.8775 
L 697.178193 363.8775 
L 697.178193 185.521976 
L 691.893557 185.521976 
z
" clip-path="url(#pae5a226b8f)" style="fill: #cf3030; opacity: 0.6; stroke: #cf3030; stroke-width: 1.2; stroke-linejoin: miter"/>
   </g>
   <g id="patch_37">
    <path d="M 709.509011 363.8775 
L 714.793648 363.8775 
L 714.793648 198.89864 
L 709.509011 198.89864 
z
" clip-path="url(#pae5a226b8f)" style="fill: #cf3030; opacity: 0.6; stroke: #cf3030; stroke-width: 1.2; stroke-linejoin: miter"/>
   </g>
   <g id="patch_38">
    <path d="M 727.124466 363.8775 
L 732.409102 363.8775 
L 732.409102 241.258077 
L 727.124466 241.258077 
z
" clip-path="url(#pae5a226b8f)" style="fill: #cf3030; opacity: 0.6; stroke: #cf3030; stroke-width: 1.2; stroke-linejoin: miter"/>
   </g>
   <g id="patch_39">
    <path d="M 744.73992 363.8775 
L 750.024557 363.8775 
L 750.024557 265.781962 
L 744.73992 265.781962 
z
" clip-path="url(#pae5a226b8f)" style="fill: #cf3030; opacity: 0.6; stroke: #cf3030; stroke-width: 1.2; stroke-linejoin: miter"/>
   </g>
   <g id="patch_40">
    <path d="M 762.355375 363.8775 
L 767.640011 363.8775 
L 767.640011 323.747507 
L 762.355375 323.747507 
z
" clip-path="url(#pae5a226b8f)" style="fill: #cf3030; opacity: 0.6; stroke: #cf3030; stroke-width: 1.2; stroke-linejoin: miter"/>
   </g>
   <g id="patch_41">
    <path d="M 779.97083 363.8775 
L 785.255466 363.8775 
L 785.255466 337.124171 
L 779.97083 337.124171 
z
" clip-path="url(#pae5a226b8f)" style="fill: #cf3030; opacity: 0.6; stroke: #cf3030; stroke-width: 1.2; stroke-linejoin: miter"/>
   </g>
   <g id="patch_42">
    <path d="M 797.586284 363.8775 
L 802.87092 363.8775 
L 802.87092 354.959724 
L 797.586284 354.959724 
z
" clip-path="url(#pae5a226b8f)" style="fill: #cf3030; opacity: 0.6; stroke: #cf3030; stroke-width: 1.2; stroke-linejoin: miter"/>
   </g>
   <g id="patch_43">
    <path d="M 115.868193 363.8775 
L 121.15283 363.8775 
L 121.15283 363.8775 
L 115.868193 363.8775 
z
" clip-path="url(#pae5a226b8f)" style="fill: #aaaaaa; opacity: 0.6; stroke: #aaaaaa; stroke-width: 1.2; stroke-linejoin: miter"/>
   </g>
   <g id="patch_44">
    <path d="M 133.483648 363.8775 
L 138.768284 363.8775 
L 138.768284 363.8775 
L 133.483648 363.8775 
z
" clip-path="url(#pae5a226b8f)" style="fill: #aaaaaa; opacity: 0.6; stroke: #aaaaaa; stroke-width: 1.2; stroke-linejoin: miter"/>
   </g>
   <g id="patch_45">
    <path d="M 151.099102 363.8775 
L 156.383739 363.8775 
L 156.383739 363.8775 
L 151.099102 363.8775 
z
" clip-path="url(#pae5a226b8f)" style="fill: #aaaaaa; opacity: 0.6; stroke: #aaaaaa; stroke-width: 1.2; stroke-linejoin: miter"/>
   </g>
   <g id="patch_46">
    <path d="M 168.714557 363.8775 
L 173.999193 363.8775 
L 173.999193 363.8775 
L 168.714557 363.8775 
z
" clip-path="url(#pae5a226b8f)" style="fill: #aaaaaa; opacity: 0.6; stroke: #aaaaaa; stroke-width: 1.2; stroke-linejoin: miter"/>
   </g>
   <g id="patch_47">
    <path d="M 186.330011 363.8775 
L 191.614648 363.8775 
L 191.614648 363.8775 
L 186.330011 363.8775 
z
" clip-path="url(#pae5a226b8f)" style="fill: #aaaaaa; opacity: 0.6; stroke: #aaaaaa; stroke-width: 1.2; stroke-linejoin: miter"/>
   </g>
   <g id="patch_48">
    <path d="M 203.945466 363.8775 
L 209.230102 363.8775 
L 209.230102 363.8775 
L 203.945466 363.8775 
z
" clip-path="url(#pae5a226b8f)" style="fill: #aaaaaa; opacity: 0.6; stroke: #aaaaaa; stroke-width: 1.2; stroke-linejoin: miter"/>
   </g>
   <g id="patch_49">
    <path d="M 221.56092 363.8775 
L 226.845557 363.8775 
L 226.845557 363.8775 
L 221.56092 363.8775 
z
" clip-path="url(#pae5a226b8f)" style="fill: #aaaaaa; opacity: 0.6; stroke: #aaaaaa; stroke-width: 1.2; stroke-linejoin: miter"/>
   </g>
   <g id="patch_50">
    <path d="M 239.176375 363.8775 
L 244.461011 363.8775 
L 244.461011 363.8775 
L 239.176375 363.8775 
z
" clip-path="url(#pae5a226b8f)" style="fill: #aaaaaa; opacity: 0.6; stroke: #aaaaaa; stroke-width: 1.2; stroke-linejoin: miter"/>
   </g>
   <g id="patch_51">
    <path d="M 256.79183 363.8775 
L 262.076466 363.8775 
L 262.076466 363.8775 
L 256.79183 363.8775 
z
" clip-path="url(#pae5a226b8f)" style="fill: #aaaaaa; opacity: 0.6; stroke: #aaaaaa; stroke-width: 1.2; stroke-linejoin: miter"/>
   </g>
   <g id="patch_52">
    <path d="M 274.407284 363.8775 
L 279.69192 363.8775 
L 279.69192 363.8775 
L 274.407284 363.8775 
z
" clip-path="url(#pae5a226b8f)" style="fill: #aaaaaa; opacity: 0.6; stroke: #aaaaaa; stroke-width: 1.2; stroke-linejoin: miter"/>
   </g>
   <g id="patch_53">
    <path d="M 292.022739 363.8775 
L 297.307375 363.8775 
L 297.307375 363.8775 
L 292.022739 363.8775 
z
" clip-path="url(#pae5a226b8f)" style="fill: #aaaaaa; opacity: 0.6; stroke: #aaaaaa; stroke-width: 1.2; stroke-linejoin: miter"/>
   </g>
   <g id="patch_54">
    <path d="M 309.638193 363.8775 
L 314.92283 363.8775 
L 314.92283 363.8775 
L 309.638193 363.8775 
z
" clip-path="url(#pae5a226b8f)" style="fill: #aaaaaa; opacity: 0.6; stroke: #aaaaaa; stroke-width: 1.2; stroke-linejoin: miter"/>
   </g>
   <g id="patch_55">
    <path d="M 327.253648 363.8775 
L 332.538284 363.8775 
L 332.538284 363.8775 
L 327.253648 363.8775 
z
" clip-path="url(#pae5a226b8f)" style="fill: #aaaaaa; opacity: 0.6; stroke: #aaaaaa; stroke-width: 1.2; stroke-linejoin: miter"/>
   </g>
   <g id="patch_56">
    <path d="M 344.869102 363.8775 
L 350.153739 363.8775 
L 350.153739 363.8775 
L 344.869102 363.8775 
z
" clip-path="url(#pae5a226b8f)" style="fill: #aaaaaa; opacity: 0.6; stroke: #aaaaaa; stroke-width: 1.2; stroke-linejoin: miter"/>
   </g>
   <g id="patch_57">
    <path d="M 362.484557 363.8775 
L 367.769193 363.8775 
L 367.769193 363.8775 
L 362.484557 363.8775 
z
" clip-path="url(#pae5a226b8f)" style="fill: #aaaaaa; opacity: 0.6; stroke: #aaaaaa; stroke-width: 1.2; stroke-linejoin: miter"/>
   </g>
   <g id="patch_58">
    <path d="M 380.100011 363.8775 
L 385.384648 363.8775 
L 385.384648 363.8775 
L 380.100011 363.8775 
z
" clip-path="url(#pae5a226b8f)" style="fill: #aaaaaa; opacity: 0.6; stroke: #aaaaaa; stroke-width: 1.2; stroke-linejoin: miter"/>
   </g>
   <g id="patch_59">
    <path d="M 397.715466 363.8775 
L 403.000102 363.8775 
L 403.000102 363.8775 
L 397.715466 363.8775 
z
" clip-path="url(#pae5a226b8f)" style="fill: #aaaaaa; opacity: 0.6; stroke: #aaaaaa; stroke-width: 1.2; stroke-linejoin: miter"/>
   </g>
   <g id="patch_60">
    <path d="M 415.33092 363.8775 
L 420.615557 363.8775 
L 420.615557 363.8775 
L 415.33092 363.8775 
z
" clip-path="url(#pae5a226b8f)" style="fill: #aaaaaa; opacity: 0.6; stroke: #aaaaaa; stroke-width: 1.2; stroke-linejoin: miter"/>
   </g>
   <g id="patch_61">
    <path d="M 432.946375 363.8775 
L 438.231011 363.8775 
L 438.231011 363.8775 
L 432.946375 363.8775 
z
" clip-path="url(#pae5a226b8f)" style="fill: #aaaaaa; opacity: 0.6; stroke: #aaaaaa; stroke-width: 1.2; stroke-linejoin: miter"/>
   </g>
   <g id="patch_62">
    <path d="M 450.56183 363.8775 
L 455.846466 363.8775 
L 455.846466 363.8775 
L 450.56183 363.8775 
z
" clip-path="url(#pae5a226b8f)" style="fill: #aaaaaa; opacity: 0.6; stroke: #aaaaaa; stroke-width: 1.2; stroke-linejoin: miter"/>
   </g>
   <g id="patch_63">
    <path d="M 468.177284 363.8775 
L 473.46192 363.8775 
L 473.46192 357.189168 
L 468.177284 357.189168 
z
" clip-path="url(#pae5a226b8f)" style="fill: #aaaaaa; opacity: 0.6; stroke: #aaaaaa; stroke-width: 1.2; stroke-linejoin: miter"/>
   </g>
   <g id="patch_64">
    <path d="M 485.792739 363.8775 
L 491.077375 363.8775 
L 491.077375 346.041948 
L 485.792739 346.041948 
z
" clip-path="url(#pae5a226b8f)" style="fill: #aaaaaa; opacity: 0.6; stroke: #aaaaaa; stroke-width: 1.2; stroke-linejoin: miter"/>
   </g>
   <g id="patch_65">
    <path d="M 503.408193 363.8775 
L 508.69283 363.8775 
L 508.69283 343.812504 
L 503.408193 343.812504 
z
" clip-path="url(#pae5a226b8f)" style="fill: #aaaaaa; opacity: 0.6; stroke: #aaaaaa; stroke-width: 1.2; stroke-linejoin: miter"/>
   </g>
   <g id="patch_66">
    <path d="M 521.023648 363.8775 
L 526.308284 363.8775 
L 526.308284 308.141399 
L 521.023648 308.141399 
z
" clip-path="url(#pae5a226b8f)" style="fill: #aaaaaa; opacity: 0.6; stroke: #aaaaaa; stroke-width: 1.2; stroke-linejoin: miter"/>
   </g>
   <g id="patch_67">
    <path d="M 538.639102 363.8775 
L 543.923739 363.8775 
L 543.923739 285.846958 
L 538.639102 285.846958 
z
" clip-path="url(#pae5a226b8f)" style="fill: #aaaaaa; opacity: 0.6; stroke: #aaaaaa; stroke-width: 1.2; stroke-linejoin: miter"/>
   </g>
   <g id="patch_68">
    <path d="M 556.254557 363.8775 
L 561.539193 363.8775 
L 561.539193 265.781962 
L 556.254557 265.781962 
z
" clip-path="url(#pae5a226b8f)" style="fill: #aaaaaa; opacity: 0.6; stroke: #aaaaaa; stroke-width: 1.2; stroke-linejoin: miter"/>
   </g>
   <g id="patch_69">
    <path d="M 573.870011 363.8775 
L 579.154648 363.8775 
L 579.154648 225.651969 
L 573.870011 225.651969 
z
" clip-path="url(#pae5a226b8f)" style="fill: #aaaaaa; opacity: 0.6; stroke: #aaaaaa; stroke-width: 1.2; stroke-linejoin: miter"/>
   </g>
   <g id="patch_70">
    <path d="M 591.485466 363.8775 
L 596.770102 363.8775 
L 596.770102 178.833644 
L 591.485466 178.833644 
z
" clip-path="url(#pae5a226b8f)" style="fill: #aaaaaa; opacity: 0.6; stroke: #aaaaaa; stroke-width: 1.2; stroke-linejoin: miter"/>
   </g>
   <g id="patch_71">
    <path d="M 609.10092 363.8775 
L 614.385557 363.8775 
L 614.385557 234.569745 
L 609.10092 234.569745 
z
" clip-path="url(#pae5a226b8f)" style="fill: #aaaaaa; opacity: 0.6; stroke: #aaaaaa; stroke-width: 1.2; stroke-linejoin: miter"/>
   </g>
   <g id="patch_72">
    <path d="M 626.716375 363.8775 
L 632.001011 363.8775 
L 632.001011 236.799189 
L 626.716375 236.799189 
z
" clip-path="url(#pae5a226b8f)" style="fill: #aaaaaa; opacity: 0.6; stroke: #aaaaaa; stroke-width: 1.2; stroke-linejoin: miter"/>
   </g>
   <g id="patch_73">
    <path d="M 644.33183 363.8775 
L 649.616466 363.8775 
L 649.616466 250.175853 
L 644.33183 250.175853 
z
" clip-path="url(#pae5a226b8f)" style="fill: #aaaaaa; opacity: 0.6; stroke: #aaaaaa; stroke-width: 1.2; stroke-linejoin: miter"/>
   </g>
   <g id="patch_74">
    <path d="M 661.947284 363.8775 
L 667.23192 363.8775 
L 667.23192 283.617514 
L 661.947284 283.617514 
z
" clip-path="url(#pae5a226b8f)" style="fill: #aaaaaa; opacity: 0.6; stroke: #aaaaaa; stroke-width: 1.2; stroke-linejoin: miter"/>
   </g>
   <g id="patch_75">
    <path d="M 679.562739 363.8775 
L 684.847375 363.8775 
L 684.847375 321.518063 
L 679.562739 321.518063 
z
" clip-path="url(#pae5a226b8f)" style="fill: #aaaaaa; opacity: 0.6; stroke: #aaaaaa; stroke-width: 1.2; stroke-linejoin: miter"/>
   </g>
   <g id="patch_76">
    <path d="M 697.178193 363.8775 
L 702.46283 363.8775 
L 702.46283 350.500836 
L 697.178193 350.500836 
z
" clip-path="url(#pae5a226b8f)" style="fill: #aaaaaa; opacity: 0.6; stroke: #aaaaaa; stroke-width: 1.2; stroke-linejoin: miter"/>
   </g>
   <g id="patch_77">
    <path d="M 714.793648 363.8775 
L 720.078284 363.8775 
L 720.078284 357.189168 
L 714.793648 357.189168 
z
" clip-path="url(#pae5a226b8f)" style="fill: #aaaaaa; opacity: 0.6; stroke: #aaaaaa; stroke-width: 1.2; stroke-linejoin: miter"/>
   </g>
   <g id="patch_78">
    <path d="M 732.409102 363.8775 
L 737.693739 363.8775 
L 737.693739 363.8775 
L 732.409102 363.8775 
z
" clip-path="url(#pae5a226b8f)" style="fill: #aaaaaa; opacity: 0.6; stroke: #aaaaaa; stroke-width: 1.2; stroke-linejoin: miter"/>
   </g>
   <g id="patch_79">
    <path d="M 750.024557 363.8775 
L 755.309193 363.8775 
L 755.309193 361.648056 
L 750.024557 361.648056 
z
" clip-path="url(#pae5a226b8f)" style="fill: #aaaaaa; opacity: 0.6; stroke: #aaaaaa; stroke-width: 1.2; stroke-linejoin: miter"/>
   </g>
   <g id="patch_80">
    <path d="M 767.640011 363.8775 
L 772.924648 363.8775 
L 772.924648 363.8775 
L 767.640011 363.8775 
z
" clip-path="url(#pae5a226b8f)" style="fill: #aaaaaa; opacity: 0.6; stroke: #aaaaaa; stroke-width: 1.2; stroke-linejoin: miter"/>
   </g>
   <g id="patch_81">
    <path d="M 785.255466 363.8775 
L 790.540102 363.8775 
L 790.540102 363.8775 
L 785.255466 363.8775 
z
" clip-path="url(#pae5a226b8f)" style="fill: #aaaaaa; opacity: 0.6; stroke: #aaaaaa; stroke-width: 1.2; stroke-linejoin: miter"/>
   </g>
   <g id="patch_82">
    <path d="M 802.87092 363.8775 
L 808.155557 363.8775 
L 808.155557 363.8775 
L 802.87092 363.8775 
z
" clip-path="url(#pae5a226b8f)" style="fill: #aaaaaa; opacity: 0.6; stroke: #aaaaaa; stroke-width: 1.2; stroke-linejoin: miter"/>
   </g>
   <g id="patch_83">
    <path d="M 121.15283 363.8775 
L 126.437466 363.8775 
L 126.437466 337.124171 
L 121.15283 337.124171 
z
" clip-path="url(#pae5a226b8f)" style="fill: #30a0cf; opacity: 0.6; stroke: #30a0cf; stroke-width: 1.2; stroke-linejoin: miter"/>
   </g>
   <g id="patch_84">
    <path d="M 138.768284 363.8775 
L 144.05292 363.8775 
L 144.05292 290.305846 
L 138.768284 290.305846 
z
" clip-path="url(#pae5a226b8f)" style="fill: #30a0cf; opacity: 0.6; stroke: #30a0cf; stroke-width: 1.2; stroke-linejoin: miter"/>
   </g>
   <g id="patch_85">
    <path d="M 156.383739 363.8775 
L 161.668375 363.8775 
L 161.668375 140.933095 
L 156.383739 140.933095 
z
" clip-path="url(#pae5a226b8f)" style="fill: #30a0cf; opacity: 0.6; stroke: #30a0cf; stroke-width: 1.2; stroke-linejoin: miter"/>
   </g>
   <g id="patch_86">
    <path d="M 173.999193 363.8775 
L 179.28383 363.8775 
L 179.28383 65.131997 
L 173.999193 65.131997 
z
" clip-path="url(#pae5a226b8f)" style="fill: #30a0cf; opacity: 0.6; stroke: #30a0cf; stroke-width: 1.2; stroke-linejoin: miter"/>
   </g>
   <g id="patch_87">
    <path d="M 191.614648 363.8775 
L 196.899284 363.8775 
L 196.899284 87.426438 
L 191.614648 87.426438 
z
" clip-path="url(#pae5a226b8f)" style="fill: #30a0cf; opacity: 0.6; stroke: #30a0cf; stroke-width: 1.2; stroke-linejoin: miter"/>
   </g>
   <g id="patch_88">
    <path d="M 209.230102 363.8775 
L 214.514739 363.8775 
L 214.514739 234.569745 
L 209.230102 234.569745 
z
" clip-path="url(#pae5a226b8f)" style="fill: #30a0cf; opacity: 0.6; stroke: #30a0cf; stroke-width: 1.2; stroke-linejoin: miter"/>
   </g>
   <g id="patch_89">
    <path d="M 226.845557 363.8775 
L 232.130193 363.8775 
L 232.130193 294.764734 
L 226.845557 294.764734 
z
" clip-path="url(#pae5a226b8f)" style="fill: #30a0cf; opacity: 0.6; stroke: #30a0cf; stroke-width: 1.2; stroke-linejoin: miter"/>
   </g>
   <g id="patch_90">
    <path d="M 244.461011 363.8775 
L 249.745648 363.8775 
L 249.745648 348.271392 
L 244.461011 348.271392 
z
" clip-path="url(#pae5a226b8f)" style="fill: #30a0cf; opacity: 0.6; stroke: #30a0cf; stroke-width: 1.2; stroke-linejoin: miter"/>
   </g>
   <g id="patch_91">
    <path d="M 262.076466 363.8775 
L 267.361102 363.8775 
L 267.361102 361.648056 
L 262.076466 361.648056 
z
" clip-path="url(#pae5a226b8f)" style="fill: #30a0cf; opacity: 0.6; stroke: #30a0cf; stroke-width: 1.2; stroke-linejoin: miter"/>
   </g>
   <g id="patch_92">
    <path d="M 279.69192 363.8775 
L 284.976557 363.8775 
L 284.976557 363.8775 
L 279.69192 363.8775 
z
" clip-path="url(#pae5a226b8f)" style="fill: #30a0cf; opacity: 0.6; stroke: #30a0cf; stroke-width: 1.2; stroke-linejoin: miter"/>
   </g>
   <g id="patch_93">
    <path d="M 297.307375 363.8775 
L 302.592011 363.8775 
L 302.592011 363.8775 
L 297.307375 363.8775 
z
" clip-path="url(#pae5a226b8f)" style="fill: #30a0cf; opacity: 0.6; stroke: #30a0cf; stroke-width: 1.2; stroke-linejoin: miter"/>
   </g>
   <g id="patch_94">
    <path d="M 314.92283 363.8775 
L 320.207466 363.8775 
L 320.207466 363.8775 
L 314.92283 363.8775 
z
" clip-path="url(#pae5a226b8f)" style="fill: #30a0cf; opacity: 0.6; stroke: #30a0cf; stroke-width: 1.2; stroke-linejoin: miter"/>
   </g>
   <g id="patch_95">
    <path d="M 332.538284 363.8775 
L 337.82292 363.8775 
L 337.82292 363.8775 
L 332.538284 363.8775 
z
" clip-path="url(#pae5a226b8f)" style="fill: #30a0cf; opacity: 0.6; stroke: #30a0cf; stroke-width: 1.2; stroke-linejoin: miter"/>
   </g>
   <g id="patch_96">
    <path d="M 350.153739 363.8775 
L 355.438375 363.8775 
L 355.438375 363.8775 
L 350.153739 363.8775 
z
" clip-path="url(#pae5a226b8f)" style="fill: #30a0cf; opacity: 0.6; stroke: #30a0cf; stroke-width: 1.2; stroke-linejoin: miter"/>
   </g>
   <g id="patch_97">
    <path d="M 367.769193 363.8775 
L 373.05383 363.8775 
L 373.05383 363.8775 
L 367.769193 363.8775 
z
" clip-path="url(#pae5a226b8f)" style="fill: #30a0cf; opacity: 0.6; stroke: #30a0cf; stroke-width: 1.2; stroke-linejoin: miter"/>
   </g>
   <g id="patch_98">
    <path d="M 385.384648 363.8775 
L 390.669284 363.8775 
L 390.669284 363.8775 
L 385.384648 363.8775 
z
" clip-path="url(#pae5a226b8f)" style="fill: #30a0cf; opacity: 0.6; stroke: #30a0cf; stroke-width: 1.2; stroke-linejoin: miter"/>
   </g>
   <g id="patch_99">
    <path d="M 403.000102 363.8775 
L 408.284739 363.8775 
L 408.284739 363.8775 
L 403.000102 363.8775 
z
" clip-path="url(#pae5a226b8f)" style="fill: #30a0cf; opacity: 0.6; stroke: #30a0cf; stroke-width: 1.2; stroke-linejoin: miter"/>
   </g>
   <g id="patch_100">
    <path d="M 420.615557 363.8775 
L 425.900193 363.8775 
L 425.900193 363.8775 
L 420.615557 363.8775 
z
" clip-path="url(#pae5a226b8f)" style="fill: #30a0cf; opacity: 0.6; stroke: #30a0cf; stroke-width: 1.2; stroke-linejoin: miter"/>
   </g>
   <g id="patch_101">
    <path d="M 438.231011 363.8775 
L 443.515648 363.8775 
L 443.515648 363.8775 
L 438.231011 363.8775 
z
" clip-path="url(#pae5a226b8f)" style="fill: #30a0cf; opacity: 0.6; stroke: #30a0cf; stroke-width: 1.2; stroke-linejoin: miter"/>
   </g>
   <g id="patch_102">
    <path d="M 455.846466 363.8775 
L 461.131102 363.8775 
L 461.131102 363.8775 
L 455.846466 363.8775 
z
" clip-path="url(#pae5a226b8f)" style="fill: #30a0cf; opacity: 0.6; stroke: #30a0cf; stroke-width: 1.2; stroke-linejoin: miter"/>
   </g>
   <g id="patch_103">
    <path d="M 473.46192 363.8775 
L 478.746557 363.8775 
L 478.746557 363.8775 
L 473.46192 363.8775 
z
" clip-path="url(#pae5a226b8f)" style="fill: #30a0cf; opacity: 0.6; stroke: #30a0cf; stroke-width: 1.2; stroke-linejoin: miter"/>
   </g>
   <g id="patch_104">
    <path d="M 491.077375 363.8775 
L 496.362011 363.8775 
L 496.362011 363.8775 
L 491.077375 363.8775 
z
" clip-path="url(#pae5a226b8f)" style="fill: #30a0cf; opacity: 0.6; stroke: #30a0cf; stroke-width: 1.2; stroke-linejoin: miter"/>
   </g>
   <g id="patch_105">
    <path d="M 508.69283 363.8775 
L 513.977466 363.8775 
L 513.977466 363.8775 
L 508.69283 363.8775 
z
" clip-path="url(#pae5a226b8f)" style="fill: #30a0cf; opacity: 0.6; stroke: #30a0cf; stroke-width: 1.2; stroke-linejoin: miter"/>
   </g>
   <g id="patch_106">
    <path d="M 526.308284 363.8775 
L 531.59292 363.8775 
L 531.59292 363.8775 
L 526.308284 363.8775 
z
" clip-path="url(#pae5a226b8f)" style="fill: #30a0cf; opacity: 0.6; stroke: #30a0cf; stroke-width: 1.2; stroke-linejoin: miter"/>
   </g>
   <g id="patch_107">
    <path d="M 543.923739 363.8775 
L 549.208375 363.8775 
L 549.208375 363.8775 
L 543.923739 363.8775 
z
" clip-path="url(#pae5a226b8f)" style="fill: #30a0cf; opacity: 0.6; stroke: #30a0cf; stroke-width: 1.2; stroke-linejoin: miter"/>
   </g>
   <g id="patch_108">
    <path d="M 561.539193 363.8775 
L 566.82383 363.8775 
L 566.82383 363.8775 
L 561.539193 363.8775 
z
" clip-path="url(#pae5a226b8f)" style="fill: #30a0cf; opacity: 0.6; stroke: #30a0cf; stroke-width: 1.2; stroke-linejoin: miter"/>
   </g>
   <g id="patch_109">
    <path d="M 579.154648 363.8775 
L 584.439284 363.8775 
L 584.439284 363.8775 
L 579.154648 363.8775 
z
" clip-path="url(#pae5a226b8f)" style="fill: #30a0cf; opacity: 0.6; stroke: #30a0cf; stroke-width: 1.2; stroke-linejoin: miter"/>
   </g>
   <g id="patch_110">
    <path d="M 596.770102 363.8775 
L 602.054739 363.8775 
L 602.054739 363.8775 
L 596.770102 363.8775 
z
" clip-path="url(#pae5a226b8f)" style="fill: #30a0cf; opacity: 0.6; stroke: #30a0cf; stroke-width: 1.2; stroke-linejoin: miter"/>
   </g>
   <g id="patch_111">
    <path d="M 614.385557 363.8775 
L 619.670193 363.8775 
L 619.670193 363.8775 
L 614.385557 363.8775 
z
" clip-path="url(#pae5a226b8f)" style="fill: #30a0cf; opacity: 0.6; stroke: #30a0cf; stroke-width: 1.2; stroke-linejoin: miter"/>
   </g>
   <g id="patch_112">
    <path d="M 632.001011 363.8775 
L 637.285648 363.8775 
L 637.285648 363.8775 
L 632.001011 363.8775 
z
" clip-path="url(#pae5a226b8f)" style="fill: #30a0cf; opacity: 0.6; stroke: #30a0cf; stroke-width: 1.2; stroke-linejoin: miter"/>
   </g>
   <g id="patch_113">
    <path d="M 649.616466 363.8775 
L 654.901102 363.8775 
L 654.901102 363.8775 
L 649.616466 363.8775 
z
" clip-path="url(#pae5a226b8f)" style="fill: #30a0cf; opacity: 0.6; stroke: #30a0cf; stroke-width: 1.2; stroke-linejoin: miter"/>
   </g>
   <g id="patch_114">
    <path d="M 667.23192 363.8775 
L 672.516557 363.8775 
L 672.516557 363.8775 
L 667.23192 363.8775 
z
" clip-path="url(#pae5a226b8f)" style="fill: #30a0cf; opacity: 0.6; stroke: #30a0cf; stroke-width: 1.2; stroke-linejoin: miter"/>
   </g>
   <g id="patch_115">
    <path d="M 684.847375 363.8775 
L 690.132011 363.8775 
L 690.132011 363.8775 
L 684.847375 363.8775 
z
" clip-path="url(#pae5a226b8f)" style="fill: #30a0cf; opacity: 0.6; stroke: #30a0cf; stroke-width: 1.2; stroke-linejoin: miter"/>
   </g>
   <g id="patch_116">
    <path d="M 702.46283 363.8775 
L 707.747466 363.8775 
L 707.747466 363.8775 
L 702.46283 363.8775 
z
" clip-path="url(#pae5a226b8f)" style="fill: #30a0cf; opacity: 0.6; stroke: #30a0cf; stroke-width: 1.2; stroke-linejoin: miter"/>
   </g>
   <g id="patch_117">
    <path d="M 720.078284 363.8775 
L 725.36292 363.8775 
L 725.36292 363.8775 
L 720.078284 363.8775 
z
" clip-path="url(#pae5a226b8f)" style="fill: #30a0cf; opacity: 0.6; stroke: #30a0cf; stroke-width: 1.2; stroke-linejoin: miter"/>
   </g>
   <g id="patch_118">
    <path d="M 737.693739 363.8775 
L 742.978375 363.8775 
L 742.978375 363.8775 
L 737.693739 363.8775 
z
" clip-path="url(#pae5a226b8f)" style="fill: #30a0cf; opacity: 0.6; stroke: #30a0cf; stroke-width: 1.2; stroke-linejoin: miter"/>
   </g>
   <g id="patch_119">
    <path d="M 755.309193 363.8775 
L 760.59383 363.8775 
L 760.59383 363.8775 
L 755.309193 363.8775 
z
" clip-path="url(#pae5a226b8f)" style="fill: #30a0cf; opacity: 0.6; stroke: #30a0cf; stroke-width: 1.2; stroke-linejoin: miter"/>
   </g>
   <g id="patch_120">
    <path d="M 772.924648 363.8775 
L 778.209284 363.8775 
L 778.209284 363.8775 
L 772.924648 363.8775 
z
" clip-path="url(#pae5a226b8f)" style="fill: #30a0cf; opacity: 0.6; stroke: #30a0cf; stroke-width: 1.2; stroke-linejoin: miter"/>
   </g>
   <g id="patch_121">
    <path d="M 790.540102 363.8775 
L 795.824739 363.8775 
L 795.824739 363.8775 
L 790.540102 363.8775 
z
" clip-path="url(#pae5a226b8f)" style="fill: #30a0cf; opacity: 0.6; stroke: #30a0cf; stroke-width: 1.2; stroke-linejoin: miter"/>
   </g>
   <g id="patch_122">
    <path d="M 808.155557 363.8775 
L 813.440193 363.8775 
L 813.440193 363.8775 
L 808.155557 363.8775 
z
" clip-path="url(#pae5a226b8f)" style="fill: #30a0cf; opacity: 0.6; stroke: #30a0cf; stroke-width: 1.2; stroke-linejoin: miter"/>
   </g>
   <g id="matplotlib.axis_1">
    <g id="xtick_1">
     <g id="line2d_1">
      <path d="M 83.651263 363.8775 
L 83.651263 39.3575 
" clip-path="url(#pae5a226b8f)" style="fill: none; stroke-dasharray: 2.96,1.28; stroke-dashoffset: 0; stroke: #ffffff; stroke-opacity: 0.3; stroke-width: 0.8"/>
     </g>
     <g id="line2d_2">
      <defs>
       <path id="mb9982ab232" d="M 0 0 
L 0 3.5 
" style="stroke: #ffffff; stroke-width: 0.8"/>
      </defs>
      <g>
       <use xlink:href="#mb9982ab232" x="83.651263" y="363.8775" style="fill: #ffffff; stroke: #ffffff; stroke-width: 0.8"/>
      </g>
     </g>
     <g id="text_1">
      <!-- 10 -->
      <g style="fill: #ffffff" transform="translate(74.743763 381.515312) scale(0.14 -0.14)">
       <defs>
        <path id="DejaVuSans-31" d="M 794 531 
L 1825 531 
L 1825 4091 
L 703 3866 
L 703 4441 
L 1819 4666 
L 2450 4666 
L 2450 531 
L 3481 531 
L 3481 0 
L 794 0 
L 794 531 
z
" transform="scale(0.015625)"/>
        <path id="DejaVuSans-30" d="M 2034 4250 
Q 1547 4250 1301 3770 
Q 1056 3291 1056 2328 
Q 1056 1369 1301 889 
Q 1547 409 2034 409 
Q 2525 409 2770 889 
Q 3016 1369 3016 2328 
Q 3016 3291 2770 3770 
Q 2525 4250 2034 4250 
z
M 2034 4750 
Q 2819 4750 3233 4129 
Q 3647 3509 3647 2328 
Q 3647 1150 3233 529 
Q 2819 -91 2034 -91 
Q 1250 -91 836 529 
Q 422 1150 422 2328 
Q 422 3509 836 4129 
Q 1250 4750 2034 4750 
z
" transform="scale(0.015625)"/>
       </defs>
       <use xlink:href="#DejaVuSans-31"/>
       <use xlink:href="#DejaVuSans-30" transform="translate(63.623047 0)"/>
      </g>
     </g>
    </g>
    <g id="xtick_2">
     <g id="line2d_3">
      <path d="M 199.934212 363.8775 
L 199.934212 39.3575 
" clip-path="url(#pae5a226b8f)" style="fill: none; stroke-dasharray: 2.96,1.28; stroke-dashoffset: 0; stroke: #ffffff; stroke-opacity: 0.3; stroke-width: 0.8"/>
     </g>
     <g id="line2d_4">
      <g>
       <use xlink:href="#mb9982ab232" x="199.934212" y="363.8775" style="fill: #ffffff; stroke: #ffffff; stroke-width: 0.8"/>
      </g>
     </g>
     <g id="text_2">
      <!-- 20 -->
      <g style="fill: #ffffff" transform="translate(191.026712 381.515312) scale(0.14 -0.14)">
       <defs>
        <path id="DejaVuSans-32" d="M 1228 531 
L 3431 531 
L 3431 0 
L 469 0 
L 469 531 
Q 828 903 1448 1529 
Q 2069 2156 2228 2338 
Q 2531 2678 2651 2914 
Q 2772 3150 2772 3378 
Q 2772 3750 2511 3984 
Q 2250 4219 1831 4219 
Q 1534 4219 1204 4116 
Q 875 4013 500 3803 
L 500 4441 
Q 881 4594 1212 4672 
Q 1544 4750 1819 4750 
Q 2544 4750 2975 4387 
Q 3406 4025 3406 3419 
Q 3406 3131 3298 2873 
Q 3191 2616 2906 2266 
Q 2828 2175 2409 1742 
Q 1991 1309 1228 531 
z
" transform="scale(0.015625)"/>
       </defs>
       <use xlink:href="#DejaVuSans-32"/>
       <use xlink:href="#DejaVuSans-30" transform="translate(63.623047 0)"/>
      </g>
     </g>
    </g>
    <g id="xtick_3">
     <g id="line2d_5">
      <path d="M 316.217162 363.8775 
L 316.217162 39.3575 
" clip-path="url(#pae5a226b8f)" style="fill: none; stroke-dasharray: 2.96,1.28; stroke-dashoffset: 0; stroke: #ffffff; stroke-opacity: 0.3; stroke-width: 0.8"/>
     </g>
     <g id="line2d_6">
      <g>
       <use xlink:href="#mb9982ab232" x="316.217162" y="363.8775" style="fill: #ffffff; stroke: #ffffff; stroke-width: 0.8"/>
      </g>
     </g>
     <g id="text_3">
      <!-- 30 -->
      <g style="fill: #ffffff" transform="translate(307.309662 381.515312) scale(0.14 -0.14)">
       <defs>
        <path id="DejaVuSans-33" d="M 2597 2516 
Q 3050 2419 3304 2112 
Q 3559 1806 3559 1356 
Q 3559 666 3084 287 
Q 2609 -91 1734 -91 
Q 1441 -91 1130 -33 
Q 819 25 488 141 
L 488 750 
Q 750 597 1062 519 
Q 1375 441 1716 441 
Q 2309 441 2620 675 
Q 2931 909 2931 1356 
Q 2931 1769 2642 2001 
Q 2353 2234 1838 2234 
L 1294 2234 
L 1294 2753 
L 1863 2753 
Q 2328 2753 2575 2939 
Q 2822 3125 2822 3475 
Q 2822 3834 2567 4026 
Q 2313 4219 1838 4219 
Q 1578 4219 1281 4162 
Q 984 4106 628 3988 
L 628 4550 
Q 988 4650 1302 4700 
Q 1616 4750 1894 4750 
Q 2613 4750 3031 4423 
Q 3450 4097 3450 3541 
Q 3450 3153 3228 2886 
Q 3006 2619 2597 2516 
z
" transform="scale(0.015625)"/>
       </defs>
       <use xlink:href="#DejaVuSans-33"/>
       <use xlink:href="#DejaVuSans-30" transform="translate(63.623047 0)"/>
      </g>
     </g>
    </g>
    <g id="xtick_4">
     <g id="line2d_7">
      <path d="M 432.500112 363.8775 
L 432.500112 39.3575 
" clip-path="url(#pae5a226b8f)" style="fill: none; stroke-dasharray: 2.96,1.28; stroke-dashoffset: 0; stroke: #ffffff; stroke-opacity: 0.3; stroke-width: 0.8"/>
     </g>
     <g id="line2d_8">
      <g>
       <use xlink:href="#mb9982ab232" x="432.500112" y="363.8775" style="fill: #ffffff; stroke: #ffffff; stroke-width: 0.8"/>
      </g>
     </g>
     <g id="text_4">
      <!-- 40 -->
      <g style="fill: #ffffff" transform="translate(423.592612 381.515312) scale(0.14 -0.14)">
       <defs>
        <path id="DejaVuSans-34" d="M 2419 4116 
L 825 1625 
L 2419 1625 
L 2419 4116 
z
M 2253 4666 
L 3047 4666 
L 3047 1625 
L 3713 1625 
L 3713 1100 
L 3047 1100 
L 3047 0 
L 2419 0 
L 2419 1100 
L 313 1100 
L 313 1709 
L 2253 4666 
z
" transform="scale(0.015625)"/>
       </defs>
       <use xlink:href="#DejaVuSans-34"/>
       <use xlink:href="#DejaVuSans-30" transform="translate(63.623047 0)"/>
      </g>
     </g>
    </g>
    <g id="xtick_5">
     <g id="line2d_9">
      <path d="M 548.783061 363.8775 
L 548.783061 39.3575 
" clip-path="url(#pae5a226b8f)" style="fill: none; stroke-dasharray: 2.96,1.28; stroke-dashoffset: 0; stroke: #ffffff; stroke-opacity: 0.3; stroke-width: 0.8"/>
     </g>
     <g id="line2d_10">
      <g>
       <use xlink:href="#mb9982ab232" x="548.783061" y="363.8775" style="fill: #ffffff; stroke: #ffffff; stroke-width: 0.8"/>
      </g>
     </g>
     <g id="text_5">
      <!-- 50 -->
      <g style="fill: #ffffff" transform="translate(539.875561 381.515312) scale(0.14 -0.14)">
       <defs>
        <path id="DejaVuSans-35" d="M 691 4666 
L 3169 4666 
L 3169 4134 
L 1269 4134 
L 1269 2991 
Q 1406 3038 1543 3061 
Q 1681 3084 1819 3084 
Q 2600 3084 3056 2656 
Q 3513 2228 3513 1497 
Q 3513 744 3044 326 
Q 2575 -91 1722 -91 
Q 1428 -91 1123 -41 
Q 819 9 494 109 
L 494 744 
Q 775 591 1075 516 
Q 1375 441 1709 441 
Q 2250 441 2565 725 
Q 2881 1009 2881 1497 
Q 2881 1984 2565 2268 
Q 2250 2553 1709 2553 
Q 1456 2553 1204 2497 
Q 953 2441 691 2322 
L 691 4666 
z
" transform="scale(0.015625)"/>
       </defs>
       <use xlink:href="#DejaVuSans-35"/>
       <use xlink:href="#DejaVuSans-30" transform="translate(63.623047 0)"/>
      </g>
     </g>
    </g>
    <g id="xtick_6">
     <g id="line2d_11">
      <path d="M 665.066011 363.8775 
L 665.066011 39.3575 
" clip-path="url(#pae5a226b8f)" style="fill: none; stroke-dasharray: 2.96,1.28; stroke-dashoffset: 0; stroke: #ffffff; stroke-opacity: 0.3; stroke-width: 0.8"/>
     </g>
     <g id="line2d_12">
      <g>
       <use xlink:href="#mb9982ab232" x="665.066011" y="363.8775" style="fill: #ffffff; stroke: #ffffff; stroke-width: 0.8"/>
      </g>
     </g>
     <g id="text_6">
      <!-- 60 -->
      <g style="fill: #ffffff" transform="translate(656.158511 381.515312) scale(0.14 -0.14)">
       <defs>
        <path id="DejaVuSans-36" d="M 2113 2584 
Q 1688 2584 1439 2293 
Q 1191 2003 1191 1497 
Q 1191 994 1439 701 
Q 1688 409 2113 409 
Q 2538 409 2786 701 
Q 3034 994 3034 1497 
Q 3034 2003 2786 2293 
Q 2538 2584 2113 2584 
z
M 3366 4563 
L 3366 3988 
Q 3128 4100 2886 4159 
Q 2644 4219 2406 4219 
Q 1781 4219 1451 3797 
Q 1122 3375 1075 2522 
Q 1259 2794 1537 2939 
Q 1816 3084 2150 3084 
Q 2853 3084 3261 2657 
Q 3669 2231 3669 1497 
Q 3669 778 3244 343 
Q 2819 -91 2113 -91 
Q 1303 -91 875 529 
Q 447 1150 447 2328 
Q 447 3434 972 4092 
Q 1497 4750 2381 4750 
Q 2619 4750 2861 4703 
Q 3103 4656 3366 4563 
z
" transform="scale(0.015625)"/>
       </defs>
       <use xlink:href="#DejaVuSans-36"/>
       <use xlink:href="#DejaVuSans-30" transform="translate(63.623047 0)"/>
      </g>
     </g>
    </g>
    <g id="xtick_7">
     <g id="line2d_13">
      <path d="M 781.348961 363.8775 
L 781.348961 39.3575 
" clip-path="url(#pae5a226b8f)" style="fill: none; stroke-dasharray: 2.96,1.28; stroke-dashoffset: 0; stroke: #ffffff; stroke-opacity: 0.3; stroke-width: 0.8"/>
     </g>
     <g id="line2d_14">
      <g>
       <use xlink:href="#mb9982ab232" x="781.348961" y="363.8775" style="fill: #ffffff; stroke: #ffffff; stroke-width: 0.8"/>
      </g>
     </g>
     <g id="text_7">
      <!-- 70 -->
      <g style="fill: #ffffff" transform="translate(772.441461 381.515312) scale(0.14 -0.14)">
       <defs>
        <path id="DejaVuSans-37" d="M 525 4666 
L 3525 4666 
L 3525 4397 
L 1831 0 
L 1172 0 
L 2766 4134 
L 525 4134 
L 525 4666 
z
" transform="scale(0.015625)"/>
       </defs>
       <use xlink:href="#DejaVuSans-37"/>
       <use xlink:href="#DejaVuSans-30" transform="translate(63.623047 0)"/>
      </g>
     </g>
    </g>
    <g id="text_8">
     <!-- Weapon Utilization [%] -->
     <g style="fill: #ffffff" transform="translate(382.105781 415.064687) scale(0.14 -0.14)">
      <defs>
       <path id="DejaVuSans-57" d="M 213 4666 
L 850 4666 
L 1831 722 
L 2809 4666 
L 3519 4666 
L 4500 722 
L 5478 4666 
L 6119 4666 
L 4947 0 
L 4153 0 
L 3169 4050 
L 2175 0 
L 1381 0 
L 213 4666 
z
" transform="scale(0.015625)"/>
       <path id="DejaVuSans-65" d="M 3597 1894 
L 3597 1613 
L 953 1613 
Q 991 1019 1311 708 
Q 1631 397 2203 397 
Q 2534 397 2845 478 
Q 3156 559 3463 722 
L 3463 178 
Q 3153 47 2828 -22 
Q 2503 -91 2169 -91 
Q 1331 -91 842 396 
Q 353 884 353 1716 
Q 353 2575 817 3079 
Q 1281 3584 2069 3584 
Q 2775 3584 3186 3129 
Q 3597 2675 3597 1894 
z
M 3022 2063 
Q 3016 2534 2758 2815 
Q 2500 3097 2075 3097 
Q 1594 3097 1305 2825 
Q 1016 2553 972 2059 
L 3022 2063 
z
" transform="scale(0.015625)"/>
       <path id="DejaVuSans-61" d="M 2194 1759 
Q 1497 1759 1228 1600 
Q 959 1441 959 1056 
Q 959 750 1161 570 
Q 1363 391 1709 391 
Q 2188 391 2477 730 
Q 2766 1069 2766 1631 
L 2766 1759 
L 2194 1759 
z
M 3341 1997 
L 3341 0 
L 2766 0 
L 2766 531 
Q 2569 213 2275 61 
Q 1981 -91 1556 -91 
Q 1019 -91 701 211 
Q 384 513 384 1019 
Q 384 1609 779 1909 
Q 1175 2209 1959 2209 
L 2766 2209 
L 2766 2266 
Q 2766 2663 2505 2880 
Q 2244 3097 1772 3097 
Q 1472 3097 1187 3025 
Q 903 2953 641 2809 
L 641 3341 
Q 956 3463 1253 3523 
Q 1550 3584 1831 3584 
Q 2591 3584 2966 3190 
Q 3341 2797 3341 1997 
z
" transform="scale(0.015625)"/>
       <path id="DejaVuSans-70" d="M 1159 525 
L 1159 -1331 
L 581 -1331 
L 581 3500 
L 1159 3500 
L 1159 2969 
Q 1341 3281 1617 3432 
Q 1894 3584 2278 3584 
Q 2916 3584 3314 3078 
Q 3713 2572 3713 1747 
Q 3713 922 3314 415 
Q 2916 -91 2278 -91 
Q 1894 -91 1617 61 
Q 1341 213 1159 525 
z
M 3116 1747 
Q 3116 2381 2855 2742 
Q 2594 3103 2138 3103 
Q 1681 3103 1420 2742 
Q 1159 2381 1159 1747 
Q 1159 1113 1420 752 
Q 1681 391 2138 391 
Q 2594 391 2855 752 
Q 3116 1113 3116 1747 
z
" transform="scale(0.015625)"/>
       <path id="DejaVuSans-6f" d="M 1959 3097 
Q 1497 3097 1228 2736 
Q 959 2375 959 1747 
Q 959 1119 1226 758 
Q 1494 397 1959 397 
Q 2419 397 2687 759 
Q 2956 1122 2956 1747 
Q 2956 2369 2687 2733 
Q 2419 3097 1959 3097 
z
M 1959 3584 
Q 2709 3584 3137 3096 
Q 3566 2609 3566 1747 
Q 3566 888 3137 398 
Q 2709 -91 1959 -91 
Q 1206 -91 779 398 
Q 353 888 353 1747 
Q 353 2609 779 3096 
Q 1206 3584 1959 3584 
z
" transform="scale(0.015625)"/>
       <path id="DejaVuSans-6e" d="M 3513 2113 
L 3513 0 
L 2938 0 
L 2938 2094 
Q 2938 2591 2744 2837 
Q 2550 3084 2163 3084 
Q 1697 3084 1428 2787 
Q 1159 2491 1159 1978 
L 1159 0 
L 581 0 
L 581 3500 
L 1159 3500 
L 1159 2956 
Q 1366 3272 1645 3428 
Q 1925 3584 2291 3584 
Q 2894 3584 3203 3211 
Q 3513 2838 3513 2113 
z
" transform="scale(0.015625)"/>
       <path id="DejaVuSans-20" transform="scale(0.015625)"/>
       <path id="DejaVuSans-55" d="M 556 4666 
L 1191 4666 
L 1191 1831 
Q 1191 1081 1462 751 
Q 1734 422 2344 422 
Q 2950 422 3222 751 
Q 3494 1081 3494 1831 
L 3494 4666 
L 4128 4666 
L 4128 1753 
Q 4128 841 3676 375 
Q 3225 -91 2344 -91 
Q 1459 -91 1007 375 
Q 556 841 556 1753 
L 556 4666 
z
" transform="scale(0.015625)"/>
       <path id="DejaVuSans-74" d="M 1172 4494 
L 1172 3500 
L 2356 3500 
L 2356 3053 
L 1172 3053 
L 1172 1153 
Q 1172 725 1289 603 
Q 1406 481 1766 481 
L 2356 481 
L 2356 0 
L 1766 0 
Q 1100 0 847 248 
Q 594 497 594 1153 
L 594 3053 
L 172 3053 
L 172 3500 
L 594 3500 
L 594 4494 
L 1172 4494 
z
" transform="scale(0.015625)"/>
       <path id="DejaVuSans-69" d="M 603 3500 
L 1178 3500 
L 1178 0 
L 603 0 
L 603 3500 
z
M 603 4863 
L 1178 4863 
L 1178 4134 
L 603 4134 
L 603 4863 
z
" transform="scale(0.015625)"/>
       <path id="DejaVuSans-6c" d="M 603 4863 
L 1178 4863 
L 1178 0 
L 603 0 
L 603 4863 
z
" transform="scale(0.015625)"/>
       <path id="DejaVuSans-7a" d="M 353 3500 
L 3084 3500 
L 3084 2975 
L 922 459 
L 3084 459 
L 3084 0 
L 275 0 
L 275 525 
L 2438 3041 
L 353 3041 
L 353 3500 
z
" transform="scale(0.015625)"/>
       <path id="DejaVuSans-5b" d="M 550 4863 
L 1875 4863 
L 1875 4416 
L 1125 4416 
L 1125 -397 
L 1875 -397 
L 1875 -844 
L 550 -844 
L 550 4863 
z
" transform="scale(0.015625)"/>
       <path id="DejaVuSans-25" d="M 4653 2053 
Q 4381 2053 4226 1822 
Q 4072 1591 4072 1178 
Q 4072 772 4226 539 
Q 4381 306 4653 306 
Q 4919 306 5073 539 
Q 5228 772 5228 1178 
Q 5228 1588 5073 1820 
Q 4919 2053 4653 2053 
z
M 4653 2450 
Q 5147 2450 5437 2106 
Q 5728 1763 5728 1178 
Q 5728 594 5436 251 
Q 5144 -91 4653 -91 
Q 4153 -91 3862 251 
Q 3572 594 3572 1178 
Q 3572 1766 3864 2108 
Q 4156 2450 4653 2450 
z
M 1428 4353 
Q 1159 4353 1004 4120 
Q 850 3888 850 3481 
Q 850 3069 1003 2837 
Q 1156 2606 1428 2606 
Q 1700 2606 1854 2837 
Q 2009 3069 2009 3481 
Q 2009 3884 1853 4118 
Q 1697 4353 1428 4353 
z
M 4250 4750 
L 4750 4750 
L 1831 -91 
L 1331 -91 
L 4250 4750 
z
M 1428 4750 
Q 1922 4750 2215 4408 
Q 2509 4066 2509 3481 
Q 2509 2891 2217 2550 
Q 1925 2209 1428 2209 
Q 931 2209 642 2551 
Q 353 2894 353 3481 
Q 353 4063 643 4406 
Q 934 4750 1428 4750 
z
" transform="scale(0.015625)"/>
       <path id="DejaVuSans-5d" d="M 1947 4863 
L 1947 -844 
L 622 -844 
L 622 -397 
L 1369 -397 
L 1369 4416 
L 622 4416 
L 622 4863 
L 1947 4863 
z
" transform="scale(0.015625)"/>
      </defs>
      <use xlink:href="#DejaVuSans-57"/>
      <use xlink:href="#DejaVuSans-65" transform="translate(93.001953 0)"/>
      <use xlink:href="#DejaVuSans-61" transform="translate(154.525391 0)"/>
      <use xlink:href="#DejaVuSans-70" transform="translate(215.804688 0)"/>
      <use xlink:href="#DejaVuSans-6f" transform="translate(279.28125 0)"/>
      <use xlink:href="#DejaVuSans-6e" transform="translate(340.462891 0)"/>
      <use xlink:href="#DejaVuSans-20" transform="translate(403.841797 0)"/>
      <use xlink:href="#DejaVuSans-55" transform="translate(435.628906 0)"/>
      <use xlink:href="#DejaVuSans-74" transform="translate(508.822266 0)"/>
      <use xlink:href="#DejaVuSans-69" transform="translate(548.03125 0)"/>
      <use xlink:href="#DejaVuSans-6c" transform="translate(575.814453 0)"/>
      <use xlink:href="#DejaVuSans-69" transform="translate(603.597656 0)"/>
      <use xlink:href="#DejaVuSans-7a" transform="translate(631.380859 0)"/>
      <use xlink:href="#DejaVuSans-61" transform="translate(683.871094 0)"/>
      <use xlink:href="#DejaVuSans-74" transform="translate(745.150391 0)"/>
      <use xlink:href="#DejaVuSans-69" transform="translate(784.359375 0)"/>
      <use xlink:href="#DejaVuSans-6f" transform="translate(812.142578 0)"/>
      <use xlink:href="#DejaVuSans-6e" transform="translate(873.324219 0)"/>
      <use xlink:href="#DejaVuSans-20" transform="translate(936.703125 0)"/>
      <use xlink:href="#DejaVuSans-5b" transform="translate(968.490234 0)"/>
      <use xlink:href="#DejaVuSans-25" transform="translate(1007.503906 0)"/>
      <use xlink:href="#DejaVuSans-5d" transform="translate(1102.523438 0)"/>
     </g>
    </g>
   </g>
   <g id="matplotlib.axis_2">
    <g id="ytick_1">
     <g id="line2d_15">
      <path d="M 74.471875 363.8775 
L 849.551875 363.8775 
" clip-path="url(#pae5a226b8f)" style="fill: none; stroke-dasharray: 2.96,1.28; stroke-dashoffset: 0; stroke: #ffffff; stroke-opacity: 0.3; stroke-width: 0.8"/>
     </g>
     <g id="line2d_16">
      <defs>
       <path id="mf79e223d22" d="M 0 0 
L -3.5 0 
" style="stroke: #ffffff; stroke-width: 0.8"/>
      </defs>
      <g>
       <use xlink:href="#mf79e223d22" x="74.471875" y="363.8775" style="fill: #ffffff; stroke: #ffffff; stroke-width: 0.8"/>
      </g>
     </g>
     <g id="text_9">
      <!-- 0 -->
      <g style="fill: #ffffff" transform="translate(58.564375 369.196406) scale(0.14 -0.14)">
       <use xlink:href="#DejaVuSans-30"/>
      </g>
     </g>
    </g>
    <g id="ytick_2">
     <g id="line2d_17">
      <path d="M 74.471875 319.288619 
L 849.551875 319.288619 
" clip-path="url(#pae5a226b8f)" style="fill: none; stroke-dasharray: 2.96,1.28; stroke-dashoffset: 0; stroke: #ffffff; stroke-opacity: 0.3; stroke-width: 0.8"/>
     </g>
     <g id="line2d_18">
      <g>
       <use xlink:href="#mf79e223d22" x="74.471875" y="319.288619" style="fill: #ffffff; stroke: #ffffff; stroke-width: 0.8"/>
      </g>
     </g>
     <g id="text_10">
      <!-- 20 -->
      <g style="fill: #ffffff" transform="translate(49.656875 324.607525) scale(0.14 -0.14)">
       <use xlink:href="#DejaVuSans-32"/>
       <use xlink:href="#DejaVuSans-30" transform="translate(63.623047 0)"/>
      </g>
     </g>
    </g>
    <g id="ytick_3">
     <g id="line2d_19">
      <path d="M 74.471875 274.699738 
L 849.551875 274.699738 
" clip-path="url(#pae5a226b8f)" style="fill: none; stroke-dasharray: 2.96,1.28; stroke-dashoffset: 0; stroke: #ffffff; stroke-opacity: 0.3; stroke-width: 0.8"/>
     </g>
     <g id="line2d_20">
      <g>
       <use xlink:href="#mf79e223d22" x="74.471875" y="274.699738" style="fill: #ffffff; stroke: #ffffff; stroke-width: 0.8"/>
      </g>
     </g>
     <g id="text_11">
      <!-- 40 -->
      <g style="fill: #ffffff" transform="translate(49.656875 280.018644) scale(0.14 -0.14)">
       <use xlink:href="#DejaVuSans-34"/>
       <use xlink:href="#DejaVuSans-30" transform="translate(63.623047 0)"/>
      </g>
     </g>
    </g>
    <g id="ytick_4">
     <g id="line2d_21">
      <path d="M 74.471875 230.110857 
L 849.551875 230.110857 
" clip-path="url(#pae5a226b8f)" style="fill: none; stroke-dasharray: 2.96,1.28; stroke-dashoffset: 0; stroke: #ffffff; stroke-opacity: 0.3; stroke-width: 0.8"/>
     </g>
     <g id="line2d_22">
      <g>
       <use xlink:href="#mf79e223d22" x="74.471875" y="230.110857" style="fill: #ffffff; stroke: #ffffff; stroke-width: 0.8"/>
      </g>
     </g>
     <g id="text_12">
      <!-- 60 -->
      <g style="fill: #ffffff" transform="translate(49.656875 235.429763) scale(0.14 -0.14)">
       <use xlink:href="#DejaVuSans-36"/>
       <use xlink:href="#DejaVuSans-30" transform="translate(63.623047 0)"/>
      </g>
     </g>
    </g>
    <g id="ytick_5">
     <g id="line2d_23">
      <path d="M 74.471875 185.521976 
L 849.551875 185.521976 
" clip-path="url(#pae5a226b8f)" style="fill: none; stroke-dasharray: 2.96,1.28; stroke-dashoffset: 0; stroke: #ffffff; stroke-opacity: 0.3; stroke-width: 0.8"/>
     </g>
     <g id="line2d_24">
      <g>
       <use xlink:href="#mf79e223d22" x="74.471875" y="185.521976" style="fill: #ffffff; stroke: #ffffff; stroke-width: 0.8"/>
      </g>
     </g>
     <g id="text_13">
      <!-- 80 -->
      <g style="fill: #ffffff" transform="translate(49.656875 190.840882) scale(0.14 -0.14)">
       <defs>
        <path id="DejaVuSans-38" d="M 2034 2216 
Q 1584 2216 1326 1975 
Q 1069 1734 1069 1313 
Q 1069 891 1326 650 
Q 1584 409 2034 409 
Q 2484 409 2743 651 
Q 3003 894 3003 1313 
Q 3003 1734 2745 1975 
Q 2488 2216 2034 2216 
z
M 1403 2484 
Q 997 2584 770 2862 
Q 544 3141 544 3541 
Q 544 4100 942 4425 
Q 1341 4750 2034 4750 
Q 2731 4750 3128 4425 
Q 3525 4100 3525 3541 
Q 3525 3141 3298 2862 
Q 3072 2584 2669 2484 
Q 3125 2378 3379 2068 
Q 3634 1759 3634 1313 
Q 3634 634 3220 271 
Q 2806 -91 2034 -91 
Q 1263 -91 848 271 
Q 434 634 434 1313 
Q 434 1759 690 2068 
Q 947 2378 1403 2484 
z
M 1172 3481 
Q 1172 3119 1398 2916 
Q 1625 2713 2034 2713 
Q 2441 2713 2670 2916 
Q 2900 3119 2900 3481 
Q 2900 3844 2670 4047 
Q 2441 4250 2034 4250 
Q 1625 4250 1398 4047 
Q 1172 3844 1172 3481 
z
" transform="scale(0.015625)"/>
       </defs>
       <use xlink:href="#DejaVuSans-38"/>
       <use xlink:href="#DejaVuSans-30" transform="translate(63.623047 0)"/>
      </g>
     </g>
    </g>
    <g id="ytick_6">
     <g id="line2d_25">
      <path d="M 74.471875 140.933095 
L 849.551875 140.933095 
" clip-path="url(#pae5a226b8f)" style="fill: none; stroke-dasharray: 2.96,1.28; stroke-dashoffset: 0; stroke: #ffffff; stroke-opacity: 0.3; stroke-width: 0.8"/>
     </g>
     <g id="line2d_26">
      <g>
       <use xlink:href="#mf79e223d22" x="74.471875" y="140.933095" style="fill: #ffffff; stroke: #ffffff; stroke-width: 0.8"/>
      </g>
     </g>
     <g id="text_14">
      <!-- 100 -->
      <g style="fill: #ffffff" transform="translate(40.749375 146.252001) scale(0.14 -0.14)">
       <use xlink:href="#DejaVuSans-31"/>
       <use xlink:href="#DejaVuSans-30" transform="translate(63.623047 0)"/>
       <use xlink:href="#DejaVuSans-30" transform="translate(127.246094 0)"/>
      </g>
     </g>
    </g>
    <g id="ytick_7">
     <g id="line2d_27">
      <path d="M 74.471875 96.344214 
L 849.551875 96.344214 
" clip-path="url(#pae5a226b8f)" style="fill: none; stroke-dasharray: 2.96,1.28; stroke-dashoffset: 0; stroke: #ffffff; stroke-opacity: 0.3; stroke-width: 0.8"/>
     </g>
     <g id="line2d_28">
      <g>
       <use xlink:href="#mf79e223d22" x="74.471875" y="96.344214" style="fill: #ffffff; stroke: #ffffff; stroke-width: 0.8"/>
      </g>
     </g>
     <g id="text_15">
      <!-- 120 -->
      <g style="fill: #ffffff" transform="translate(40.749375 101.66312) scale(0.14 -0.14)">
       <use xlink:href="#DejaVuSans-31"/>
       <use xlink:href="#DejaVuSans-32" transform="translate(63.623047 0)"/>
       <use xlink:href="#DejaVuSans-30" transform="translate(127.246094 0)"/>
      </g>
     </g>
    </g>
    <g id="ytick_8">
     <g id="line2d_29">
      <path d="M 74.471875 51.755333 
L 849.551875 51.755333 
" clip-path="url(#pae5a226b8f)" style="fill: none; stroke-dasharray: 2.96,1.28; stroke-dashoffset: 0; stroke: #ffffff; stroke-opacity: 0.3; stroke-width: 0.8"/>
     </g>
     <g id="line2d_30">
      <g>
       <use xlink:href="#mf79e223d22" x="74.471875" y="51.755333" style="fill: #ffffff; stroke: #ffffff; stroke-width: 0.8"/>
      </g>
     </g>
     <g id="text_16">
      <!-- 140 -->
      <g style="fill: #ffffff" transform="translate(40.749375 57.074239) scale(0.14 -0.14)">
       <use xlink:href="#DejaVuSans-31"/>
       <use xlink:href="#DejaVuSans-34" transform="translate(63.623047 0)"/>
       <use xlink:href="#DejaVuSans-30" transform="translate(127.246094 0)"/>
      </g>
     </g>
    </g>
    <g id="text_17">
     <!-- Frequency [] -->
     <g style="fill: #ffffff" transform="translate(17.837813 245.465937) rotate(-90) scale(0.14 -0.14)">
      <defs>
       <path id="DejaVuSans-46" d="M 628 4666 
L 3309 4666 
L 3309 4134 
L 1259 4134 
L 1259 2759 
L 3109 2759 
L 3109 2228 
L 1259 2228 
L 1259 0 
L 628 0 
L 628 4666 
z
" transform="scale(0.015625)"/>
       <path id="DejaVuSans-72" d="M 2631 2963 
Q 2534 3019 2420 3045 
Q 2306 3072 2169 3072 
Q 1681 3072 1420 2755 
Q 1159 2438 1159 1844 
L 1159 0 
L 581 0 
L 581 3500 
L 1159 3500 
L 1159 2956 
Q 1341 3275 1631 3429 
Q 1922 3584 2338 3584 
Q 2397 3584 2469 3576 
Q 2541 3569 2628 3553 
L 2631 2963 
z
" transform="scale(0.015625)"/>
       <path id="DejaVuSans-71" d="M 947 1747 
Q 947 1113 1208 752 
Q 1469 391 1925 391 
Q 2381 391 2643 752 
Q 2906 1113 2906 1747 
Q 2906 2381 2643 2742 
Q 2381 3103 1925 3103 
Q 1469 3103 1208 2742 
Q 947 2381 947 1747 
z
M 2906 525 
Q 2725 213 2448 61 
Q 2172 -91 1784 -91 
Q 1150 -91 751 415 
Q 353 922 353 1747 
Q 353 2572 751 3078 
Q 1150 3584 1784 3584 
Q 2172 3584 2448 3432 
Q 2725 3281 2906 2969 
L 2906 3500 
L 3481 3500 
L 3481 -1331 
L 2906 -1331 
L 2906 525 
z
" transform="scale(0.015625)"/>
       <path id="DejaVuSans-75" d="M 544 1381 
L 544 3500 
L 1119 3500 
L 1119 1403 
Q 1119 906 1312 657 
Q 1506 409 1894 409 
Q 2359 409 2629 706 
Q 2900 1003 2900 1516 
L 2900 3500 
L 3475 3500 
L 3475 0 
L 2900 0 
L 2900 538 
Q 2691 219 2414 64 
Q 2138 -91 1772 -91 
Q 1169 -91 856 284 
Q 544 659 544 1381 
z
M 1991 3584 
L 1991 3584 
z
" transform="scale(0.015625)"/>
       <path id="DejaVuSans-63" d="M 3122 3366 
L 3122 2828 
Q 2878 2963 2633 3030 
Q 2388 3097 2138 3097 
Q 1578 3097 1268 2742 
Q 959 2388 959 1747 
Q 959 1106 1268 751 
Q 1578 397 2138 397 
Q 2388 397 2633 464 
Q 2878 531 3122 666 
L 3122 134 
Q 2881 22 2623 -34 
Q 2366 -91 2075 -91 
Q 1284 -91 818 406 
Q 353 903 353 1747 
Q 353 2603 823 3093 
Q 1294 3584 2113 3584 
Q 2378 3584 2631 3529 
Q 2884 3475 3122 3366 
z
" transform="scale(0.015625)"/>
       <path id="DejaVuSans-79" d="M 2059 -325 
Q 1816 -950 1584 -1140 
Q 1353 -1331 966 -1331 
L 506 -1331 
L 506 -850 
L 844 -850 
Q 1081 -850 1212 -737 
Q 1344 -625 1503 -206 
L 1606 56 
L 191 3500 
L 800 3500 
L 1894 763 
L 2988 3500 
L 3597 3500 
L 2059 -325 
z
" transform="scale(0.015625)"/>
      </defs>
      <use xlink:href="#DejaVuSans-46"/>
      <use xlink:href="#DejaVuSans-72" transform="translate(50.269531 0)"/>
      <use xlink:href="#DejaVuSans-65" transform="translate(89.132812 0)"/>
      <use xlink:href="#DejaVuSans-71" transform="translate(150.65625 0)"/>
      <use xlink:href="#DejaVuSans-75" transform="translate(214.132812 0)"/>
      <use xlink:href="#DejaVuSans-65" transform="translate(277.511719 0)"/>
      <use xlink:href="#DejaVuSans-6e" transform="translate(339.035156 0)"/>
      <use xlink:href="#DejaVuSans-63" transform="translate(402.414062 0)"/>
      <use xlink:href="#DejaVuSans-79" transform="translate(457.394531 0)"/>
      <use xlink:href="#DejaVuSans-20" transform="translate(516.574219 0)"/>
      <use xlink:href="#DejaVuSans-5b" transform="translate(548.361328 0)"/>
      <use xlink:href="#DejaVuSans-5d" transform="translate(587.375 0)"/>
     </g>
    </g>
   </g>
   <g id="line2d_31">
    <path d="M 109.702784 363.8775 
L 523.727682 363.768729 
L 537.834152 363.534505 
L 547.708681 363.1542 
L 554.761916 362.680464 
L 561.109827 362.032505 
L 566.047092 361.329371 
L 570.984357 360.399917 
L 575.216298 359.380481 
L 579.448239 358.112843 
L 582.974856 356.834694 
L 586.501474 355.325256 
L 590.028091 353.555198 
L 593.554709 351.494235 
L 596.376003 349.615423 
L 599.197297 347.515284 
L 602.018591 345.178721 
L 604.839885 342.5914 
L 607.661179 339.740086 
L 610.482473 336.613027 
L 613.303767 333.200333 
L 616.125061 329.494391 
L 619.651678 324.442358 
L 623.178296 318.9219 
L 626.704913 312.938982 
L 630.231531 306.509339 
L 633.758149 299.659368 
L 637.99009 290.938508 
L 642.927354 280.186664 
L 649.275266 265.734057 
L 661.971089 236.647995 
L 666.20303 227.555405 
L 669.729647 220.445322 
L 673.256265 213.878262 
L 676.077559 209.087199 
L 678.898853 204.762841 
L 681.014823 201.854332 
L 683.130794 199.253024 
L 685.246764 196.975302 
L 687.362735 195.035663 
L 689.478705 193.446558 
L 691.594676 192.218262 
L 693.005323 191.603887 
L 694.41597 191.155252 
L 695.826617 190.873661 
L 697.237264 190.759933 
L 698.647911 190.814401 
L 700.058558 191.036905 
L 701.469205 191.426798 
L 702.879852 191.982945 
L 704.995823 193.12523 
L 707.111793 194.630409 
L 709.227764 196.488736 
L 711.343734 198.68826 
L 713.459705 201.214952 
L 715.575675 204.052855 
L 718.396969 208.289976 
L 721.218263 213.002408 
L 724.039557 218.139743 
L 727.566175 225.076961 
L 731.798116 234.012525 
L 736.73538 245.033995 
L 746.609909 267.842058 
L 752.957821 282.215843 
L 757.895085 292.863595 
L 762.127027 301.472221 
L 765.653644 308.216465 
L 769.180262 314.532479 
L 772.706879 320.396701 
L 776.233497 325.796021 
L 779.760114 330.726837 
L 782.581408 334.337147 
L 785.402702 337.656401 
L 788.223996 340.692993 
L 791.04529 343.45746 
L 793.866584 345.962077 
L 796.687878 348.220473 
L 799.509172 350.247267 
L 803.03579 352.478371 
L 806.562407 354.401999 
L 810.089025 356.048707 
L 813.615642 357.448409 
L 814.320966 357.701263 
L 814.320966 357.701263 
" clip-path="url(#pae5a226b8f)" style="fill: none; stroke-dasharray: 7.4,3.2; stroke-dashoffset: 0; stroke: #cf3030; stroke-width: 2"/>
   </g>
   <g id="line2d_32">
    <path d="M 697.485821 363.8775 
L 697.485821 39.3575 
" clip-path="url(#pae5a226b8f)" style="fill: none; stroke-dasharray: 2,3.3; stroke-dashoffset: 0; stroke: #cf3030; stroke-width: 2"/>
   </g>
   <g id="line2d_33">
    <path d="M 109.702784 363.8775 
L 415.107862 363.766685 
L 430.624979 363.518377 
L 440.499508 363.158336 
L 448.258067 362.672362 
L 454.605978 362.073925 
L 460.248566 361.333774 
L 465.185831 360.479129 
L 470.123095 359.384595 
L 474.355036 358.217133 
L 478.586977 356.800919 
L 482.113595 355.403489 
L 485.640212 353.78413 
L 489.16683 351.919324 
L 492.693447 349.785414 
L 496.220065 347.359127 
L 499.746683 344.618184 
L 503.2733 341.541981 
L 506.799918 338.112339 
L 510.326535 334.31431 
L 513.853153 330.137015 
L 517.37977 325.574484 
L 520.906388 320.626493 
L 524.433005 315.299336 
L 527.959623 309.606531 
L 532.191564 302.323104 
L 536.423505 294.596827 
L 541.360769 285.11772 
L 547.708681 272.417322 
L 561.109827 245.400608 
L 566.047092 236.055432 
L 569.57371 229.794001 
L 573.100327 223.974689 
L 575.921621 219.693163 
L 578.742915 215.787422 
L 581.564209 212.294649 
L 583.68018 209.966582 
L 585.79615 207.902797 
L 587.912121 206.114816 
L 590.028091 204.612706 
L 592.144062 203.404984 
L 594.260032 202.498537 
L 596.376003 201.898557 
L 598.491973 201.608493 
L 600.607944 201.630013 
L 602.723914 201.962995 
L 604.839885 202.60552 
L 606.955855 203.5539 
L 609.071826 204.802704 
L 611.187796 206.344815 
L 613.303767 208.171497 
L 615.419737 210.272478 
L 617.535708 212.636042 
L 620.357002 216.173198 
L 623.178296 220.119618 
L 625.99959 224.437807 
L 629.526208 230.296925 
L 633.052825 236.591157 
L 637.284766 244.59747 
L 642.927354 255.794899 
L 659.855118 289.796048 
L 664.792383 299.043794 
L 669.024324 306.525551 
L 673.256265 313.53242 
L 676.782882 318.977379 
L 680.3095 324.046647 
L 683.836117 328.731709 
L 687.362735 333.030805 
L 690.889352 336.948169 
L 694.41597 340.493214 
L 697.942588 343.679691 
L 701.469205 346.524841 
L 704.995823 349.048584 
L 708.52244 351.272746 
L 712.049058 353.220352 
L 715.575675 354.914999 
L 719.102293 356.380301 
L 723.334234 357.868495 
L 727.566175 359.098164 
L 731.798116 360.105305 
L 736.73538 361.043027 
L 742.377968 361.85888 
L 748.72588 362.52195 
L 755.779115 363.024103 
L 764.242997 363.40134 
L 775.528173 363.668996 
L 792.455937 363.822969 
L 814.320966 363.86946 
L 814.320966 363.86946 
" clip-path="url(#pae5a226b8f)" style="fill: none; stroke-dasharray: 7.4,3.2; stroke-dashoffset: 0; stroke: #aaaaaa; stroke-width: 2"/>
   </g>
   <g id="line2d_34">
    <path d="M 599.403926 363.8775 
L 599.403926 39.3575 
" clip-path="url(#pae5a226b8f)" style="fill: none; stroke-dasharray: 2,3.3; stroke-dashoffset: 0; stroke: #aaaaaa; stroke-width: 2"/>
   </g>
   <g id="line2d_35">
    <path d="M 109.702784 354.953706 
L 111.818755 352.771025 
L 113.934725 350.150487 
L 116.050696 347.029477 
L 118.166666 343.342491 
L 120.282637 339.022491 
L 122.398607 334.002628 
L 124.514578 328.218328 
L 126.630548 321.609711 
L 128.746519 314.124315 
L 130.862489 305.720054 
L 132.97846 296.368318 
L 135.09443 286.057103 
L 137.210401 274.794031 
L 140.031695 258.351337 
L 142.852989 240.413034 
L 146.379606 216.2382 
L 151.316871 180.308076 
L 157.664782 134.15081 
L 160.486076 115.128786 
L 162.602047 101.973892 
L 164.718018 90.038565 
L 166.833988 79.547954 
L 168.244635 73.458584 
L 169.655282 68.156265 
L 171.065929 63.688466 
L 172.476576 60.095639 
L 173.887223 57.410615 
L 174.592547 56.416577 
L 175.29787 55.658098 
L 176.003194 55.136934 
L 176.708517 54.854294 
L 177.413841 54.810833 
L 178.119164 55.006654 
L 178.824488 55.441301 
L 179.529811 56.113766 
L 180.235135 57.02249 
L 180.940458 58.16537 
L 182.351105 61.142523 
L 183.761752 65.017885 
L 185.172399 69.75614 
L 186.583046 75.314528 
L 187.993693 81.643494 
L 190.109664 92.458645 
L 192.225634 104.672265 
L 195.046928 122.735108 
L 198.573546 147.359748 
L 211.269369 238.717329 
L 214.090663 256.781586 
L 216.911957 273.367104 
L 219.027927 284.743844 
L 221.143898 295.171119 
L 223.259868 304.638735 
L 225.375839 313.156477 
L 227.491809 320.751112 
L 229.60778 327.46326 
L 231.723751 333.344288 
L 233.839721 338.453328 
L 235.955692 342.854523 
L 238.071662 346.614562 
L 240.187633 349.80056 
L 242.303603 352.478286 
L 244.419574 354.710766 
L 246.535544 356.557224 
L 248.651515 358.072352 
L 250.767485 359.305857 
L 252.883456 360.302267 
L 255.70475 361.329271 
L 258.526044 362.083628 
L 262.052661 362.740749 
L 265.579279 363.170969 
L 270.516543 363.526055 
L 276.864455 363.742069 
L 287.444307 363.853459 
L 322.005159 363.877475 
L 814.320966 363.8775 
L 814.320966 363.8775 
" clip-path="url(#pae5a226b8f)" style="fill: none; stroke-dasharray: 7.4,3.2; stroke-dashoffset: 0; stroke: #30a0cf; stroke-width: 2"/>
   </g>
   <g id="line2d_36">
    <path d="M 177.18926 363.8775 
L 177.18926 39.3575 
" clip-path="url(#pae5a226b8f)" style="fill: none; stroke-dasharray: 2,3.3; stroke-dashoffset: 0; stroke: #30a0cf; stroke-width: 2"/>
   </g>
   <g id="patch_123">
    <path d="M 74.471875 363.8775 
L 74.471875 39.3575 
" style="fill: none; stroke: #ffffff; stroke-width: 0.8; stroke-linejoin: miter; stroke-linecap: square"/>
   </g>
   <g id="patch_124">
    <path d="M 849.551875 363.8775 
L 849.551875 39.3575 
" style="fill: none; stroke: #ffffff; stroke-width: 0.8; stroke-linejoin: miter; stroke-linecap: square"/>
   </g>
   <g id="patch_125">
    <path d="M 74.471875 363.8775 
L 849.551875 363.8775 
" style="fill: none; stroke: #ffffff; stroke-width: 0.8; stroke-linejoin: miter; stroke-linecap: square"/>
   </g>
   <g id="patch_126">
    <path d="M 74.471875 39.3575 
L 849.551875 39.3575 
" style="fill: none; stroke: #ffffff; stroke-width: 0.8; stroke-linejoin: miter; stroke-linecap: square"/>
   </g>
   <g id="text_18">
    <!-- Comparison of Effectors Weapon Utilization -->
    <g style="fill: #ffffff" transform="translate(288.343125 19.3575) scale(0.16 -0.16)">
     <defs>
      <path id="DejaVuSans-43" d="M 4122 4306 
L 4122 3641 
Q 3803 3938 3442 4084 
Q 3081 4231 2675 4231 
Q 1875 4231 1450 3742 
Q 1025 3253 1025 2328 
Q 1025 1406 1450 917 
Q 1875 428 2675 428 
Q 3081 428 3442 575 
Q 3803 722 4122 1019 
L 4122 359 
Q 3791 134 3420 21 
Q 3050 -91 2638 -91 
Q 1578 -91 968 557 
Q 359 1206 359 2328 
Q 359 3453 968 4101 
Q 1578 4750 2638 4750 
Q 3056 4750 3426 4639 
Q 3797 4528 4122 4306 
z
" transform="scale(0.015625)"/>
      <path id="DejaVuSans-6d" d="M 3328 2828 
Q 3544 3216 3844 3400 
Q 4144 3584 4550 3584 
Q 5097 3584 5394 3201 
Q 5691 2819 5691 2113 
L 5691 0 
L 5113 0 
L 5113 2094 
Q 5113 2597 4934 2840 
Q 4756 3084 4391 3084 
Q 3944 3084 3684 2787 
Q 3425 2491 3425 1978 
L 3425 0 
L 2847 0 
L 2847 2094 
Q 2847 2600 2669 2842 
Q 2491 3084 2119 3084 
Q 1678 3084 1418 2786 
Q 1159 2488 1159 1978 
L 1159 0 
L 581 0 
L 581 3500 
L 1159 3500 
L 1159 2956 
Q 1356 3278 1631 3431 
Q 1906 3584 2284 3584 
Q 2666 3584 2933 3390 
Q 3200 3197 3328 2828 
z
" transform="scale(0.015625)"/>
      <path id="DejaVuSans-73" d="M 2834 3397 
L 2834 2853 
Q 2591 2978 2328 3040 
Q 2066 3103 1784 3103 
Q 1356 3103 1142 2972 
Q 928 2841 928 2578 
Q 928 2378 1081 2264 
Q 1234 2150 1697 2047 
L 1894 2003 
Q 2506 1872 2764 1633 
Q 3022 1394 3022 966 
Q 3022 478 2636 193 
Q 2250 -91 1575 -91 
Q 1294 -91 989 -36 
Q 684 19 347 128 
L 347 722 
Q 666 556 975 473 
Q 1284 391 1588 391 
Q 1994 391 2212 530 
Q 2431 669 2431 922 
Q 2431 1156 2273 1281 
Q 2116 1406 1581 1522 
L 1381 1569 
Q 847 1681 609 1914 
Q 372 2147 372 2553 
Q 372 3047 722 3315 
Q 1072 3584 1716 3584 
Q 2034 3584 2315 3537 
Q 2597 3491 2834 3397 
z
" transform="scale(0.015625)"/>
      <path id="DejaVuSans-66" d="M 2375 4863 
L 2375 4384 
L 1825 4384 
Q 1516 4384 1395 4259 
Q 1275 4134 1275 3809 
L 1275 3500 
L 2222 3500 
L 2222 3053 
L 1275 3053 
L 1275 0 
L 697 0 
L 697 3053 
L 147 3053 
L 147 3500 
L 697 3500 
L 697 3744 
Q 697 4328 969 4595 
Q 1241 4863 1831 4863 
L 2375 4863 
z
" transform="scale(0.015625)"/>
      <path id="DejaVuSans-45" d="M 628 4666 
L 3578 4666 
L 3578 4134 
L 1259 4134 
L 1259 2753 
L 3481 2753 
L 3481 2222 
L 1259 2222 
L 1259 531 
L 3634 531 
L 3634 0 
L 628 0 
L 628 4666 
z
" transform="scale(0.015625)"/>
     </defs>
     <use xlink:href="#DejaVuSans-43"/>
     <use xlink:href="#DejaVuSans-6f" transform="translate(69.824219 0)"/>
     <use xlink:href="#DejaVuSans-6d" transform="translate(131.005859 0)"/>
     <use xlink:href="#DejaVuSans-70" transform="translate(228.417969 0)"/>
     <use xlink:href="#DejaVuSans-61" transform="translate(291.894531 0)"/>
     <use xlink:href="#DejaVuSans-72" transform="translate(353.173828 0)"/>
     <use xlink:href="#DejaVuSans-69" transform="translate(394.287109 0)"/>
     <use xlink:href="#DejaVuSans-73" transform="translate(422.070312 0)"/>
     <use xlink:href="#DejaVuSans-6f" transform="translate(474.169922 0)"/>
     <use xlink:href="#DejaVuSans-6e" transform="translate(535.351562 0)"/>
     <use xlink:href="#DejaVuSans-20" transform="translate(598.730469 0)"/>
     <use xlink:href="#DejaVuSans-6f" transform="translate(630.517578 0)"/>
     <use xlink:href="#DejaVuSans-66" transform="translate(691.699219 0)"/>
     <use xlink:href="#DejaVuSans-20" transform="translate(726.904297 0)"/>
     <use xlink:href="#DejaVuSans-45" transform="translate(758.691406 0)"/>
     <use xlink:href="#DejaVuSans-66" transform="translate(821.875 0)"/>
     <use xlink:href="#DejaVuSans-66" transform="translate(857.080078 0)"/>
     <use xlink:href="#DejaVuSans-65" transform="translate(892.285156 0)"/>
     <use xlink:href="#DejaVuSans-63" transform="translate(953.808594 0)"/>
     <use xlink:href="#DejaVuSans-74" transform="translate(1008.789062 0)"/>
     <use xlink:href="#DejaVuSans-6f" transform="translate(1047.998047 0)"/>
     <use xlink:href="#DejaVuSans-72" transform="translate(1109.179688 0)"/>
     <use xlink:href="#DejaVuSans-73" transform="translate(1150.292969 0)"/>
     <use xlink:href="#DejaVuSans-20" transform="translate(1202.392578 0)"/>
     <use xlink:href="#DejaVuSans-57" transform="translate(1234.179688 0)"/>
     <use xlink:href="#DejaVuSans-65" transform="translate(1327.181641 0)"/>
     <use xlink:href="#DejaVuSans-61" transform="translate(1388.705078 0)"/>
     <use xlink:href="#DejaVuSans-70" transform="translate(1449.984375 0)"/>
     <use xlink:href="#DejaVuSans-6f" transform="translate(1513.460938 0)"/>
     <use xlink:href="#DejaVuSans-6e" transform="translate(1574.642578 0)"/>
     <use xlink:href="#DejaVuSans-20" transform="translate(1638.021484 0)"/>
     <use xlink:href="#DejaVuSans-55" transform="translate(1669.808594 0)"/>
     <use xlink:href="#DejaVuSans-74" transform="translate(1743.001953 0)"/>
     <use xlink:href="#DejaVuSans-69" transform="translate(1782.210938 0)"/>
     <use xlink:href="#DejaVuSans-6c" transform="translate(1809.994141 0)"/>
     <use xlink:href="#DejaVuSans-69" transform="translate(1837.777344 0)"/>
     <use xlink:href="#DejaVuSans-7a" transform="translate(1865.560547 0)"/>
     <use xlink:href="#DejaVuSans-61" transform="translate(1918.050781 0)"/>
     <use xlink:href="#DejaVuSans-74" transform="translate(1979.330078 0)"/>
     <use xlink:href="#DejaVuSans-69" transform="translate(2018.539062 0)"/>
     <use xlink:href="#DejaVuSans-6f" transform="translate(2046.322266 0)"/>
     <use xlink:href="#DejaVuSans-6e" transform="translate(2107.503906 0)"/>
    </g>
   </g>
   <g id="legend_1">
    <g id="patch_127">
     <path d="M 329.926563 154.64 
L 594.097188 154.64 
Q 596.497188 154.64 596.497188 152.24 
L 596.497188 47.7575 
Q 596.497188 45.3575 594.097188 45.3575 
L 329.926563 45.3575 
Q 327.526563 45.3575 327.526563 47.7575 
L 327.526563 152.24 
Q 327.526563 154.64 329.926563 154.64 
z
" style="opacity: 0.8; stroke: #cccccc; stroke-linejoin: miter"/>
    </g>
    <g id="patch_128">
     <path d="M 332.326563 59.275625 
L 356.326563 59.275625 
L 356.326563 50.875625 
L 332.326563 50.875625 
z
" style="fill: #cf3030; opacity: 0.6; stroke: #cf3030; stroke-linejoin: miter"/>
    </g>
    <g id="text_19">
     <!-- DeepRL Histogram -->
     <g style="fill: #ffffff" transform="translate(365.926563 59.275625) scale(0.12 -0.12)">
      <defs>
       <path id="DejaVuSans-44" d="M 1259 4147 
L 1259 519 
L 2022 519 
Q 2988 519 3436 956 
Q 3884 1394 3884 2338 
Q 3884 3275 3436 3711 
Q 2988 4147 2022 4147 
L 1259 4147 
z
M 628 4666 
L 1925 4666 
Q 3281 4666 3915 4102 
Q 4550 3538 4550 2338 
Q 4550 1131 3912 565 
Q 3275 0 1925 0 
L 628 0 
L 628 4666 
z
" transform="scale(0.015625)"/>
       <path id="DejaVuSans-52" d="M 2841 2188 
Q 3044 2119 3236 1894 
Q 3428 1669 3622 1275 
L 4263 0 
L 3584 0 
L 2988 1197 
Q 2756 1666 2539 1819 
Q 2322 1972 1947 1972 
L 1259 1972 
L 1259 0 
L 628 0 
L 628 4666 
L 2053 4666 
Q 2853 4666 3247 4331 
Q 3641 3997 3641 3322 
Q 3641 2881 3436 2590 
Q 3231 2300 2841 2188 
z
M 1259 4147 
L 1259 2491 
L 2053 2491 
Q 2509 2491 2742 2702 
Q 2975 2913 2975 3322 
Q 2975 3731 2742 3939 
Q 2509 4147 2053 4147 
L 1259 4147 
z
" transform="scale(0.015625)"/>
       <path id="DejaVuSans-4c" d="M 628 4666 
L 1259 4666 
L 1259 531 
L 3531 531 
L 3531 0 
L 628 0 
L 628 4666 
z
" transform="scale(0.015625)"/>
       <path id="DejaVuSans-48" d="M 628 4666 
L 1259 4666 
L 1259 2753 
L 3553 2753 
L 3553 4666 
L 4184 4666 
L 4184 0 
L 3553 0 
L 3553 2222 
L 1259 2222 
L 1259 0 
L 628 0 
L 628 4666 
z
" transform="scale(0.015625)"/>
       <path id="DejaVuSans-67" d="M 2906 1791 
Q 2906 2416 2648 2759 
Q 2391 3103 1925 3103 
Q 1463 3103 1205 2759 
Q 947 2416 947 1791 
Q 947 1169 1205 825 
Q 1463 481 1925 481 
Q 2391 481 2648 825 
Q 2906 1169 2906 1791 
z
M 3481 434 
Q 3481 -459 3084 -895 
Q 2688 -1331 1869 -1331 
Q 1566 -1331 1297 -1286 
Q 1028 -1241 775 -1147 
L 775 -588 
Q 1028 -725 1275 -790 
Q 1522 -856 1778 -856 
Q 2344 -856 2625 -561 
Q 2906 -266 2906 331 
L 2906 616 
Q 2728 306 2450 153 
Q 2172 0 1784 0 
Q 1141 0 747 490 
Q 353 981 353 1791 
Q 353 2603 747 3093 
Q 1141 3584 1784 3584 
Q 2172 3584 2450 3431 
Q 2728 3278 2906 2969 
L 2906 3500 
L 3481 3500 
L 3481 434 
z
" transform="scale(0.015625)"/>
      </defs>
      <use xlink:href="#DejaVuSans-44"/>
      <use xlink:href="#DejaVuSans-65" transform="translate(77.001953 0)"/>
      <use xlink:href="#DejaVuSans-65" transform="translate(138.525391 0)"/>
      <use xlink:href="#DejaVuSans-70" transform="translate(200.048828 0)"/>
      <use xlink:href="#DejaVuSans-52" transform="translate(263.525391 0)"/>
      <use xlink:href="#DejaVuSans-4c" transform="translate(333.007812 0)"/>
      <use xlink:href="#DejaVuSans-20" transform="translate(388.720703 0)"/>
      <use xlink:href="#DejaVuSans-48" transform="translate(420.507812 0)"/>
      <use xlink:href="#DejaVuSans-69" transform="translate(495.703125 0)"/>
      <use xlink:href="#DejaVuSans-73" transform="translate(523.486328 0)"/>
      <use xlink:href="#DejaVuSans-74" transform="translate(575.585938 0)"/>
      <use xlink:href="#DejaVuSans-6f" transform="translate(614.794922 0)"/>
      <use xlink:href="#DejaVuSans-67" transform="translate(675.976562 0)"/>
      <use xlink:href="#DejaVuSans-72" transform="translate(739.453125 0)"/>
      <use xlink:href="#DejaVuSans-61" transform="translate(780.566406 0)"/>
      <use xlink:href="#DejaVuSans-6d" transform="translate(841.845703 0)"/>
     </g>
    </g>
    <g id="patch_129">
     <path d="M 332.326563 76.889375 
L 356.326563 76.889375 
L 356.326563 68.489375 
L 332.326563 68.489375 
z
" style="fill: #aaaaaa; opacity: 0.6; stroke: #aaaaaa; stroke-linejoin: miter"/>
    </g>
    <g id="text_20">
     <!-- Classic Histogram -->
     <g style="fill: #ffffff" transform="translate(365.926563 76.889375) scale(0.12 -0.12)">
      <use xlink:href="#DejaVuSans-43"/>
      <use xlink:href="#DejaVuSans-6c" transform="translate(69.824219 0)"/>
      <use xlink:href="#DejaVuSans-61" transform="translate(97.607422 0)"/>
      <use xlink:href="#DejaVuSans-73" transform="translate(158.886719 0)"/>
      <use xlink:href="#DejaVuSans-73" transform="translate(210.986328 0)"/>
      <use xlink:href="#DejaVuSans-69" transform="translate(263.085938 0)"/>
      <use xlink:href="#DejaVuSans-63" transform="translate(290.869141 0)"/>
      <use xlink:href="#DejaVuSans-20" transform="translate(345.849609 0)"/>
      <use xlink:href="#DejaVuSans-48" transform="translate(377.636719 0)"/>
      <use xlink:href="#DejaVuSans-69" transform="translate(452.832031 0)"/>
      <use xlink:href="#DejaVuSans-73" transform="translate(480.615234 0)"/>
      <use xlink:href="#DejaVuSans-74" transform="translate(532.714844 0)"/>
      <use xlink:href="#DejaVuSans-6f" transform="translate(571.923828 0)"/>
      <use xlink:href="#DejaVuSans-67" transform="translate(633.105469 0)"/>
      <use xlink:href="#DejaVuSans-72" transform="translate(696.582031 0)"/>
      <use xlink:href="#DejaVuSans-61" transform="translate(737.695312 0)"/>
      <use xlink:href="#DejaVuSans-6d" transform="translate(798.974609 0)"/>
     </g>
    </g>
    <g id="patch_130">
     <path d="M 332.326563 94.503125 
L 356.326563 94.503125 
L 356.326563 86.103125 
L 332.326563 86.103125 
z
" style="fill: #30a0cf; opacity: 0.6; stroke: #30a0cf; stroke-linejoin: miter"/>
    </g>
    <g id="text_21">
     <!-- Random Histogram -->
     <g style="fill: #ffffff" transform="translate(365.926563 94.503125) scale(0.12 -0.12)">
      <defs>
       <path id="DejaVuSans-64" d="M 2906 2969 
L 2906 4863 
L 3481 4863 
L 3481 0 
L 2906 0 
L 2906 525 
Q 2725 213 2448 61 
Q 2172 -91 1784 -91 
Q 1150 -91 751 415 
Q 353 922 353 1747 
Q 353 2572 751 3078 
Q 1150 3584 1784 3584 
Q 2172 3584 2448 3432 
Q 2725 3281 2906 2969 
z
M 947 1747 
Q 947 1113 1208 752 
Q 1469 391 1925 391 
Q 2381 391 2643 752 
Q 2906 1113 2906 1747 
Q 2906 2381 2643 2742 
Q 2381 3103 1925 3103 
Q 1469 3103 1208 2742 
Q 947 2381 947 1747 
z
" transform="scale(0.015625)"/>
      </defs>
      <use xlink:href="#DejaVuSans-52"/>
      <use xlink:href="#DejaVuSans-61" transform="translate(67.232422 0)"/>
      <use xlink:href="#DejaVuSans-6e" transform="translate(128.511719 0)"/>
      <use xlink:href="#DejaVuSans-64" transform="translate(191.890625 0)"/>
      <use xlink:href="#DejaVuSans-6f" transform="translate(255.367188 0)"/>
      <use xlink:href="#DejaVuSans-6d" transform="translate(316.548828 0)"/>
      <use xlink:href="#DejaVuSans-20" transform="translate(413.960938 0)"/>
      <use xlink:href="#DejaVuSans-48" transform="translate(445.748047 0)"/>
      <use xlink:href="#DejaVuSans-69" transform="translate(520.943359 0)"/>
      <use xlink:href="#DejaVuSans-73" transform="translate(548.726562 0)"/>
      <use xlink:href="#DejaVuSans-74" transform="translate(600.826172 0)"/>
      <use xlink:href="#DejaVuSans-6f" transform="translate(640.035156 0)"/>
      <use xlink:href="#DejaVuSans-67" transform="translate(701.216797 0)"/>
      <use xlink:href="#DejaVuSans-72" transform="translate(764.693359 0)"/>
      <use xlink:href="#DejaVuSans-61" transform="translate(805.806641 0)"/>
      <use xlink:href="#DejaVuSans-6d" transform="translate(867.085938 0)"/>
     </g>
    </g>
    <g id="line2d_37">
     <path d="M 332.326563 107.916875 
L 344.326563 107.916875 
L 356.326563 107.916875 
" style="fill: none; stroke-dasharray: 7.4,3.2; stroke-dashoffset: 0; stroke: #cf3030; stroke-width: 2"/>
    </g>
    <g id="text_22">
     <!-- DeepRL Gaussian (=62.79, =3.89) -->
     <g style="fill: #ffffff" transform="translate(365.926563 112.116875) scale(0.12 -0.12)">
      <defs>
       <path id="DejaVuSans-47" d="M 3809 666 
L 3809 1919 
L 2778 1919 
L 2778 2438 
L 4434 2438 
L 4434 434 
Q 4069 175 3628 42 
Q 3188 -91 2688 -91 
Q 1594 -91 976 548 
Q 359 1188 359 2328 
Q 359 3472 976 4111 
Q 1594 4750 2688 4750 
Q 3144 4750 3555 4637 
Q 3966 4525 4313 4306 
L 4313 3634 
Q 3963 3931 3569 4081 
Q 3175 4231 2741 4231 
Q 1884 4231 1454 3753 
Q 1025 3275 1025 2328 
Q 1025 1384 1454 906 
Q 1884 428 2741 428 
Q 3075 428 3337 486 
Q 3600 544 3809 666 
z
" transform="scale(0.015625)"/>
       <path id="DejaVuSans-28" d="M 1984 4856 
Q 1566 4138 1362 3434 
Q 1159 2731 1159 2009 
Q 1159 1288 1364 580 
Q 1569 -128 1984 -844 
L 1484 -844 
Q 1016 -109 783 600 
Q 550 1309 550 2009 
Q 550 2706 781 3412 
Q 1013 4119 1484 4856 
L 1984 4856 
z
" transform="scale(0.015625)"/>
       <path id="DejaVuSans-3bc" d="M 544 -1331 
L 544 3500 
L 1119 3500 
L 1119 1325 
Q 1119 872 1334 640 
Q 1550 409 1972 409 
Q 2434 409 2667 671 
Q 2900 934 2900 1459 
L 2900 3500 
L 3475 3500 
L 3475 806 
Q 3475 619 3529 530 
Q 3584 441 3700 441 
Q 3728 441 3778 458 
Q 3828 475 3916 513 
L 3916 50 
Q 3788 -22 3673 -56 
Q 3559 -91 3450 -91 
Q 3234 -91 3106 31 
Q 2978 153 2931 403 
Q 2775 156 2548 32 
Q 2322 -91 2016 -91 
Q 1697 -91 1473 31 
Q 1250 153 1119 397 
L 1119 -1331 
L 544 -1331 
z
" transform="scale(0.015625)"/>
       <path id="DejaVuSans-3d" d="M 678 2906 
L 4684 2906 
L 4684 2381 
L 678 2381 
L 678 2906 
z
M 678 1631 
L 4684 1631 
L 4684 1100 
L 678 1100 
L 678 1631 
z
" transform="scale(0.015625)"/>
       <path id="DejaVuSans-2e" d="M 684 794 
L 1344 794 
L 1344 0 
L 684 0 
L 684 794 
z
" transform="scale(0.015625)"/>
       <path id="DejaVuSans-39" d="M 703 97 
L 703 672 
Q 941 559 1184 500 
Q 1428 441 1663 441 
Q 2288 441 2617 861 
Q 2947 1281 2994 2138 
Q 2813 1869 2534 1725 
Q 2256 1581 1919 1581 
Q 1219 1581 811 2004 
Q 403 2428 403 3163 
Q 403 3881 828 4315 
Q 1253 4750 1959 4750 
Q 2769 4750 3195 4129 
Q 3622 3509 3622 2328 
Q 3622 1225 3098 567 
Q 2575 -91 1691 -91 
Q 1453 -91 1209 -44 
Q 966 3 703 97 
z
M 1959 2075 
Q 2384 2075 2632 2365 
Q 2881 2656 2881 3163 
Q 2881 3666 2632 3958 
Q 2384 4250 1959 4250 
Q 1534 4250 1286 3958 
Q 1038 3666 1038 3163 
Q 1038 2656 1286 2365 
Q 1534 2075 1959 2075 
z
" transform="scale(0.015625)"/>
       <path id="DejaVuSans-2c" d="M 750 794 
L 1409 794 
L 1409 256 
L 897 -744 
L 494 -744 
L 750 256 
L 750 794 
z
" transform="scale(0.015625)"/>
       <path id="DejaVuSans-3c3" d="M 1959 3044 
Q 1484 3044 1228 2700 
Q 959 2341 959 1747 
Q 959 1119 1226 758 
Q 1494 397 1959 397 
Q 2419 397 2687 759 
Q 2956 1122 2956 1747 
Q 2956 2319 2688 2700 
Q 2441 3044 1959 3044 
z
M 1959 3500 
L 3869 3500 
L 3869 2925 
L 3225 2925 
Q 3566 2438 3566 1747 
Q 3566 888 3138 400 
Q 2709 -91 1959 -91 
Q 1206 -91 781 400 
Q 353 888 353 1747 
Q 353 2613 781 3097 
Q 1134 3500 1959 3500 
z
" transform="scale(0.015625)"/>
       <path id="DejaVuSans-29" d="M 513 4856 
L 1013 4856 
Q 1481 4119 1714 3412 
Q 1947 2706 1947 2009 
Q 1947 1309 1714 600 
Q 1481 -109 1013 -844 
L 513 -844 
Q 928 -128 1133 580 
Q 1338 1288 1338 2009 
Q 1338 2731 1133 3434 
Q 928 4138 513 4856 
z
" transform="scale(0.015625)"/>
      </defs>
      <use xlink:href="#DejaVuSans-44"/>
      <use xlink:href="#DejaVuSans-65" transform="translate(77.001953 0)"/>
      <use xlink:href="#DejaVuSans-65" transform="translate(138.525391 0)"/>
      <use xlink:href="#DejaVuSans-70" transform="translate(200.048828 0)"/>
      <use xlink:href="#DejaVuSans-52" transform="translate(263.525391 0)"/>
      <use xlink:href="#DejaVuSans-4c" transform="translate(333.007812 0)"/>
      <use xlink:href="#DejaVuSans-20" transform="translate(388.720703 0)"/>
      <use xlink:href="#DejaVuSans-47" transform="translate(420.507812 0)"/>
      <use xlink:href="#DejaVuSans-61" transform="translate(497.998047 0)"/>
      <use xlink:href="#DejaVuSans-75" transform="translate(559.277344 0)"/>
      <use xlink:href="#DejaVuSans-73" transform="translate(622.65625 0)"/>
      <use xlink:href="#DejaVuSans-73" transform="translate(674.755859 0)"/>
      <use xlink:href="#DejaVuSans-69" transform="translate(726.855469 0)"/>
      <use xlink:href="#DejaVuSans-61" transform="translate(754.638672 0)"/>
      <use xlink:href="#DejaVuSans-6e" transform="translate(815.917969 0)"/>
      <use xlink:href="#DejaVuSans-20" transform="translate(879.296875 0)"/>
      <use xlink:href="#DejaVuSans-28" transform="translate(911.083984 0)"/>
      <use xlink:href="#DejaVuSans-3bc" transform="translate(950.097656 0)"/>
      <use xlink:href="#DejaVuSans-3d" transform="translate(1013.720703 0)"/>
      <use xlink:href="#DejaVuSans-36" transform="translate(1097.509766 0)"/>
      <use xlink:href="#DejaVuSans-32" transform="translate(1161.132812 0)"/>
      <use xlink:href="#DejaVuSans-2e" transform="translate(1224.755859 0)"/>
      <use xlink:href="#DejaVuSans-37" transform="translate(1256.542969 0)"/>
      <use xlink:href="#DejaVuSans-39" transform="translate(1320.166016 0)"/>
      <use xlink:href="#DejaVuSans-2c" transform="translate(1383.789062 0)"/>
      <use xlink:href="#DejaVuSans-20" transform="translate(1415.576172 0)"/>
      <use xlink:href="#DejaVuSans-3c3" transform="translate(1447.363281 0)"/>
      <use xlink:href="#DejaVuSans-3d" transform="translate(1510.742188 0)"/>
      <use xlink:href="#DejaVuSans-33" transform="translate(1594.53125 0)"/>
      <use xlink:href="#DejaVuSans-2e" transform="translate(1658.154297 0)"/>
      <use xlink:href="#DejaVuSans-38" transform="translate(1689.941406 0)"/>
      <use xlink:href="#DejaVuSans-39" transform="translate(1753.564453 0)"/>
      <use xlink:href="#DejaVuSans-29" transform="translate(1817.1875 0)"/>
     </g>
    </g>
    <g id="line2d_38">
     <path d="M 332.326563 125.530625 
L 344.326563 125.530625 
L 356.326563 125.530625 
" style="fill: none; stroke-dasharray: 7.4,3.2; stroke-dashoffset: 0; stroke: #aaaaaa; stroke-width: 2"/>
    </g>
    <g id="text_23">
     <!-- Classic Gaussian (=54.35, =4.15) -->
     <g style="fill: #ffffff" transform="translate(365.926563 129.730625) scale(0.12 -0.12)">
      <use xlink:href="#DejaVuSans-43"/>
      <use xlink:href="#DejaVuSans-6c" transform="translate(69.824219 0)"/>
      <use xlink:href="#DejaVuSans-61" transform="translate(97.607422 0)"/>
      <use xlink:href="#DejaVuSans-73" transform="translate(158.886719 0)"/>
      <use xlink:href="#DejaVuSans-73" transform="translate(210.986328 0)"/>
      <use xlink:href="#DejaVuSans-69" transform="translate(263.085938 0)"/>
      <use xlink:href="#DejaVuSans-63" transform="translate(290.869141 0)"/>
      <use xlink:href="#DejaVuSans-20" transform="translate(345.849609 0)"/>
      <use xlink:href="#DejaVuSans-47" transform="translate(377.636719 0)"/>
      <use xlink:href="#DejaVuSans-61" transform="translate(455.126953 0)"/>
      <use xlink:href="#DejaVuSans-75" transform="translate(516.40625 0)"/>
      <use xlink:href="#DejaVuSans-73" transform="translate(579.785156 0)"/>
      <use xlink:href="#DejaVuSans-73" transform="translate(631.884766 0)"/>
      <use xlink:href="#DejaVuSans-69" transform="translate(683.984375 0)"/>
      <use xlink:href="#DejaVuSans-61" transform="translate(711.767578 0)"/>
      <use xlink:href="#DejaVuSans-6e" transform="translate(773.046875 0)"/>
      <use xlink:href="#DejaVuSans-20" transform="translate(836.425781 0)"/>
      <use xlink:href="#DejaVuSans-28" transform="translate(868.212891 0)"/>
      <use xlink:href="#DejaVuSans-3bc" transform="translate(907.226562 0)"/>
      <use xlink:href="#DejaVuSans-3d" transform="translate(970.849609 0)"/>
      <use xlink:href="#DejaVuSans-35" transform="translate(1054.638672 0)"/>
      <use xlink:href="#DejaVuSans-34" transform="translate(1118.261719 0)"/>
      <use xlink:href="#DejaVuSans-2e" transform="translate(1181.884766 0)"/>
      <use xlink:href="#DejaVuSans-33" transform="translate(1213.671875 0)"/>
      <use xlink:href="#DejaVuSans-35" transform="translate(1277.294922 0)"/>
      <use xlink:href="#DejaVuSans-2c" transform="translate(1340.917969 0)"/>
      <use xlink:href="#DejaVuSans-20" transform="translate(1372.705078 0)"/>
      <use xlink:href="#DejaVuSans-3c3" transform="translate(1404.492188 0)"/>
      <use xlink:href="#DejaVuSans-3d" transform="translate(1467.871094 0)"/>
      <use xlink:href="#DejaVuSans-34" transform="translate(1551.660156 0)"/>
      <use xlink:href="#DejaVuSans-2e" transform="translate(1615.283203 0)"/>
      <use xlink:href="#DejaVuSans-31" transform="translate(1647.070312 0)"/>
      <use xlink:href="#DejaVuSans-35" transform="translate(1710.693359 0)"/>
      <use xlink:href="#DejaVuSans-29" transform="translate(1774.316406 0)"/>
     </g>
    </g>
    <g id="line2d_39">
     <path d="M 332.326563 143.144375 
L 344.326563 143.144375 
L 356.326563 143.144375 
" style="fill: none; stroke-dasharray: 7.4,3.2; stroke-dashoffset: 0; stroke: #30a0cf; stroke-width: 2"/>
    </g>
    <g id="text_24">
     <!-- Random Gaussian (=18.04, =2.18) -->
     <g style="fill: #ffffff" transform="translate(365.926563 147.344375) scale(0.12 -0.12)">
      <use xlink:href="#DejaVuSans-52"/>
      <use xlink:href="#DejaVuSans-61" transform="translate(67.232422 0)"/>
      <use xlink:href="#DejaVuSans-6e" transform="translate(128.511719 0)"/>
      <use xlink:href="#DejaVuSans-64" transform="translate(191.890625 0)"/>
      <use xlink:href="#DejaVuSans-6f" transform="translate(255.367188 0)"/>
      <use xlink:href="#DejaVuSans-6d" transform="translate(316.548828 0)"/>
      <use xlink:href="#DejaVuSans-20" transform="translate(413.960938 0)"/>
      <use xlink:href="#DejaVuSans-47" transform="translate(445.748047 0)"/>
      <use xlink:href="#DejaVuSans-61" transform="translate(523.238281 0)"/>
      <use xlink:href="#DejaVuSans-75" transform="translate(584.517578 0)"/>
      <use xlink:href="#DejaVuSans-73" transform="translate(647.896484 0)"/>
      <use xlink:href="#DejaVuSans-73" transform="translate(699.996094 0)"/>
      <use xlink:href="#DejaVuSans-69" transform="translate(752.095703 0)"/>
      <use xlink:href="#DejaVuSans-61" transform="translate(779.878906 0)"/>
      <use xlink:href="#DejaVuSans-6e" transform="translate(841.158203 0)"/>
      <use xlink:href="#DejaVuSans-20" transform="translate(904.537109 0)"/>
      <use xlink:href="#DejaVuSans-28" transform="translate(936.324219 0)"/>
      <use xlink:href="#DejaVuSans-3bc" transform="translate(975.337891 0)"/>
      <use xlink:href="#DejaVuSans-3d" transform="translate(1038.960938 0)"/>
      <use xlink:href="#DejaVuSans-31" transform="translate(1122.75 0)"/>
      <use xlink:href="#DejaVuSans-38" transform="translate(1186.373047 0)"/>
      <use xlink:href="#DejaVuSans-2e" transform="translate(1249.996094 0)"/>
      <use xlink:href="#DejaVuSans-30" transform="translate(1281.783203 0)"/>
      <use xlink:href="#DejaVuSans-34" transform="translate(1345.40625 0)"/>
      <use xlink:href="#DejaVuSans-2c" transform="translate(1409.029297 0)"/>
      <use xlink:href="#DejaVuSans-20" transform="translate(1440.816406 0)"/>
      <use xlink:href="#DejaVuSans-3c3" transform="translate(1472.603516 0)"/>
      <use xlink:href="#DejaVuSans-3d" transform="translate(1535.982422 0)"/>
      <use xlink:href="#DejaVuSans-32" transform="translate(1619.771484 0)"/>
      <use xlink:href="#DejaVuSans-2e" transform="translate(1683.394531 0)"/>
      <use xlink:href="#DejaVuSans-31" transform="translate(1715.181641 0)"/>
      <use xlink:href="#DejaVuSans-38" transform="translate(1778.804688 0)"/>
      <use xlink:href="#DejaVuSans-29" transform="translate(1842.427734 0)"/>
     </g>
    </g>
   </g>
  </g>
 </g>
 <defs>
  <clipPath id="pae5a226b8f">
   <rect x="74.471875" y="39.3575" width="775.08" height="324.52"/>
  </clipPath>
 </defs>
</svg>
